<svg id="Layer_1" data-name="Layer 1" xmlns="http://www.w3.org/2000/svg" viewBox="0 0 93.17 47.06">
   <defs>
      <style>.cls-1{fill:#020202;}.cls-2{fill:#68696b;}.cls-3{fill:#5a5a5a;}.cls-4{fill:#939598;}.cls-5{fill:#d2d3d4;}.cls-6{fill:#b6b7b9;}.cls-7{fill:#fff;}.cls-8{fill:#a61d38;}.cls-9{fill:#811425;}.cls-10{fill:#d21e49;}.cls-11{fill:#be1f41;}.cls-12{fill:#be2042;}.cls-13{fill:#b31e3a;}.cls-14{fill:#d21e48;}.cls-15{fill:#92192b;}.cls-16{fill:#a51d36;}.cls-17{fill:#660d21;}.cls-18{fill:#be2143;}.cls-19{fill:none;stroke:#1f2817;stroke-miterlimit:10;stroke-width:0.8px;}.cls-20{fill:#010101;}</style>
   </defs>
   <title>mecafee</title>
   <path class="cls-1" d="M65.63,17H63.2a0.14,0.14,0,0,1-.14-0.14c-0.13-.42-0.26-0.83-0.38-1.25a0.14,0.14,0,0,0-.17-0.13H59.41a0.15,0.15,0,0,0-.17.13c-0.13.42-.27,0.83-0.39,1.25a0.17,0.17,0,0,1-.2.14H56.43c-0.17,0-.18,0-0.13-0.18l2.12-6.86,1-3.3a0.2,0.2,0,0,1,.23-0.17h2.61a0.16,0.16,0,0,1,.18.13L65.6,16.83S65.62,16.92,65.63,17ZM60,13.12h1.86c0.14,0,.07-0.09.06-0.14L61,10A0.08,0.08,0,0,0,61,9.95Z" transform="translate(-0.59 -0.79)"/>
   <path class="cls-1" d="M40.88,11.22l-0.19,1.2-0.41,2.71c-0.09.57-.18,1.14-0.26,1.71a0.11,0.11,0,0,1-.14.12H37.57c-0.11,0-.13,0-0.11-0.14,0.14-.84.28-1.68,0.41-2.51s0.27-1.7.4-2.55l0.4-2.53c0.14-.86.28-1.71,0.41-2.57a0.2,0.2,0,0,1,.25-0.22c0.78,0,1.56,0,2.35,0a0.17,0.17,0,0,1,.2.14q0.89,2.84,1.8,5.69c0.48,1.5,1,3,1.43,4.51C45.16,17,45.14,17,45,17H42.37a0.18,0.18,0,0,1-.21-0.18q-0.54-2.49-1.09-5l-0.13-.6H40.88Z" transform="translate(-0.59 -0.79)"/>
   <path class="cls-1" d="M76.73,25.61a1.57,1.57,0,0,1,.94,1c0.55,1.31,1.09,2.63,1.64,4H77.24A0.19,0.19,0,0,1,77,30.42q-0.58-1.53-1.18-3.06a1.3,1.3,0,0,0-.65-0.82,2.07,2.07,0,0,0-.73-0.12H74c-0.12,0-.15,0-0.15.15,0,1.26,0,2.52,0,3.79,0,0.19-.05.23-0.23,0.23-0.54,0-1.08,0-1.62,0-0.11,0-.15,0-0.15-0.15q0-4.82,0-9.65c0-.13,0-0.18.17-0.18,1.14,0,2.29,0,3.43,0a4.9,4.9,0,0,1,2,.43,2.05,2.05,0,0,1,1.15,1.54,2.65,2.65,0,0,1-.26,1.92,2.29,2.29,0,0,1-1.59,1.08Zm-2.89-2.09c0,0.4,0,.8,0,1.21,0,0.1,0,.15.13,0.15a10.72,10.72,0,0,0,1.34-.06,1.54,1.54,0,0,0,1-.49,1.27,1.27,0,0,0-.77-2.06,8.92,8.92,0,0,0-1.64-.09c-0.11,0-.11.05-0.11,0.13C73.84,22.7,73.84,23.11,73.84,23.52Z" transform="translate(-0.59 -0.79)"/>
   <path class="cls-1" d="M61.56,24.1c0-1.11,0-2.23,0-3.34,0-.13,0-0.17.17-0.17,0.55,0,1.1,0,1.65,0,0.16,0,.18.05,0.18,0.19q0,3,0,5.94a3.6,3.6,0,0,0,.21,1.18,1.76,1.76,0,0,0,1.69,1.28,1.89,1.89,0,0,0,1.71-.67,2.6,2.6,0,0,0,.48-1.26A8.42,8.42,0,0,0,67.71,26c0-1.75,0-3.5,0-5.24,0-.14,0-0.19.18-0.19h1.67c0.11,0,.15,0,0.15.14,0,2.11,0,4.22,0,6.33a4.28,4.28,0,0,1-.4,1.9,3,3,0,0,1-2.2,1.62,6.48,6.48,0,0,1-3.28-.09A3,3,0,0,1,61.63,28a5.89,5.89,0,0,1-.08-1.06C61.56,26,61.56,25,61.56,24.1Z" transform="translate(-0.59 -0.79)"/>
   <path class="cls-1" d="M46.32,11.13l-1,4.69-0.44-1.38c-0.31-1-.61-2-0.93-2.95A0.7,0.7,0,0,1,44,11q0.76-2.2,1.49-4.41a0.18,0.18,0,0,1,.21-0.15H48a0.16,0.16,0,0,1,.19.17c0.1,0.78.22,1.55,0.34,2.33l0.33,2.3,0.38,2.61,0.37,2.54c0,0.15,0,.29.07,0.44s0,0.12-.11.12H47.3a0.12,0.12,0,0,1-.14-0.12q-0.21-1.52-.43-3l-0.36-2.51A1.72,1.72,0,0,0,46.32,11.13Z" transform="translate(-0.59 -0.79)"/>
   <path class="cls-1" d="M80.72,25.57c0-1.6,0-3.2,0-4.8,0-.13,0-0.18.17-0.18h5.56c0.13,0,.17,0,0.17.16q0,0.62,0,1.24c0,0.14,0,.16-0.17.16H82.9c-0.14,0-.19,0-0.19.18q0,1.06,0,2.11c0,0.15,0,.18.19,0.18h3.2c0.17,0,.19.05,0.19,0.2,0,0.4,0,.79,0,1.19,0,0.14,0,.19-0.18.19h-3.2c-0.16,0-.2,0-0.19.19,0,0.81,0,1.62,0,2.43,0,0.14,0,.19.18,0.19h3.57c0.14,0,.18,0,0.18.17,0,0.41,0,.83,0,1.24,0,0.11,0,.15-0.14.15H80.87c-0.14,0-.15-0.06-0.15-0.17q0-2.42,0-4.83h0Z" transform="translate(-0.59 -0.79)"/>
   <path class="cls-1" d="M45.24,25.58c0-1.59,0-3.19,0-4.78,0-.18.05-0.21,0.21-0.21h5.47c0.16,0,.2,0,0.19.19,0,0.4,0,.79,0,1.19,0,0.15,0,.19-0.18.19H47.41c-0.15,0-.19,0-0.18.18,0,0.72,0,1.43,0,2.15,0,0.12,0,.15.15,0.14h3.23c0.15,0,.18,0,0.18.19,0,0.4,0,.79,0,1.19,0,0.15,0,.2-0.19.2H47.4c-0.14,0-.18,0-0.17.17q0,1.24,0,2.49c0,0.13,0,.15.16,0.15H51c0.14,0,.18,0,0.17.18,0,0.42,0,.84,0,1.26,0,0.1,0,.13-0.13.13H45.35c-0.14,0-.11-0.08-0.11-0.16Q45.24,28,45.24,25.58Z" transform="translate(-0.59 -0.79)"/>
   <path class="cls-1" d="M78.55,14.75a3.08,3.08,0,0,1-1.72,2,4.31,4.31,0,0,1-3.23.15,3.25,3.25,0,0,1-2.14-2.46,3.67,3.67,0,0,1,1.81-4.06A3.88,3.88,0,0,1,75.5,10a3.7,3.7,0,0,1,1.88.65,3.37,3.37,0,0,1,1.31,2.15,5.65,5.65,0,0,1,.08,1.13c0,0.12,0,.16-0.16.16H74c-0.23,0-.23,0-0.18.23a1.14,1.14,0,0,0,1.2,1,2.65,2.65,0,0,0,.62-0.06,0.87,0.87,0,0,0,.61-0.4,0.15,0.15,0,0,1,.15-0.09h2.13ZM75,12.63h1c0.24,0,.24,0,0.16-0.23A1,1,0,0,0,76,12.15,1.34,1.34,0,0,0,74.21,12a1,1,0,0,0-.33.53c0,0.11,0,.13.11,0.13h1Z" transform="translate(-0.59 -0.79)"/>
   <path class="cls-1" d="M86.87,14.75a3.12,3.12,0,0,1-2.09,2.18,4.32,4.32,0,0,1-3,0,3.22,3.22,0,0,1-2-2.49,3.6,3.6,0,0,1,.92-3.31A3.37,3.37,0,0,1,82.86,10a4.22,4.22,0,0,1,2.38.37A3.21,3.21,0,0,1,87,12.64a5.27,5.27,0,0,1,.12,1.29c0,0.15-.05.17-0.19,0.17H82.32c-0.18,0-.2.06-0.18,0.21a1.15,1.15,0,0,0,1.11,1,2.27,2.27,0,0,0,.84-0.09,0.78,0.78,0,0,0,.48-0.37,0.14,0.14,0,0,1,.13-0.09h2.16Zm-3.53-2.1h1.06c0.09,0,.13,0,0.1-0.12a1.13,1.13,0,0,0-.19-0.39,1.35,1.35,0,0,0-1.57-.32,1,1,0,0,0-.57.68c0,0.11,0,.16.12,0.15h1Z" transform="translate(-0.59 -0.79)"/>
   <path class="cls-1" d="M37.39,28.57a5.19,5.19,0,0,0,1.65.57A2.48,2.48,0,0,0,41,28.77,1.07,1.07,0,0,0,41,27a5,5,0,0,0-1.34-.67,7.88,7.88,0,0,1-1.48-.71,2.51,2.51,0,0,1-1.14-2.38,2.87,2.87,0,0,1,.57-1.68,2.91,2.91,0,0,1,1.76-1,6.93,6.93,0,0,1,3.43.19,0.09,0.09,0,0,1,.09.12q-0.08.72-.16,1.44c0,0.1-.06.09-0.13,0.06a4.85,4.85,0,0,0-1.4-.35,2.67,2.67,0,0,0-1.31.12,1.27,1.27,0,0,0-.74,1.48,1.08,1.08,0,0,0,.58.66,10.42,10.42,0,0,0,1.41.6,5.73,5.73,0,0,1,1.31.68,2.44,2.44,0,0,1,1,1.81,2.82,2.82,0,0,1-.8,2.43,3.23,3.23,0,0,1-1.59.79,7.45,7.45,0,0,1-3.52-.15c-0.34-.09-0.35-0.09-0.32-0.45S37.34,29.06,37.39,28.57Z" transform="translate(-0.59 -0.79)"/>
   <path class="cls-1" d="M70.95,8a2.82,2.82,0,0,0-1,0,0.69,0.69,0,0,0-.59.7c0,0.42,0,.84,0,1.26,0,0.11,0,.13.13,0.13h1.15c0.11,0,.15,0,0.15.14q0,0.92,0,1.85c0,0.1,0,.13-0.13.13H69.52c-0.14,0-.18,0-0.17.17,0,1.49,0,3,0,4.46,0,0.16,0,.19-0.2.19H67c-0.13,0-.17,0-0.17-0.17,0-1.49,0-3,0-4.46,0-.15,0-0.2-0.19-0.19s-0.56,0-.83,0c-0.13,0-.17,0-0.17-0.16,0-.6,0-1.21,0-1.81,0-.11,0-0.15.14-0.15h0.91c0.12,0,.15,0,0.15-0.15,0-.59,0-1.17,0-1.76a1.9,1.9,0,0,1,1.53-1.89,5.24,5.24,0,0,1,2.48-.06A0.11,0.11,0,0,1,71,6.3C70.95,6.86,70.95,7.42,70.95,8Z" transform="translate(-0.59 -0.79)"/>
   <path class="cls-1" d="M60,22.52A4.36,4.36,0,0,0,57.85,22a3.16,3.16,0,0,0-3.09,2.23,4,4,0,0,0,.4,3.58,3,3,0,0,0,2.32,1.35,5.81,5.81,0,0,0,2.63-.37c0,0.53,0,1,.07,1.56a0.1,0.1,0,0,1-.1.12,9.06,9.06,0,0,1-3.16.23A6.06,6.06,0,0,1,54.62,30a4.06,4.06,0,0,1-2-2.7A6.33,6.33,0,0,1,53,23.12a4.26,4.26,0,0,1,2.65-2.33,6.81,6.81,0,0,1,4.41,0,0.14,0.14,0,0,1,.13.17C60.12,21.47,60.08,22,60,22.52Z" transform="translate(-0.59 -0.79)"/>
   <path class="cls-1" d="M55.57,14.39c0,0.08,0,.13,0,0.18,0,0.63,0,1.27,0,1.9a0.25,0.25,0,0,1-.15.25,3.45,3.45,0,0,1-1.46.4,3.92,3.92,0,0,1-2-.29,3.14,3.14,0,0,1-1.8-2.25,3.68,3.68,0,0,1,.75-3.36,3.08,3.08,0,0,1,2.21-1.08,5.28,5.28,0,0,1,2.3.32,0.16,0.16,0,0,1,.14.16c0,0.69,0,1.37,0,2.07a1.18,1.18,0,0,1-.29-0.13,2.49,2.49,0,0,0-1.83-.15,1.24,1.24,0,0,0,.3,2.43,2.45,2.45,0,0,0,1.62-.3Z" transform="translate(-0.59 -0.79)"/>
   <path class="cls-2" d="M33,20a22.06,22.06,0,0,1-.88,2.32,25.82,25.82,0,0,1-1.58,3q-0.48.8-1,1.56a23.78,23.78,0,0,1-2.18,2.59A24.6,24.6,0,0,1,25,31.55c-0.34.27-.68,0.53-1,0.78l-0.15.09a0.1,0.1,0,0,1,0-.16,0.11,0.11,0,0,0,0-.14,3.47,3.47,0,0,0-.11-1.24l0.08-.07A21.68,21.68,0,0,0,25.91,29a21.88,21.88,0,0,0,3.47-4.39,25.85,25.85,0,0,0,3-7.5c0.15-.62.26-1.25,0.4-1.87,0.21,0,.14.12,0.14,0.23q0,2.17,0,4.33C32.91,19.9,32.89,20,33,20Z" transform="translate(-0.59 -0.79)"/>
   <path class="cls-3" d="M17.51,5.26c0.8,0,1.6-.05,2.41,0l1.43,0c1.23,0.06,2.47.15,3.69,0.28,1.07,0.13,2.14.26,3.21,0.44l2.13,0.36,0.12,0,1.41,0.29,0,0-0.16,0Q29,6.2,26.36,5.93c-1.48-.15-3-0.26-4.46-0.3q-1.92-.06-3.84,0c-1,0-2,.1-3.06.2Q13.11,6,11.24,6.36c-1.48.26-2.95,0.62-4.42,1a0.14,0.14,0,0,0-.12.14c-0.08.74-.12,1.48-0.13,2.21A33.47,33.47,0,0,0,7,15.3,28.34,28.34,0,0,0,8.41,21a21.87,21.87,0,0,0,7.66,10.24,0.1,0.1,0,0,1,.07.09A0.21,0.21,0,0,1,16,31.24a20.65,20.65,0,0,1-2.31-1.89c-0.5-.48-1-1-1.45-1.48l-0.35-.42c-0.26-.32-0.53-0.64-0.78-1s-0.46-.66-0.69-1l-0.07-.1c-0.34-.54-0.66-1.09-1-1.65s-0.62-1.25-.92-1.87a4.46,4.46,0,0,0-.24-0.63c-0.24-.59-0.46-1.19-0.65-1.8S7.13,18.2,7,17.58a1.24,1.24,0,0,0-.06-0.16,0.55,0.55,0,0,0,0-.09c-0.2-.83-0.37-1.66-0.5-2.5a5.59,5.59,0,0,0-.16-0.94V13.72a1.17,1.17,0,0,0,0-.14C6.11,12.53,6.05,11.47,6,10.41,6,9.61,6,8.8,6,8c0-.33,0-0.66.07-1A0.11,0.11,0,0,1,6.21,6.9a4.77,4.77,0,0,0,.7-0.17l1.3-.26L9.8,6.16l0.64-.1,1.75-.27,1.59-.22h0.11Q15,5.44,16.17,5.36Z" transform="translate(-0.59 -0.79)"/>
   <path class="cls-3" d="M33,20c-0.09,0-.07-0.08-0.07-0.14q0-2.17,0-4.33c0-.11.07-0.25-0.14-0.23l0.06-.36a0.74,0.74,0,0,0,.23-0.15l-0.2-.07,0-.17c0.06,0,.16,0,0.14-0.05a0.36,0.36,0,0,0-.08-0.34l0-.43c0.05,0,.07,0,0-0.07V13.51c0.08,0,.17-0.1,0-0.18l0-.46a0.06,0.06,0,0,0,.06-0.06,0.06,0.06,0,0,0-.06,0V12.69a0.08,0.08,0,0,0,.07-0.06s0,0-.06,0l0-.28c0.07,0,.07-0.07,0-0.11,0-.77.09-1.55,0.09-2.32a25.46,25.46,0,0,0-.12-2.94c0.39-.35.8-0.69,1.18-1.06a0.18,0.18,0,0,1,.08.2,26.74,26.74,0,0,1,.2,4.19A33.36,33.36,0,0,1,33.8,17c-0.1.44-.2,0.88-0.34,1.31-0.06.2-.1,0.41-0.16,0.61H33.16c0-.1-0.1-0.07-0.17-0.1s0.11,0.1.17,0.1S33.06,19,33,19a1,1,0,0,1,.15.3,0.09,0.09,0,0,1,0,.09c-0.05,0-.08,0,0,0.07Zm-0.08-4.77c0.06,0,.09-0.08.06-0.14l0,0C32.85,15.09,32.87,15.14,32.89,15.21Z" transform="translate(-0.59 -0.79)"/>
   <path class="cls-4" d="M12.2,27.87c0.47,0.51.95,1,1.45,1.48A20.65,20.65,0,0,0,16,31.24a0.21,0.21,0,0,0,.17.07h0l0,0a0.1,0.1,0,0,0,.05.07c0.27,0.18.54,0.38,0.82,0.55a1.56,1.56,0,0,0,.59.3h0l0,0h0a0.12,0.12,0,0,0,.14.07h0l0,0h0a0.11,0.11,0,0,0,.11.07c0.58,0.25,1.11.58,1.67,0.86v1.46a13.5,13.5,0,0,1-1.27-.61q-0.92-.48-1.81-1a23.86,23.86,0,0,1-2.4-1.7c-0.53-.43-1-0.87-1.54-1.35a20.75,20.75,0,0,1-1.73-1.86c0.31-.12.64-0.22,0.95-0.34A0.58,0.58,0,0,1,12.2,27.87Z" transform="translate(-0.59 -0.79)"/>
   <path class="cls-4" d="M6.91,6.72a4.77,4.77,0,0,1-.7.17A0.11,0.11,0,0,0,6.1,7c0,0.33,0,.66-0.07,1,0,0.8,0,1.61,0,2.41-0.16.07-.33,0.09-0.49,0.16a2,2,0,0,1-.79.23,0.29,0.29,0,0,1,0-.19c0-.67,0-1.35,0-2A25.29,25.29,0,0,1,4.89,6,0.17,0.17,0,0,1,5,5.83l1.61-.37a1.22,1.22,0,0,0,.11.4A2.14,2.14,0,0,1,7,6.34,0.56,0.56,0,0,1,6.91,6.72Z" transform="translate(-0.59 -0.79)"/>
   <path class="cls-5" d="M30.38,6.33L28.26,6c-1.07-.18-2.14-0.3-3.21-0.44,0.17-.14.18-0.2,0-0.35a1.37,1.37,0,0,1-.18-0.36,0.77,0.77,0,0,0-.1-0.22,0.43,0.43,0,0,1,0-.44l2,0.24c0.51,0.06,1,.12,1.53.23s1.06,0.16,1.58.3a2.31,2.31,0,0,0,.27.86A4.83,4.83,0,0,1,30.38,6.33Z" transform="translate(-0.59 -0.79)"/>
   <path class="cls-3" d="M19.61,34.81V33.35a21,21,0,0,0,2-1c0.75-.43,1.46-0.92,2.16-1.43a3.47,3.47,0,0,1,.11,1.24,0.11,0.11,0,0,1,0,.14,0.1,0.1,0,0,0,0,.16l-0.29.21c-0.59.42-1.22,0.79-1.85,1.15s-1.28.69-1.94,1C19.73,34.8,19.67,34.87,19.61,34.81Zm3.9-3.57s0,0,0,0l0,0s0,0,0,0Zm0.06,0.06h0Z" transform="translate(-0.59 -0.79)"/>
   <path class="cls-5" d="M13.78,5.57l-1.59.22-1.75.27-0.64.1a4.41,4.41,0,0,0-.2-0.48,0.94,0.94,0,0,0-.22-0.49A0.28,0.28,0,0,1,9.3,4.93c0.3-.06.6-0.13,0.91-0.16s0.68-.16,1-0.2c0.57-.06,1.13-0.15,1.69-0.23a2.79,2.79,0,0,1,.39,0,0.7,0.7,0,0,1,.13.28C13.61,4.89,13.66,5.25,13.78,5.57Z" transform="translate(-0.59 -0.79)"/>
   <path class="cls-5" d="M24.77,4.16a0.43,0.43,0,0,0,0,.44,0.77,0.77,0,0,1,.1.22,1.37,1.37,0,0,0,.18.36c0.13,0.15.12,0.21,0,.35-1.23-.13-2.46-0.22-3.69-0.28a0.39,0.39,0,0,1,0-.46,0.07,0.07,0,0,0,0-.06A0.89,0.89,0,0,1,21,4.19a0.3,0.3,0,0,0-.18-0.14,1.15,1.15,0,0,1,.69-0.13l0.52,0c0.58,0,1.16.1,1.74,0.12C24.13,4.06,24.45,4.12,24.77,4.16Z" transform="translate(-0.59 -0.79)"/>
   <path class="cls-5" d="M8.42,21.86c0.3,0.63.58,1.26,0.92,1.87s0.63,1.11,1,1.65l0.07,0.1c-0.05.07-.11,0-0.16,0a0.27,0.27,0,0,0-.14,0,5.37,5.37,0,0,1-1,.31,13.53,13.53,0,0,1-.76-1.27c-0.19-.33-0.37-0.67-0.53-1S7.53,23,7.42,22.75l-0.07-.17a0.38,0.38,0,0,1,.24-0.37,1.49,1.49,0,0,1,.65-0.1A0.11,0.11,0,0,0,8.34,22,0.29,0.29,0,0,1,8.42,21.86Z" transform="translate(-0.59 -0.79)"/>
   <path class="cls-5" d="M6.25,13.89a5.59,5.59,0,0,1,.16.94c0.13,0.84.3,1.67,0.5,2.5a0.55,0.55,0,0,1,0,.09s-0.1,0-.11.06a0.07,0.07,0,0,1-.08.08c-0.11,0-.22,0-0.22.14a0.05,0.05,0,0,1,0,0,0.59,0.59,0,0,0-.42.13c-0.24.12-.24,0.08-0.34-0.16a9.19,9.19,0,0,1-.31-1.1,8.34,8.34,0,0,1-.21-1A8.12,8.12,0,0,1,5,14.43l0,0V14.18H5.23A4.34,4.34,0,0,1,6,14,0.08,0.08,0,0,0,6,13.91c0-.16.08-0.1,0.15,0A0.17,0.17,0,0,0,6.25,13.89Z" transform="translate(-0.59 -0.79)"/>
   <path class="cls-5" d="M13.78,5.57c-0.13-.33-0.18-0.68-0.33-1a0.7,0.7,0,0,0-.13-0.28l0.76-.1,1.35-.14L16,4a2.72,2.72,0,0,0,.56,0,0.5,0.5,0,0,1,.37.08,0.14,0.14,0,0,1,.08.09,1.42,1.42,0,0,0,.11.32,3.63,3.63,0,0,0,.18.63,0.09,0.09,0,0,0,.1.08c0.05,0,.11,0,0.12.07l-1.35.1Q15,5.44,13.89,5.57H13.78Z" transform="translate(-0.59 -0.79)"/>
   <path class="cls-6" d="M6.25,13.89a0.17,0.17,0,0,1-.08,0C6.1,13.81,6,13.75,6,13.91A0.08,0.08,0,0,1,6,14a4.34,4.34,0,0,0-.73.21H5c-0.1-.52-0.13-1-0.18-1.57s-0.1-1.11-.1-1.67c0,0,0-.09,0-0.14a2,2,0,0,0,.79-0.23c0.16-.06.33-0.09,0.49-0.16,0.06,1.06.11,2.12,0.24,3.17a1.17,1.17,0,0,1,0,.14s-0.07,0-.07.06a0.05,0.05,0,0,0,.06,0v0.07Z" transform="translate(-0.59 -0.79)"/>
   <path class="cls-6" d="M9.05,25.77a5.37,5.37,0,0,0,1-.31,0.27,0.27,0,0,1,.14,0c0.05,0,.11.07,0.16,0,0.23,0.33.45,0.67,0.69,1s0.52,0.65.78,1l0.35,0.42a0.58,0.58,0,0,0-.39.05c-0.31.12-.63,0.22-0.95,0.34a8.14,8.14,0,0,1-.6-0.73c-0.43-.55-0.82-1.14-1.2-1.72A0.1,0.1,0,0,1,9.05,25.77Z" transform="translate(-0.59 -0.79)"/>
   <path class="cls-6" d="M9.3,4.93a0.28,0.28,0,0,0,.08.25,0.94,0.94,0,0,1,.22.49,4.41,4.41,0,0,1,.2.48l-1.59.31-1.3.26a0.56,0.56,0,0,0,0-.39,2.14,2.14,0,0,0-.21-0.47,1.22,1.22,0,0,1-.11-0.4l1.23-.27,1.28-.24Z" transform="translate(-0.59 -0.79)"/>
   <path class="cls-6" d="M30.38,6.33a4.83,4.83,0,0,0-.2-0.54,2.31,2.31,0,0,1-.27-0.86c0.8,0.12,1.59.28,2.38,0.46,0,0.16.15,0.28,0.2,0.44a1.49,1.49,0,0,0,.29.63,0.46,0.46,0,0,1,0,.28c0,0.06-.09,0-0.14,0h0l-0.73-.14L30.5,6.36Z" transform="translate(-0.59 -0.79)"/>
   <path class="cls-4" d="M32.64,6.79c0.05,0,.16,0,0.14,0a0.46,0.46,0,0,0,0-.28,1.49,1.49,0,0,1-.29-0.63c0-.17-0.16-0.28-0.2-0.44,0.67,0.13,1.34.28,2,.47-0.38.37-.79,0.71-1.18,1.06l-0.35-.06S32.64,6.89,32.64,6.79Zm0.25,0h0a0.06,0.06,0,0,0,0,0h0A0.06,0.06,0,0,0,32.88,6.83Z" transform="translate(-0.59 -0.79)"/>
   <path class="cls-1" d="M89.2,20.87c0,0.25,0,.49,0,0.74s0,0.17-.13.17S89,21.69,89,21.62c0-.34,0-0.68,0-1,0-.06-0.06-0.17.07-0.16s0.27-.09.34,0.09l0.26,0.67a0.11,0.11,0,0,0,.07.09c0.09-.24.2-0.47,0.27-0.72s0.23-.14.36-0.14,0.07,0.13.07,0.19c0,0.3,0,.59,0,0.89,0,0.09.09,0.25-.12,0.24s-0.1-.17-0.1-0.25,0-.43,0-0.65c-0.09,0-.08.06-0.09,0.09q-0.14.35-.26,0.71a0.13,0.13,0,0,1-.14.1,0.13,0.13,0,0,1-.14-0.11l-0.29-.8H89.2Z" transform="translate(-0.59 -0.79)"/>
   <path class="cls-1" d="M88,21.2c0-.14,0-0.28,0-0.43s0-.13-0.12-0.12h-0.2c-0.07,0-.11,0-0.1-0.1s0-.12.1-0.12h0.85c0.09,0,.11,0,0.11.12a0.09,0.09,0,0,1-.1.1c-0.31,0-.31,0-0.31.34s0,0.44,0,.66a0.12,0.12,0,1,1-.23,0c0-.15,0-0.3,0-0.44h0Z" transform="translate(-0.59 -0.79)"/>
   <path class="cls-2" d="M33.16,18.95H33.3a1.22,1.22,0,0,1-.14.41A1,1,0,0,0,33,19s0.17,0,.14-0.1h0Z" transform="translate(-0.59 -0.79)"/>
   <path class="cls-2" d="M33.12,19.51c-0.05,0,0-.06,0-0.07Z" transform="translate(-0.59 -0.79)"/>
   <path class="cls-6" d="M5,14.4l0,0Z" transform="translate(-0.59 -0.79)"/>
   <path class="cls-7" d="M32.64,6.79c0,0.09.08,0.07,0.13,0.08l0.35,0.06a25.46,25.46,0,0,1,.12,2.94c0,0.77-.05,1.55-0.09,2.32a0.13,0.13,0,0,0,0,.11l0,0.28a0.11,0.11,0,0,0,0,.11v0.18l0,0.46a0.27,0.27,0,0,0,0,.18v0.14a0.07,0.07,0,0,0,0,.07l0,0.43a1.72,1.72,0,0,0-.06.39l0,0.17a0.44,0.44,0,0,0,0,.21l-0.06.36c-0.13.62-.25,1.25-0.4,1.87a25.85,25.85,0,0,1-3,7.5A21.88,21.88,0,0,1,25.91,29a21.68,21.68,0,0,1-2.06,1.77l-0.08.07c-0.7.5-1.41,1-2.16,1.43a21,21,0,0,1-2,1c-0.56-.28-1.1-0.61-1.67-0.86a0.09,0.09,0,0,0-.11-0.07h0s0,0,0,0h0a0.16,0.16,0,0,0-.14-0.07h0s0,0,0,0h0l-1.46-1h0a0.1,0.1,0,0,0-.07-0.09A21.87,21.87,0,0,1,8.41,21,28.34,28.34,0,0,1,7,15.3a33.47,33.47,0,0,1-.38-5.63c0-.74,0-1.48.13-2.21a0.14,0.14,0,0,1,.12-0.14c1.47-.34,2.93-0.7,4.42-1Q13.11,6,15,5.84c1-.1,2-0.16,3.06-0.2q1.92-.07,3.84,0c1.49,0,3,.15,4.46.3Q29,6.2,31.7,6.67l0.16,0,0.68,0.13s0.08,0,.1,0h0ZM27.6,24a1.38,1.38,0,0,0,.19-0.32,15.76,15.76,0,0,0,1.06-2,13.62,13.62,0,0,0,.6-1.49l0.05-.14a0.78,0.78,0,0,0,.09-0.25,15.29,15.29,0,0,0,.48-1.52,18.12,18.12,0,0,0,.44-1.93h0l0-.12,0-.21V15.91a0.09,0.09,0,0,0,0-.09c0-.38.1-0.76,0.16-1.14,0.1-.62.15-1.24,0.2-1.87A26.07,26.07,0,0,0,31,10c0-.51,0-1-0.11-1.52,0,0,0-.16-0.09-0.1H30.78q-2,.21-4,0.34c-2.1.14-4.2,0.21-6.3,0.22s-4.44,0-6.66-.15c-1.06-.06-2.12-0.12-3.17-0.21L8.46,8.38h0s-0.07,0-.06,0a0.34,0.34,0,0,0,0,.05,34.06,34.06,0,0,0,0,4.6A26.85,26.85,0,0,0,9.18,18a20.46,20.46,0,0,0,5.53,9.64,16.73,16.73,0,0,0,4.59,3.21,0.88,0.88,0,0,0,.34.13l0.1,0a18.85,18.85,0,0,0,4.59-3,11.64,11.64,0,0,0,1.19-1.19h0l0.05-.05L26,26.14A16.87,16.87,0,0,0,27.58,24Z" transform="translate(-0.59 -0.79)"/>
   <path class="cls-2" d="M32.64,6.79c0,0.06-.06,0-0.1,0l-0.68-.13,0,0Z" transform="translate(-0.59 -0.79)"/>
   <path class="cls-5" d="M6.24,13.82a0.05,0.05,0,0,1-.06,0s0-.05.07-0.06v0.1Z" transform="translate(-0.59 -0.79)"/>
   <path class="cls-2" d="M32.88,14.54a1.72,1.72,0,0,1,.06-0.39,0.36,0.36,0,0,1,.08.34C33,14.54,32.94,14.53,32.88,14.54Z" transform="translate(-0.59 -0.79)"/>
   <path class="cls-2" d="M32.83,14.93a0.44,0.44,0,0,1,0-.21l0.2,0.07A0.74,0.74,0,0,1,32.83,14.93Z" transform="translate(-0.59 -0.79)"/>
   <path class="cls-2" d="M33,13.51a0.27,0.27,0,0,1,0-.18C33.19,13.41,33.1,13.46,33,13.51Z" transform="translate(-0.59 -0.79)"/>
   <path class="cls-2" d="M32.89,15.21c0-.07,0-0.12,0-0.16l0,0C33,15.13,33,15.16,32.89,15.21Z" transform="translate(-0.59 -0.79)"/>
   <path class="cls-2" d="M33.16,18.94c-0.06,0-.14,0-0.17-0.1s0.16,0,.17.1h0Z" transform="translate(-0.59 -0.79)"/>
   <path class="cls-2" d="M33.11,12.69a0.11,0.11,0,0,1,0-.11s0.06,0,.06,0A0.08,0.08,0,0,1,33.11,12.69Z" transform="translate(-0.59 -0.79)"/>
   <path class="cls-2" d="M33.09,12.87V12.76a0.06,0.06,0,0,1,.06,0A0.06,0.06,0,0,1,33.09,12.87Z" transform="translate(-0.59 -0.79)"/>
   <path class="cls-2" d="M33.14,12.3a0.13,0.13,0,0,1,0-.11C33.21,12.23,33.21,12.27,33.14,12.3Z" transform="translate(-0.59 -0.79)"/>
   <path class="cls-2" d="M33,13.72a0.07,0.07,0,0,1,0-.07C33.06,13.68,33,13.7,33,13.72Z" transform="translate(-0.59 -0.79)"/>
   <path class="cls-2" d="M16.17,31.31l1.46,1A1.56,1.56,0,0,1,17,32c-0.29-.16-0.55-0.36-0.82-0.55a0.1,0.1,0,0,1-.05-0.07V31.31Z" transform="translate(-0.59 -0.79)"/>
   <path class="cls-2" d="M17.66,32.31a0.16,0.16,0,0,1,.14.07A0.12,0.12,0,0,1,17.66,32.31Z" transform="translate(-0.59 -0.79)"/>
   <path class="cls-2" d="M17.83,32.42a0.09,0.09,0,0,1,.11.07A0.11,0.11,0,0,1,17.83,32.42Z" transform="translate(-0.59 -0.79)"/>
   <path class="cls-3" d="M16.17,31.31v0.05l0,0h0Z" transform="translate(-0.59 -0.79)"/>
   <path class="cls-2" d="M17.62,32.27s0,0,0,0Z" transform="translate(-0.59 -0.79)"/>
   <path class="cls-2" d="M17.8,32.38s0,0,0,0Z" transform="translate(-0.59 -0.79)"/>
   <path class="cls-2" d="M23.51,31.23l0,0s0,0,0,0l0,0S23.53,31.23,23.51,31.23Z" transform="translate(-0.59 -0.79)"/>
   <circle class="cls-2" cx="23.56" cy="31.3" r="0.01" transform="translate(-10.51 10.16) rotate(-21.74)"/>
   <path class="cls-6" d="M32.88,6.83a0.06,0.06,0,0,1,0,0h0a0.06,0.06,0,0,1,0,0h0Z" transform="translate(-0.59 -0.79)"/>
   <path class="cls-8" d="M19.65,31a0.88,0.88,0,0,1-.34-0.13,16.73,16.73,0,0,1-4.59-3.21A20.46,20.46,0,0,1,9.18,18a26.85,26.85,0,0,1-.81-4.91,34.06,34.06,0,0,1,0-4.6,0.34,0.34,0,0,1,0-.05,0.22,0.22,0,0,1,.1,0c0.34,0.39.73,0.73,1.09,1.1a1.44,1.44,0,0,0,.4.36,0.51,0.51,0,0,0-.07.22c0,0.29,0,.58,0,0.87,0,0.64,0,1.29,0,1.93S10,14.28,10,15s0.15,1.08.24,1.62c0,0.28.14,0.55,0.18,0.82,0.08,0.45.21,0.88,0.33,1.31s0.22,0.68.33,1,0.25,0.69.39,1,0.31,0.7.48,1a7.09,7.09,0,0,0,.5.91,5.56,5.56,0,0,0,.36.6,4.33,4.33,0,0,1,.3.49,0.09,0.09,0,0,0,.09,0,0.22,0.22,0,0,0,0,.09l0.52,0.75a8.13,8.13,0,0,0,.63.76,7.51,7.51,0,0,0,.76.79,0.14,0.14,0,0,0,.05.11,10.32,10.32,0,0,0,.94.82,0.92,0.92,0,0,0,.21.21c0.11,0.09.25,0.13,0.36,0.22a9.73,9.73,0,0,0,.87.7,5.37,5.37,0,0,1,.68.48,0.26,0.26,0,0,0,.12,0,0.2,0.2,0,0,1,.1,0,6.1,6.1,0,0,0,.88.51,0.25,0.25,0,0,0,.16,0l0.14,0c0,0.41,0,.83,0,1.24A0.66,0.66,0,0,0,19.65,31Z" transform="translate(-0.59 -0.79)"/>
   <path class="cls-9" d="M9.94,9.91a1.44,1.44,0,0,1-.4-0.36c-0.36-.37-0.75-0.71-1.09-1.1a0.22,0.22,0,0,0-.1,0c0-.05,0-0.07.06,0h0l2.19,0.19c1.06,0.09,2.11.15,3.17,0.21q3.33,0.18,6.66.15c2.1,0,4.2-.08,6.3-0.22q2-.13,4-0.34h0.05a0.16,0.16,0,0,1-.09.16c-0.26.26-.51,0.53-0.78,0.78a3.69,3.69,0,0,1-.64.6,1.66,1.66,0,0,1-.23,0c-0.37,0-.73.07-1.09,0.11H27.93l-0.87.09c-0.42,0-.84,0-1.25.08-0.67,0-1.34.08-2,.11-0.84,0-1.68.06-2.52,0.07-1.09,0-2.19,0-3.28,0L15.1,10.3c-0.83,0-1.66-.09-2.49-0.14l-1-.08Z" transform="translate(-0.59 -0.79)"/>
   <path class="cls-10" d="M30.52,16.35a18.12,18.12,0,0,1-.44,1.93,15.29,15.29,0,0,1-.48,1.52,0.8,0.8,0,0,1-.33-0.63c0-.12,0-0.3-0.14-0.35A0.25,0.25,0,0,1,29,18.5a0.15,0.15,0,0,0,0-.18c-0.08,0-.12,0-0.16.07a0.16,0.16,0,0,1-.11.05s0,0,0,0a0.66,0.66,0,0,0,.1-0.22c0-.27.14-0.52,0.17-0.78A4.32,4.32,0,0,1,29,16.72a0.15,0.15,0,0,0-.07-0.2,0.17,0.17,0,0,0-.2.06l-0.13.09a3.09,3.09,0,0,0-.44.42,0.32,0.32,0,0,1-.18.16,0.13,0.13,0,0,0-.1.09,1,1,0,0,1-.72.46,0.37,0.37,0,0,1-.38-0.29c-0.13-.35-0.22-0.72-0.35-1.07a5.61,5.61,0,0,1-.23-0.85c-0.08-.4-0.16-0.8-0.25-1.2s-0.16-.9-0.26-1.34a2.71,2.71,0,0,0-.35-1A0.44,0.44,0,0,0,25,11.8h0a1.76,1.76,0,0,1-.07-0.43,0.76,0.76,0,0,1,.14.13,1.22,1.22,0,0,1,.63.57,5.66,5.66,0,0,1,.27.92,14.69,14.69,0,0,0,.45,1.57,0.72,0.72,0,0,0,.25.41,0.16,0.16,0,0,1,.07.13c0,0.08,0,.19.09,0.2s0.23,0.06.27-.11a0.09,0.09,0,0,1,.1-0.06A0.16,0.16,0,0,0,27.33,15a0.08,0.08,0,0,1,.06-0.08,0.38,0.38,0,0,0,.27-0.19,0.74,0.74,0,0,0,.29-0.3,0.2,0.2,0,0,1,.09,0,0.24,0.24,0,0,0,.11-0.05A2.59,2.59,0,0,0,28.51,14c0-.09.21-0.14,0.28-0.25a0.11,0.11,0,0,1,.08,0A0.12,0.12,0,0,0,29,13.55a0.14,0.14,0,0,1,.16-0.15c0.14,0,.16-0.07.21-0.18a0.59,0.59,0,0,1,.13-0.36,4,4,0,0,0,0,.93,1.71,1.71,0,0,0,.38,1.11,0.25,0.25,0,0,1,0,.09,0.72,0.72,0,0,0,.2.45,0.22,0.22,0,0,1,0,.13,2.7,2.7,0,0,0,0,.3A0.5,0.5,0,0,0,30.52,16.35Z" transform="translate(-0.59 -0.79)"/>
   <path class="cls-8" d="M30.52,16.35a0.5,0.5,0,0,1-.31-0.48,2.7,2.7,0,0,1,0-.3,0.22,0.22,0,0,0,0-.13,0.72,0.72,0,0,1-.2-0.45,0.25,0.25,0,0,0,0-.09,1.71,1.71,0,0,1-.38-1.11,4,4,0,0,1,0-.93c0-.42,0-0.83,0-1.25a1.2,1.2,0,0,0,0-.42,5.14,5.14,0,0,0,0-.86,0.54,0.54,0,0,0-.1-0.41A3.69,3.69,0,0,0,30,9.32c0.27-.25.52-0.52,0.78-0.78a0.16,0.16,0,0,0,.09-0.16c0.13-.05.09,0.06,0.09,0.1C31,9,31,9.5,31,10a26.07,26.07,0,0,1,0,2.8c0,0.62-.09,1.25-0.2,1.87-0.06.38-.13,0.76-0.16,1.14a0.09,0.09,0,0,0,0,.09V16c-0.11.05-.14,0.12,0,0.21l0,0.12h0Z" transform="translate(-0.59 -0.79)"/>
   <path class="cls-11" d="M19.65,31a0.66,0.66,0,0,1,0-.31c0-.41,0-0.83,0-1.24l0.54-.26a15.21,15.21,0,0,0,1.67-1,10.46,10.46,0,0,0,.89-0.64,13.94,13.94,0,0,0,1.45-1.27c0.21-.21.43-0.41,0.64-0.62a0.16,0.16,0,0,1,.07.14,0.59,0.59,0,0,0,.26.52,0.14,0.14,0,0,1,.07.08,0.24,0.24,0,0,0,.27.18c0.06,0,.06,0,0.08.08l-0.05.05s0,0,0,0l0,0a11.64,11.64,0,0,1-1.19,1.19,18.85,18.85,0,0,1-4.59,3Z" transform="translate(-0.59 -0.79)"/>
   <path class="cls-12" d="M28.64,18.45a0.16,0.16,0,0,0,.11-0.05s0.08-.11.16-0.07a0.15,0.15,0,0,1,0,.18,0.25,0.25,0,0,0,.18.32c0.17,0.05.12,0.23,0.14,0.35a0.8,0.8,0,0,0,.33.63,0.78,0.78,0,0,1-.09.25s-0.07,0-.1,0a0.08,0.08,0,0,0,0,.11,13.62,13.62,0,0,1-.6,1.49,15.76,15.76,0,0,1-1.06,2,0.2,0.2,0,0,1-.08,0s0-.15-0.09-0.12-0.08.1-.08,0.17a0.16,0.16,0,0,1-.17.18,0.54,0.54,0,0,0-.31.15,0.77,0.77,0,0,1-.49.2c-0.2,0-.4,0-0.6,0l0-.1,0.18-.21h0.05a0.92,0.92,0,0,0,.91-0.58,1.53,1.53,0,0,0,0-1,2.86,2.86,0,0,0,.25-0.57,0.13,0.13,0,0,0,.1-0.15V21.54A2.74,2.74,0,0,0,27.79,21c0.15-.38.3-0.76,0.44-1.14,0.08-.23.15-0.47,0.23-0.7a0.29,0.29,0,0,0,.11-0.29v-0.1s0.09,0,0-.07Zm0.82,1.48,0,0v0.05Z" transform="translate(-0.59 -0.79)"/>
   <path class="cls-12" d="M26,24.24c0.2,0,.4,0,0.6,0a0.77,0.77,0,0,0,.49-0.2,0.54,0.54,0,0,1,.31-0.15,0.16,0.16,0,0,0,.17-0.18c0-.07,0-0.15.08-0.17s0.05,0.09.09,0.12a0.2,0.2,0,0,0,.08,0,1.38,1.38,0,0,1-.19.32h0l0,0A16.87,16.87,0,0,1,26,26.14l-0.46.51s0-.08-0.08-0.08a0.24,0.24,0,0,1-.27-0.18,0.14,0.14,0,0,0-.07-0.08,0.59,0.59,0,0,1-.26-0.52,0.16,0.16,0,0,0-.07-0.14Z" transform="translate(-0.59 -0.79)"/>
   <path class="cls-13" d="M30.55,16.21c-0.1-.09-0.07-0.16,0-0.21Z" transform="translate(-0.59 -0.79)"/>
   <path class="cls-13" d="M29.46,20.19a0.08,0.08,0,0,1,0-.11c0-.06.06,0,0.1,0Z" transform="translate(-0.59 -0.79)"/>
   <path class="cls-11" d="M27.58,24l0,0h0Z" transform="translate(-0.59 -0.79)"/>
   <path class="cls-13" d="M30.6,15.91a0.09,0.09,0,0,1,0-.09A0.09,0.09,0,0,1,30.6,15.91Z" transform="translate(-0.59 -0.79)"/>
   <polygon class="cls-13" points="29.93 15.55 29.93 15.54 29.94 15.54 29.93 15.55"/>
   <path class="cls-8" d="M8.46,8.38h0Z" transform="translate(-0.59 -0.79)"/>
   <path class="cls-14" d="M29.32,9.92a0.54,0.54,0,0,1,.1.41,5.14,5.14,0,0,1,0,.86,0.07,0.07,0,0,0-.07.07c0,0.11,0,.19-0.14.07s-0.13,0-.17.07-0.31.25-.39,0.44a0.13,0.13,0,0,1-.08,0,0.1,0.1,0,0,0-.08.05,1.29,1.29,0,0,0-.35.39h0a0.57,0.57,0,0,0-.25.23,4.21,4.21,0,0,1-.38.32c-0.24.16-.48,0.32-0.72,0.5s-0.41.13-.48-0.14A0.53,0.53,0,0,0,26.19,13a0.24,0.24,0,0,1-.07-0.14,2.34,2.34,0,0,0-.44-1,0.94,0.94,0,0,0-.44-0.39A0.31,0.31,0,0,1,25,11.33c-0.07-.12-0.11,0-0.16,0h-3v0l0,0h0l0,0a0.08,0.08,0,0,0-.07,0c-0.11.26-.34,0.42-0.47,0.68a3.56,3.56,0,0,0-.24.56c-0.14.5-.33,1-0.49,1.48-0.11.34-.27,0.66-0.39,1a0.13,0.13,0,0,1-.14.11,0.15,0.15,0,0,1-.17-0.12c-0.08-.37-0.3-0.69-0.36-1.06s-0.28-.74-0.37-1.13a3,3,0,0,0-.39-1l-0.18-.26a0.66,0.66,0,0,0-.43-0.33,2.9,2.9,0,0,0-.57-0.06H16.08a0.49,0.49,0,0,1-.41-0.09,0.2,0.2,0,0,0-.19,0,1,1,0,0,1-.53.06,0.15,0.15,0,0,0-.17.11h0l0,0a1.54,1.54,0,0,1-.06.36,0.35,0.35,0,0,0-.28.18,3.19,3.19,0,0,0-.22.61c-0.06.39-.14,0.77-0.18,1.16s-0.1.54-.14,0.81,0,0.51-.1.75a14.51,14.51,0,0,0-.25,1.44c-0.06.44-.14,0.88-0.22,1.31s-0.13.85-.2,1.27-0.17,1.1-.24,1.65-0.21,1.07-.24,1.61a0.16,0.16,0,0,1-.14.18A7.09,7.09,0,0,1,12,21.8c-0.17-.34-0.32-0.69-0.48-1s-0.27-.68-0.39-1-0.24-.68-0.33-1-0.26-.87-0.33-1.31c0-.28-0.14-0.55-0.18-0.82C10.16,16,10.06,15.5,10,15s-0.12-1.35-.15-2,0-1.29,0-1.93c0-.29,0-0.58,0-0.87a0.51,0.51,0,0,1,.07-0.22l1.67,0.17,1,0.08c0.83,0.06,1.66.11,2.49,0.14L18,10.39c1.09,0,2.19,0,3.28,0,0.84,0,1.68,0,2.52-.07,0.67,0,1.34-.06,2-0.11,0.42,0,.84,0,1.25-0.08l0.87-.09s0,0,.07,0c0.36,0,.72-0.1,1.09-0.11A1.66,1.66,0,0,0,29.32,9.92ZM17.7,11.22a0.06,0.06,0,0,0,0,0h0a0.06,0.06,0,0,0,0,0h0Z" transform="translate(-0.59 -0.79)"/>
   <path class="cls-10" d="M18.37,28.79a0.26,0.26,0,0,1-.12,0,5.37,5.37,0,0,0-.68-0.48,9.73,9.73,0,0,1-.87-0.7c-0.11-.09-0.25-0.14-0.36-0.22a0.92,0.92,0,0,1-.21-0.21,0.34,0.34,0,0,0,.17,0s0.09-.08.14,0-0.08.07,0,.14a0.07,0.07,0,0,0,.11-0.05,0.43,0.43,0,0,1,.29-0.37,0.12,0.12,0,0,0,.06-0.06,1.64,1.64,0,0,1,.44-0.47,1.18,1.18,0,0,1,.37-0.35,0.19,0.19,0,0,0,.05-0.11,0.13,0.13,0,0,1,.08-0.09c0.17-.07.28-0.24,0.44-0.3a5.56,5.56,0,0,1,.48-0.29A0.22,0.22,0,0,0,18.87,25,0.68,0.68,0,0,1,19,24.6a0.09,0.09,0,0,0-.07-0.18,0.2,0.2,0,0,1-.24-0.13,0.18,0.18,0,0,0-.13-0.08,1,1,0,0,1-.46-0.37,1.69,1.69,0,0,1-.3-0.68c-0.06-.29-0.09-0.58-0.15-0.87a2.34,2.34,0,0,0-.06-0.49,5.47,5.47,0,0,0-.23-0.9,0.08,0.08,0,0,1,0-.05,0.48,0.48,0,0,0-.19-0.46c-0.08,0-.18-0.05-0.21,0a4.29,4.29,0,0,0-.18.46c-0.06.36-.07,0.73-0.12,1.09,0,0.2,0,.4-0.05.6a1.59,1.59,0,0,0-.12.44,1.08,1.08,0,0,1-.94.94,12,12,0,0,1-1.68-.07,1,1,0,0,1-.9-0.74,0.28,0.28,0,0,0-.07-0.08h0.18s0,0,.07,0h0.07a0.34,0.34,0,0,0,.07.28,1,1,0,0,0,.72.32,1.93,1.93,0,0,1,.87.06,0.13,0.13,0,0,0,.1,0,0.91,0.91,0,0,1,.54-0.06,0.64,0.64,0,0,0,.58-0.34,1.55,1.55,0,0,0,.22-0.6c0-.13,0-0.26,0-0.39a3.42,3.42,0,0,0,.13-1.08,0.25,0.25,0,0,1,0-.14A8.69,8.69,0,0,0,16.78,20,1.32,1.32,0,0,1,17,19.42c0.08-.08.11-0.05,0.16,0s0.06,0.15.17,0.12c0,0.13.07,0.27,0.1,0.4,0.09,0.4.18,0.81,0.27,1.21S18,22,18,22.48a0.2,0.2,0,0,0,0,.16,0.07,0.07,0,0,1,0,0,0.08,0.08,0,0,0,0,.08,0.06,0.06,0,0,1,0,.07s-0.06,0-.05,0,0.05,0,.09,0V23s-0.07,0-.07.06,0,0,.07,0h0a0.87,0.87,0,0,0,.71.74A5.62,5.62,0,0,0,20.3,24,6.07,6.07,0,0,1,21,24a1,1,0,0,0,.88-0.18,0.75,0.75,0,0,0,.27-0.67,2,2,0,0,1,.25-1.35,2.45,2.45,0,0,0,.33-1,0.21,0.21,0,0,1,.2-0.22,0.2,0.2,0,0,1,.22.2c0,0.32.07,0.64,0.08,1,0,0.54,0,1.09,0,1.63a0.57,0.57,0,0,0,0,.15,0.58,0.58,0,0,1-.17.65,1.06,1.06,0,0,1-.29.29,0.1,0.1,0,0,0,0,.08c0,0.17-.11.18-0.24,0.19s0,0.25-.21.24h0a0.43,0.43,0,0,0-.39.25,0.17,0.17,0,0,1-.1.09,0.22,0.22,0,0,0-.16.15,0.21,0.21,0,0,1-.15.14,0.41,0.41,0,0,0-.19.13c-0.16.17-.34,0.32-0.5,0.49a0.74,0.74,0,0,0-.34.43c0,0.05-.07,0-0.12.06a0.43,0.43,0,0,0-.45.25,0.07,0.07,0,0,1,0,0,3.42,3.42,0,0,0-.48.41,4.71,4.71,0,0,0-.61.58,1.33,1.33,0,0,1-.5.41c-0.07,0-.09.08,0,0.13A0.18,0.18,0,0,1,18.37,28.79Z" transform="translate(-0.59 -0.79)"/>
   <path class="cls-10" d="M18.37,28.79a0.18,0.18,0,0,0-.1-0.18c-0.07-.05,0-0.11,0-0.13a1.33,1.33,0,0,0,.5-0.41,4.71,4.71,0,0,1,.61-0.58,3.42,3.42,0,0,1,.48-0.41,0.07,0.07,0,0,0,0,0,0.43,0.43,0,0,1,.45-0.25s0.11,0,.12-0.06a0.74,0.74,0,0,1,.34-0.43c0.16-.17.34-0.33,0.5-0.49a0.41,0.41,0,0,1,.19-0.13,0.21,0.21,0,0,0,.15-0.14,0.22,0.22,0,0,1,.16-0.15,0.17,0.17,0,0,0,.1-0.09,0.43,0.43,0,0,1,.39-0.25h0c0.18,0,.08-0.22.21-0.24s0.24,0,.24-0.19a0.1,0.1,0,0,1,0-.08,1.06,1.06,0,0,0,.29-0.29,0.58,0.58,0,0,0,.17-0.65,0.57,0.57,0,0,1,0-.15c0-.54,0-1.09,0-1.63,0-.32,0-0.65-0.08-1a0.2,0.2,0,0,0-.22-0.2,0.21,0.21,0,0,0-.2.22,2.45,2.45,0,0,1-.33,1,2,2,0,0,0-.25,1.35,0.75,0.75,0,0,1-.27.67A1,1,0,0,1,21,24,6.07,6.07,0,0,0,20.3,24a5.62,5.62,0,0,1-1.44-.15,0.87,0.87,0,0,1-.71-0.74h0.28a0.3,0.3,0,0,0,.1.22,1.23,1.23,0,0,0,.91.37c0.55,0,1.1,0,1.65,0a0.41,0.41,0,0,0,.23-0.06,0.8,0.8,0,0,0,.37-1,1.32,1.32,0,0,1,0-.86h0a0.1,0.1,0,0,0,0-.09V21.65c0.07,0,.11.1,0.2,0a2.07,2.07,0,0,0,.47-0.83,10.74,10.74,0,0,1,.35-1.18c0-.11.2-0.19,0.26-0.1s0.13,0,.18.05h0l0,0.09a1.67,1.67,0,0,1,0,.5,0.18,0.18,0,0,0,0,.22,0.29,0.29,0,0,1,0,.25,0.12,0.12,0,0,0,0,.11v0.07a0.27,0.27,0,0,0,0,.28v0.07a6.29,6.29,0,0,1,0,1.06,0.36,0.36,0,0,1,.09-0.08c0.06,0,0,.07,0,0.1a2,2,0,0,0,.31,1.63,0.6,0.6,0,0,0,.3.29,0.4,0.4,0,0,1,.35.39,0.21,0.21,0,0,1-.07.25c-0.18.15-.33,0.34-0.5,0.49a2.87,2.87,0,0,1-.51.46,0.57,0.57,0,0,0-.28.07,1.93,1.93,0,0,1-.45.49,2.08,2.08,0,0,1-.48.46,4.2,4.2,0,0,0-.54.5,1.55,1.55,0,0,1-.51.45,1.14,1.14,0,0,0-.43.29,3.13,3.13,0,0,1-.64.55,1.29,1.29,0,0,0-.12.13,1,1,0,0,1-.58.43,0.07,0.07,0,0,0-.07.06,0.07,0.07,0,0,0,.07.07,0.12,0.12,0,0,1,.13.11,0.25,0.25,0,0,1-.16,0,6.1,6.1,0,0,1-.88-0.51A0.2,0.2,0,0,0,18.37,28.79Zm5-7.09,0,0v0.05Z" transform="translate(-0.59 -0.79)"/>
   <path class="cls-10" d="M12.93,23.07a0.28,0.28,0,0,1,.07.08,1,1,0,0,0,.9.74,12,12,0,0,0,1.68.07A1.08,1.08,0,0,0,16.52,23a1.59,1.59,0,0,1,.12-0.44c0-.2,0-0.4.05-0.6,0.05-.36.06-0.73,0.12-1.09A4.29,4.29,0,0,1,17,20.44c0-.1.13-0.09,0.21,0a0.48,0.48,0,0,1,.19.46,0.08,0.08,0,0,0,0,.05,5.47,5.47,0,0,1,.23.9,2.34,2.34,0,0,1,.06.49c0.06,0.29.09,0.58,0.15,0.87a1.69,1.69,0,0,0,.3.68,1,1,0,0,0,.46.37,0.18,0.18,0,0,1,.13.08,0.2,0.2,0,0,0,.24.13,0.09,0.09,0,0,1,.07.18,0.68,0.68,0,0,0-.14.37,0.22,0.22,0,0,1-.14.19,5.56,5.56,0,0,0-.48.29c-0.16.06-.27,0.23-0.44,0.3a0.13,0.13,0,0,0-.08.09,0.19,0.19,0,0,1-.05.11,1.18,1.18,0,0,0-.37.35,1.64,1.64,0,0,0-.44.47,0.12,0.12,0,0,1-.06.06,0.43,0.43,0,0,0-.29.37,0.07,0.07,0,0,1-.11.05c0-.07.11-0.07,0-0.14s-0.1,0-.14,0a0.34,0.34,0,0,1-.17,0,10.32,10.32,0,0,1-.94-0.82,0.14,0.14,0,0,1-.05-0.11,0.38,0.38,0,0,0,.25-0.18,0.29,0.29,0,0,1,.34-0.15c0.11,0,.23,0,0.23-0.15a0.09,0.09,0,0,1,.11-0.09,0.16,0.16,0,0,0,.17-0.2,0.16,0.16,0,0,1,.05-0.13c0.14-.14.28-0.28,0.43-0.42a1.19,1.19,0,0,1,.37-0.34,4.33,4.33,0,0,1,.5-0.37,0.1,0.1,0,0,0,0-.08,2.94,2.94,0,0,0,0-.51,10,10,0,0,1-.12-1.14c0-.35-0.09-0.7-0.14-1a0.9,0.9,0,0,0-.2-0.37,1.49,1.49,0,0,0-.19.42c0,0.4-.15.78-0.16,1.18a3.16,3.16,0,0,1-.06.68,0.94,0.94,0,0,1-.52.69,1.59,1.59,0,0,1-.87.14c-0.42,0-.85,0-1.27-0.09a1.1,1.1,0,0,1-.78-0.28c0-.05-0.07,0-0.08,0a0.09,0.09,0,0,1-.09,0,4.32,4.32,0,0,0-.3-0.49c0.09,0,.07-0.07.07-0.13s-0.05-.08,0-0.12h0Z" transform="translate(-0.59 -0.79)"/>
   <path class="cls-10" d="M19.51,29.36a0.12,0.12,0,0,0-.13-0.11,0.07,0.07,0,0,1-.07-0.07,0.07,0.07,0,0,1,.07-0.06A1,1,0,0,0,20,28.69a1.29,1.29,0,0,1,.12-0.13A3.13,3.13,0,0,0,20.72,28a1.14,1.14,0,0,1,.43-0.29,1.55,1.55,0,0,0,.51-0.45,4.2,4.2,0,0,1,.54-0.5,2.08,2.08,0,0,0,.48-0.46,1.93,1.93,0,0,0,.45-0.49,0.57,0.57,0,0,1,.28-0.07,2.87,2.87,0,0,0,.51-0.46c0.17-.15.32-0.34,0.5-0.49a0.21,0.21,0,0,0,.07-0.25,0.4,0.4,0,0,0-.35-0.39,0.6,0.6,0,0,1-.3-0.29,2,2,0,0,1-.31-1.63s0.05-.08,0-0.1a0.36,0.36,0,0,0-.09.08,6.29,6.29,0,0,0,0-1.06,0.15,0.15,0,0,1,.05.14c0.08,0.53.16,1.06,0.23,1.59,0,0.07,0,.16.11,0.16a3.45,3.45,0,0,1,.16.31,1.15,1.15,0,0,0,.64.42c0.4,0.06.8,0.11,1.2,0.15,0.09,0,.24,0,0.14.15l0.06,0,0,0.1-1.14,1.42c-0.21.21-.43,0.41-0.64,0.62a13.94,13.94,0,0,1-1.45,1.27,10.46,10.46,0,0,1-.89.64,15.21,15.21,0,0,1-1.67,1l-0.54.26Z" transform="translate(-0.59 -0.79)"/>
   <path class="cls-10" d="M13.21,23.85c0-.05,0-0.09.08,0a1.1,1.1,0,0,0,.78.28c0.42,0.05.85,0,1.27,0.09A1.59,1.59,0,0,0,16.21,24a0.94,0.94,0,0,0,.52-0.69,3.16,3.16,0,0,0,.06-0.68c0-.4.12-0.79,0.16-1.18a1.49,1.49,0,0,1,.19-0.42,0.9,0.9,0,0,1,.2.37c0,0.35.12,0.69,0.14,1a10,10,0,0,0,.12,1.14,2.94,2.94,0,0,1,0,.51,0.1,0.1,0,0,1,0,.08,4.33,4.33,0,0,0-.5.37,1.19,1.19,0,0,0-.37.34c-0.15.13-.29,0.27-0.43,0.42a0.16,0.16,0,0,0-.05.13,0.16,0.16,0,0,1-.17.2,0.09,0.09,0,0,0-.11.09c0,0.18-.12.18-0.23,0.15a0.29,0.29,0,0,0-.34.15,0.38,0.38,0,0,1-.25.18,7.51,7.51,0,0,1-.76-0.79,8.13,8.13,0,0,1-.63-0.76l-0.52-.75A0.22,0.22,0,0,1,13.21,23.85Z" transform="translate(-0.59 -0.79)"/>
   <path class="cls-11" d="M12.89,23.07c-0.06,0,0,.08,0,0.12s0,0.12-.07.13a5.56,5.56,0,0,1-.36-0.6,0.16,0.16,0,0,0,.14-0.18c0-.55.17-1.08,0.24-1.61s0.15-1.11.24-1.65,0.11-.85.2-1.27,0.17-.87.22-1.31a14.51,14.51,0,0,1,.25-1.44c0.06-.24.06-0.5,0.1-0.75S14,14,14,13.68s0.12-.78.18-1.16a3.19,3.19,0,0,1,.22-0.61,0.35,0.35,0,0,1,.28-0.18c-0.05.37-.1,0.74-0.16,1.1l-0.73,4.55q-0.35,2.2-.7,4.39C13,22.2,12.93,22.63,12.89,23.07Z" transform="translate(-0.59 -0.79)"/>
   <path class="cls-11" d="M28,10.06s0,0-.07,0H28Z" transform="translate(-0.59 -0.79)"/>
   <path class="cls-7" d="M23.81,23.07c-0.12,0-.1-0.09-0.11-0.16-0.08-.53-0.15-1.06-0.23-1.59a0.15,0.15,0,0,0-.05-0.14V21.11a0.55,0.55,0,0,0,0-.28V20.76a0.09,0.09,0,0,0,0-.11,0.29,0.29,0,0,0,0-.25,0.21,0.21,0,0,0,0-.22,1.67,1.67,0,0,0,0-.5,0.09,0.09,0,0,0,0-.09h0a0.72,0.72,0,0,0,0-.29,0.27,0.27,0,0,0,0-.18h0c-0.09-.82-0.23-1.64-0.36-2.46-0.17.76-.33,1.53-0.49,2.29S22,20.34,21.87,21h0a0.13,0.13,0,0,0,0,.12v0a0.15,0.15,0,0,0,0,.13,0.82,0.82,0,0,0-.07.32V21.7a0.11,0.11,0,0,0,0,.09h0a0.2,0.2,0,0,1-.07-0.15l-1-3.16,0,0V18.38a0.42,0.42,0,0,0-.06-0.18,0.7,0.7,0,0,0-.08-0.25c-0.11-.33-0.19-0.67-0.32-1a0.7,0.7,0,0,1,0-.5c0-.11.08-0.23,0.12-0.35l0-.06,1.57-4.68h3a1.76,1.76,0,0,0,.07.43c0,0.28.07,0.56,0.11,0.84,0.1,0.69.21,1.38,0.31,2.07s0.22,1.61.34,2.42q0.42,2.88.84,5.76c0,0.14,0,.19-0.16.19H23.81Z" transform="translate(-0.59 -0.79)"/>
   <path class="cls-10" d="M24.87,11.35s0.09-.13.16,0a0.31,0.31,0,0,0,.21.06,0.94,0.94,0,0,1,.44.39,2.34,2.34,0,0,1,.44,1,0.24,0.24,0,0,0,.07.14,0.53,0.53,0,0,1,.14.28c0.07,0.27.26,0.31,0.48,0.14s0.47-.34.72-0.5a4.21,4.21,0,0,0,.38-0.32,0.57,0.57,0,0,1,.25-0.23h0a1.29,1.29,0,0,1,.35-0.39,0.1,0.1,0,0,1,.08-0.05,0.13,0.13,0,0,0,.08,0c0.08-.2.31-0.25,0.39-0.44s0.09-.14.17-0.07,0.14,0,.14-0.07a0.07,0.07,0,0,1,.07-0.07,1.2,1.2,0,0,1,0,.42c0,0.42,0,.83,0,1.25a0.59,0.59,0,0,0-.13.36c0,0.11-.07.19-0.21,0.18a0.14,0.14,0,0,0-.16.15,0.12,0.12,0,0,1-.13.13,0.11,0.11,0,0,0-.08,0c-0.07.12-.24,0.17-0.28,0.25a2.59,2.59,0,0,1-.36.36,0.24,0.24,0,0,1-.11.05,0.2,0.2,0,0,0-.09,0,0.74,0.74,0,0,1-.29.3,0.38,0.38,0,0,1-.27.19,0.08,0.08,0,0,0-.06.08,0.16,0.16,0,0,1-.18.16,0.09,0.09,0,0,0-.1.06c0,0.17-.17.12-0.27,0.11s-0.09-.12-0.09-0.2A0.16,0.16,0,0,0,26.61,15a0.72,0.72,0,0,1-.25-0.41A14.69,14.69,0,0,1,25.91,13a5.66,5.66,0,0,0-.27-0.92A1.22,1.22,0,0,0,25,11.5a0.76,0.76,0,0,0-.14-0.13h0v0Z" transform="translate(-0.59 -0.79)"/>
   <path class="cls-10" d="M25,11.8a0.44,0.44,0,0,1,.36.25,2.71,2.71,0,0,1,.35,1C25.8,13.5,25.85,14,26,14.4s0.17,0.8.25,1.2a5.61,5.61,0,0,0,.23.85c0.13,0.35.22,0.72,0.35,1.07a0.37,0.37,0,0,0,.38.29,1,1,0,0,0,.72-0.46,0.13,0.13,0,0,1,.1-0.09,0.32,0.32,0,0,0,.18-0.16,3.09,3.09,0,0,1,.44-0.42l0.13-.09a0.17,0.17,0,0,1,.2-0.06,0.15,0.15,0,0,1,.07.2,4.32,4.32,0,0,0-.12.69c0,0.27-.16.51-0.17,0.78a0.66,0.66,0,0,1-.1.22c-0.05,0-.13,0-0.15,0a0.25,0.25,0,0,1-.2.17,0.14,0.14,0,0,0-.08.11,0.22,0.22,0,0,1-.11.13,2,2,0,0,0-.44.38,0.26,0.26,0,0,1-.4.06A0.62,0.62,0,0,1,27,19c-0.1-.27-0.24-0.53-0.32-0.8-0.12-.43-0.22-0.86-0.33-1.29A11.29,11.29,0,0,1,26,15.39c0-.35-0.2-0.67-0.23-1a2,2,0,0,0,0-.4c-0.13-.42-0.17-0.85-0.27-1.27A1,1,0,0,0,25,11.94V11.8Z" transform="translate(-0.59 -0.79)"/>
   <path class="cls-10" d="M25,11.94a1,1,0,0,1,.49.75c0.09,0.42.14,0.85,0.27,1.27a2,2,0,0,1,0,.4c0,0.35.19,0.67,0.23,1a11.29,11.29,0,0,0,.32,1.52c0.11,0.43.21,0.87,0.33,1.29,0.07,0.27.22,0.53,0.32,0.8a0.62,0.62,0,0,0,.27.29,0.26,0.26,0,0,0,.4-0.06,2,2,0,0,1,.44-0.38,0.22,0.22,0,0,0,.11-0.13,0.14,0.14,0,0,1,.08-0.11,0.25,0.25,0,0,0,.2-0.17c0-.05.09,0,0.15,0s0,0,0,0l0,0.21a0.07,0.07,0,0,0,0,.07v0.1a0.27,0.27,0,0,0-.11.29c-0.08.23-.15,0.47-0.23,0.7-0.14.38-.29,0.76-0.44,1.14a2.74,2.74,0,0,1-.29.57,0.8,0.8,0,0,1-.2-0.24,14.09,14.09,0,0,1-.68-2A2.07,2.07,0,0,0,26.55,19c-0.18-.48-0.2-1-0.36-1.49A10.17,10.17,0,0,1,26,16.33L25.74,15c-0.09-.46-0.18-0.92-0.26-1.39a7.47,7.47,0,0,0-.27-1.18A1.31,1.31,0,0,1,25,11.94Z" transform="translate(-0.59 -0.79)"/>
   <path class="cls-10" d="M25,11.94a1.31,1.31,0,0,0,.22.5,7.47,7.47,0,0,1,.27,1.18c0.08,0.46.17,0.93,0.26,1.39L26,16.33a10.17,10.17,0,0,0,.22,1.16c0.15,0.49.18,1,.36,1.49a2.07,2.07,0,0,1,.07.31,14.09,14.09,0,0,0,.68,2,0.8,0.8,0,0,0,.2.24v0.07a0.14,0.14,0,0,0-.1.15,2.86,2.86,0,0,1-.25.57,0.22,0.22,0,0,1-.11.11,0.12,0.12,0,0,0,0,0c-0.16-.41-0.2-0.85-0.33-1.28s-0.14-.74-0.25-1.1-0.14-.87-0.29-1.3A5.18,5.18,0,0,1,26,17.63a1.44,1.44,0,0,1-.1-0.29,0.63,0.63,0,0,0-.11-0.52,0.43,0.43,0,0,1,0-.16,1.72,1.72,0,0,0-.09-0.6,1.59,1.59,0,0,1-.1-0.81,0.16,0.16,0,0,0,0-.14,0.26,0.26,0,0,1-.11-0.22,0.21,0.21,0,0,0-.07-0.17c-0.1-.69-0.21-1.38-0.31-2.07,0-.28-0.07-0.56-0.11-0.84h0v0.14Z" transform="translate(-0.59 -0.79)"/>
   <path class="cls-14" d="M25.52,26.71l0,0s0,0,0,0h0Z" transform="translate(-0.59 -0.79)"/>
   <path class="cls-10" d="M25.36,14.71a0.21,0.21,0,0,1,.07.17,0.26,0.26,0,0,0,.11.22,0.16,0.16,0,0,1,0,.14,1.59,1.59,0,0,0,.1.81,1.72,1.72,0,0,1,.09.6,0.43,0.43,0,0,0,0,.16,0.63,0.63,0,0,1,.11.52,1.44,1.44,0,0,0,.1.29,5.18,5.18,0,0,0,.19,1.09c0.15,0.43.16,0.87,0.29,1.3s0.14,0.75.25,1.1S26.88,22,27,22.4a0.12,0.12,0,0,1,0,0,4,4,0,0,1-.37.78c-0.14.25-.35,0.45-0.48,0.71L26,24.14,26,24.1c0.1-.19,0-0.14-0.14-0.15-0.4,0-.8-0.09-1.2-0.15A1.15,1.15,0,0,1,24,23.38a3.45,3.45,0,0,0-.16-0.31h2.58c0.16,0,.18,0,0.16-0.19Q26.12,20,25.7,17.13C25.58,16.32,25.47,15.52,25.36,14.71Z" transform="translate(-0.59 -0.79)"/>
   <path class="cls-12" d="M26.19,23.92c0.13-.25.34-0.46,0.48-0.71A4,4,0,0,0,27,22.43a0.22,0.22,0,0,0,.11-0.11,1.53,1.53,0,0,1,0,1,0.92,0.92,0,0,1-.91.58H26.19Z" transform="translate(-0.59 -0.79)"/>
   <path class="cls-13" d="M28.46,19.12a0.27,0.27,0,0,1,.11-0.29A0.29,0.29,0,0,1,28.46,19.12Z" transform="translate(-0.59 -0.79)"/>
   <path class="cls-15" d="M27.4,21.76a0.14,0.14,0,0,1,.1-0.15A0.13,0.13,0,0,1,27.4,21.76Z" transform="translate(-0.59 -0.79)"/>
   <path class="cls-13" d="M28.57,18.73a0.07,0.07,0,0,1,0-.07C28.66,18.72,28.62,18.72,28.57,18.73Z" transform="translate(-0.59 -0.79)"/>
   <path class="cls-13" d="M29.46,19.92l0,0V19.9Z" transform="translate(-0.59 -0.79)"/>
   <path class="cls-7" d="M12.89,23.07c0-.44.13-0.86,0.19-1.29q0.34-2.2.7-4.39l0.73-4.55c0.06-.37.11-0.74,0.16-1.1a1.54,1.54,0,0,0,.06-0.36l0,0H15c0.82,0,1.63,0,2.45,0a0.37,0.37,0,0,1,.47.31,2.29,2.29,0,0,0,.14.46l0.14,0.45L19.56,17l0,0.17,1.74,5.49a1.57,1.57,0,0,1,.11.42H18.13a0.08,0.08,0,0,0,0-.1V22.89l0-.07a0.06,0.06,0,0,0,0-.07,0.06,0.06,0,0,0,0-.08,0.07,0.07,0,0,0,0,0,0.17,0.17,0,0,0,0-.16C18,22,17.83,21.6,17.74,21.16s-0.18-.81-0.27-1.21c0-.13-0.07-0.27-0.1-0.4a9,9,0,0,0-.22-1l-0.41-2a1.48,1.48,0,0,0,0,.15l-0.58,3.8-0.36,2.33a0.18,0.18,0,0,1-.21.2c-0.67,0-1.35,0-2,0H12.89Z" transform="translate(-0.59 -0.79)"/>
   <path class="cls-11" d="M17.87,11.66a0.37,0.37,0,0,0-.47-0.31c-0.82,0-1.63,0-2.45,0H14.78A0.15,0.15,0,0,1,15,11.23a1,1,0,0,0,.53-0.06,0.2,0.2,0,0,1,.19,0,0.49,0.49,0,0,0,.41.09h1.51a2.9,2.9,0,0,1,.57.06,0.66,0.66,0,0,1,.43.33l0.18,0.26a3,3,0,0,1,.39,1c0.1,0.39.31,0.74,0.37,1.13s0.28,0.69.36,1.06a0.15,0.15,0,0,0,.17.12,0.13,0.13,0,0,0,.14-0.11c0.12-.33.29-0.66,0.39-1,0.16-.5.35-1,0.49-1.48a3.56,3.56,0,0,1,.24-0.56c0.12-.26.36-0.42,0.47-0.68a0.08,0.08,0,0,1,.07,0h0v0L20.31,16l0,0.06a0.46,0.46,0,0,0-.15,0,0.26,0.26,0,0,1-.3-0.19,8.54,8.54,0,0,1-.38-1c-0.06-.19-0.15-0.37-0.2-0.56A4.83,4.83,0,0,0,19,13.59c-0.1-.23-0.15-0.48-0.23-0.71a2.91,2.91,0,0,0-.46-1A0.56,0.56,0,0,0,17.87,11.66Z" transform="translate(-0.59 -0.79)"/>
   <path class="cls-11" d="M17.7,11.22h0a0.06,0.06,0,0,1,0,0h0A0.06,0.06,0,0,1,17.7,11.22Z" transform="translate(-0.59 -0.79)"/>
   <path class="cls-11" d="M21.88,11.34l0,0h0l0,0h0Z" transform="translate(-0.59 -0.79)"/>
   <path class="cls-6" d="M24.87,11.35v0h0Z" transform="translate(-0.59 -0.79)"/>
   <path class="cls-11" d="M14.78,11.34l0,0Z" transform="translate(-0.59 -0.79)"/>
   <path class="cls-10" d="M17.16,18.55a9,9,0,0,1,.22,1c-0.1,0-.12-0.07-0.17-0.12s-0.08-.08-0.16,0a1.32,1.32,0,0,0-.27.55,8.69,8.69,0,0,1-.25,1.16,0.25,0.25,0,0,0,0,.14,3.42,3.42,0,0,1-.13,1.08c0,0.13,0,.26,0,0.39a1.55,1.55,0,0,1-.22.6,0.64,0.64,0,0,1-.58.34,0.91,0.91,0,0,0-.54.06,0.13,0.13,0,0,1-.1,0A1.93,1.93,0,0,0,14,23.68a1,1,0,0,1-.72-0.32,0.34,0.34,0,0,1-.07-0.28h0.29a0.33,0.33,0,0,0,.3.3,10.15,10.15,0,0,0,1,.12c0.21,0,.41-0.08.62-0.1a0.34,0.34,0,0,0,.38-0.29h0c0.11,0,0-.1.06-0.13a0.75,0.75,0,0,0,.19-0.58,5.24,5.24,0,0,0,.11-1,0.09,0.09,0,0,1,0,0,5.13,5.13,0,0,0,.19-1.25,3.45,3.45,0,0,1,.39-1.28A0.43,0.43,0,0,1,17.16,18.55Z" transform="translate(-0.59 -0.79)"/>
   <path class="cls-15" d="M18.12,23a0.08,0.08,0,0,1,0,.1s-0.07,0-.07,0S18.09,23,18.12,23Z" transform="translate(-0.59 -0.79)"/>
   <path class="cls-15" d="M18.08,22.82l0,0.07s-0.08,0-.09,0S18.06,22.82,18.08,22.82Z" transform="translate(-0.59 -0.79)"/>
   <path class="cls-15" d="M18,22.48a0.17,0.17,0,0,1,0,.16A0.2,0.2,0,0,1,18,22.48Z" transform="translate(-0.59 -0.79)"/>
   <path class="cls-15" d="M18,22.67a0.06,0.06,0,0,1,0,.08A0.08,0.08,0,0,1,18,22.67Z" transform="translate(-0.59 -0.79)"/>
   <path class="cls-15" d="M13.11,23.07h0.07S13.13,23.11,13.11,23.07Z" transform="translate(-0.59 -0.79)"/>
   <path class="cls-9" d="M18.44,23.07h0.07l0.23,0.25a0.17,0.17,0,0,0,.1.07,3.67,3.67,0,0,0,.68.13l1.37,0.05a0.78,0.78,0,0,0,.52-0.19,0.2,0.2,0,0,0,.06-0.31,1.57,1.57,0,0,0-.11-0.42L19.6,17.15l0-.17a0.35,0.35,0,0,1,.18.34c0.07,0,.06-0.11.13-0.07a0.07,0.07,0,0,1,0,.09c-0.11.13,0,.18,0.08,0.25a0.42,0.42,0,0,1,.14.29,0.41,0.41,0,0,0,.12.33,0.31,0.31,0,0,1,.19.29,0.53,0.53,0,0,0,.07.22,0.59,0.59,0,0,0,.14-0.24l1,3.16a0.2,0.2,0,0,0,.07.15,1.32,1.32,0,0,0,0,.86,0.8,0.8,0,0,1-.37,1,0.41,0.41,0,0,1-.23.06c-0.55,0-1.1,0-1.65,0a1.23,1.23,0,0,1-.91-0.37A0.3,0.3,0,0,1,18.44,23.07Z" transform="translate(-0.59 -0.79)"/>
   <path class="cls-9" d="M21.75,21.65a0.82,0.82,0,0,1,.07-0.32,0.13,0.13,0,0,0,0-.13v0c0.1,0,0-.08,0-0.12h0a0.22,0.22,0,0,0,.26-0.19c0-.17.13-0.31,0.18-0.47l0.39-1.27a0.38,0.38,0,0,1,.11-0.18A0.21,0.21,0,0,1,23,18.86a0.15,0.15,0,0,1,.09.17,0.08,0.08,0,0,0,0,.09h0a0.23,0.23,0,0,0,0,.18,0.72,0.72,0,0,1,0,.29c-0.06,0-.12,0-0.18-0.05s-0.21,0-.26.1a10.74,10.74,0,0,0-.35,1.18,2.07,2.07,0,0,1-.47.83C21.86,21.75,21.81,21.6,21.75,21.65Z" transform="translate(-0.59 -0.79)"/>
   <path class="cls-9" d="M23.38,20.83a0.55,0.55,0,0,1,0,.28A0.27,0.27,0,0,1,23.38,20.83Z" transform="translate(-0.59 -0.79)"/>
   <path class="cls-9" d="M23.27,20.19a0.21,0.21,0,0,1,0,.22A0.18,0.18,0,0,1,23.27,20.19Z" transform="translate(-0.59 -0.79)"/>
   <path class="cls-9" d="M23.34,20.65a0.09,0.09,0,0,1,0,.11A0.12,0.12,0,0,1,23.34,20.65Z" transform="translate(-0.59 -0.79)"/>
   <path class="cls-9" d="M23.38,21.7l0,0V21.67Z" transform="translate(-0.59 -0.79)"/>
   <path class="cls-9" d="M21.71,21.79a0.11,0.11,0,0,1,0-.09A0.1,0.1,0,0,1,21.71,21.79Z" transform="translate(-0.59 -0.79)"/>
   <path class="cls-9" d="M23.2,19.6a0.09,0.09,0,0,1,0,.09Z" transform="translate(-0.59 -0.79)"/>
   <path class="cls-16" d="M17.87,11.66a0.56,0.56,0,0,1,.48.26,2.91,2.91,0,0,1,.46,1c0.08,0.24.14,0.48,0.23,0.71a4.83,4.83,0,0,1,.22.72c0,0.19.14,0.37,0.2,0.56a8.54,8.54,0,0,0,.38,1,0.26,0.26,0,0,0,.3.19,0.46,0.46,0,0,1,.15,0c0,0.12-.07.24-0.12,0.35a0.7,0.7,0,0,0,0,.5,0.1,0.1,0,0,0,0,.1c0,0.07-.08,0-0.08,0a0.74,0.74,0,0,0-.24-0.31c-0.05-.14-0.12-0.27-0.19-0.41a6.9,6.9,0,0,1-.26-0.71c-0.11-.36-0.24-0.71-0.34-1.08l-0.2-.67a6.46,6.46,0,0,0-.23-0.71c-0.13-.31-0.23-0.64-0.37-0.94A0.17,0.17,0,0,0,18,12.12,2.29,2.29,0,0,1,17.87,11.66Z" transform="translate(-0.59 -0.79)"/>
   <path class="cls-17" d="M23.14,19.12a0.08,0.08,0,0,1,0-.09A0.15,0.15,0,0,0,23,18.86a0.21,0.21,0,0,0-.19.07,0.38,0.38,0,0,0-.11.18l-0.39,1.27c0,0.16-.14.3-0.18,0.47a0.22,0.22,0,0,1-.26.19c0.14-.69.27-1.39,0.41-2.08s0.31-1.52.49-2.29C22.91,17.48,23,18.3,23.14,19.12Z" transform="translate(-0.59 -0.79)"/>
   <path class="cls-15" d="M18,12.12a0.17,0.17,0,0,1,.18.14c0.15,0.31.24,0.63,0.37,0.94a6.46,6.46,0,0,1,.23.71L19,14.58c0.11,0.36.23,0.72,0.34,1.08a6.9,6.9,0,0,0,.26.71c0.06,0.14.13,0.27,0.19,0.41a0.74,0.74,0,0,1,.24.31s0.08,0,.08,0a0.1,0.1,0,0,1,0-.1c0.13,0.32.21,0.66,0.32,1-0.09.12-.07,0.2,0.08,0.25a0.42,0.42,0,0,1,.06.18,0.11,0.11,0,0,0,0,0s0,0,.06,0l0,0a0.59,0.59,0,0,1-.14.24,0.53,0.53,0,0,1-.07-0.22,0.31,0.31,0,0,0-.19-0.29,0.41,0.41,0,0,1-.12-0.33A0.42,0.42,0,0,0,20,17.6c-0.09-.07-0.19-0.12-0.08-0.25a0.07,0.07,0,0,0,0-.09c-0.07,0-.06.07-0.13,0.07A0.35,0.35,0,0,0,19.56,17l-1.4-4.41Zm2.28,6h0a0,0,0,0,0,0,0h0A0.06,0.06,0,0,0,20.3,18.1Z" transform="translate(-0.59 -0.79)"/>
   <path class="cls-9" d="M20.54,18.2c-0.15,0-.17-0.13-0.08-0.25A0.7,0.7,0,0,1,20.54,18.2Z" transform="translate(-0.59 -0.79)"/>
   <path class="cls-17" d="M23.16,19.3a0.23,0.23,0,0,1,0-.18A0.27,0.27,0,0,1,23.16,19.3Z" transform="translate(-0.59 -0.79)"/>
   <path class="cls-9" d="M20.61,18.45s-0.06,0-.06,0a0.11,0.11,0,0,1,0,0v0.07Z" transform="translate(-0.59 -0.79)"/>
   <path class="cls-17" d="M21.88,21s0.07,0.1,0,.12A0.13,0.13,0,0,1,21.88,21Z" transform="translate(-0.59 -0.79)"/>
   <path class="cls-17" d="M21.85,21.2a0.13,0.13,0,0,1,0,.13A0.15,0.15,0,0,1,21.85,21.2Z" transform="translate(-0.59 -0.79)"/>
   <path class="cls-10" d="M17.16,18.55a0.43,0.43,0,0,0-.33.25,3.45,3.45,0,0,0-.39,1.28,5.13,5.13,0,0,1-.19,1.25,0.09,0.09,0,0,0,0,0,5.24,5.24,0,0,1-.11,1,0.75,0.75,0,0,1-.19.58s0,0.13-.06.13a0.05,0.05,0,0,0-.07,0h0.07a0.34,0.34,0,0,1-.38.29c-0.21,0-.41.08-0.62,0.1a10.15,10.15,0,0,1-1-.12,0.33,0.33,0,0,1-.3-0.3c0.67,0,1.35,0,2,0a0.18,0.18,0,0,0,.21-0.2l0.36-2.33,0.58-3.8a1.48,1.48,0,0,1,0-.15Z" transform="translate(-0.59 -0.79)"/>
   <path class="cls-17" d="M21.46,23.06a0.2,0.2,0,0,1-.06.31,0.78,0.78,0,0,1-.52.19l-1.37-.05a3.67,3.67,0,0,1-.68-0.13,0.17,0.17,0,0,1-.1-0.07l-0.23-.25h2.95Z" transform="translate(-0.59 -0.79)"/>
   <path class="cls-9" d="M20.3,18.1a0.06,0.06,0,0,1,0,0h0a0,0,0,0,1,0,0h0Z" transform="translate(-0.59 -0.79)"/>
   <path class="cls-15" d="M15.88,23.1H15.81a0.05,0.05,0,0,1,.07,0h0Z" transform="translate(-0.59 -0.79)"/>
   <path class="cls-5" d="M5.72,17.7s0.42,1.68.63,2.29c0.27,0.8,1.33,3.32,1.33,3.32l1.15-.58s-0.91-2.29-1.18-3c-0.21-.59-0.74-2.36-0.74-2.36Z" transform="translate(-0.59 -0.79)"/>
   <polygon class="cls-5" points="15.72 3.22 16.66 4.49 20.76 4.46 20.57 3.14 15.72 3.22"/>
   <path class="cls-3" d="M30.73,24.9c1-1.33,2.65-6.24,2.65-6.24l-0.6-3.38A23.23,23.23,0,0,1,31.54,20a40,40,0,0,1-2.16,4.61c-0.74,1.4-5.61,6.23-5.61,6.23l0.08,1.54s1.78-1.68,3.59-3.63A48,48,0,0,0,30.73,24.9Z" transform="translate(-0.59 -0.79)"/>
   <path class="cls-18" d="M28.64,18.45s0.46-1.93.56-2.58,0.29-3,.29-3l1.21,1.74s-0.23,1.72-.34,2.25C30.2,17.66,29.6,20,29.6,20Z" transform="translate(-0.59 -0.79)"/>
   <rect class="cls-19" x="0.4" y="0.4" width="92.37" height="35.88" rx="2" ry="2"/>
   <path class="cls-20" d="M17.32,41.07H15V40.25h5.55v0.82H18.3v6.67h-1V41.07Z" transform="translate(-0.59 -0.79)"/>
   <path class="cls-20" d="M25.3,44.23H22.39v2.7h3.25v0.81H21.42V40.25h4v0.81H22.39v2.37H25.3v0.8Z" transform="translate(-0.59 -0.79)"/>
   <path class="cls-20" d="M26.76,46.56a3.42,3.42,0,0,0,1.73.49,1.34,1.34,0,0,0,1.57-1.28c0-.7-0.4-1.1-1.41-1.49-1.22-.43-2-1.07-2-2.12a2.16,2.16,0,0,1,2.42-2,3.4,3.4,0,0,1,1.66.37l-0.27.79a3,3,0,0,0-1.42-.36A1.21,1.21,0,0,0,27.65,42c0,0.7.46,1,1.49,1.45C30.4,44,31,44.59,31,45.69s-0.86,2.16-2.62,2.16a3.88,3.88,0,0,1-1.91-.48Z" transform="translate(-0.59 -0.79)"/>
   <path class="cls-20" d="M33.79,41.07H31.51V40.25h5.55v0.82H34.77v6.67h-1V41.07Z" transform="translate(-0.59 -0.79)"/>
   <path class="cls-20" d="M41.77,44.23H38.86v2.7h3.25v0.81H37.9V40.25h4v0.81H38.86v2.37h2.91v0.8Z" transform="translate(-0.59 -0.79)"/>
   <path class="cls-20" d="M43.36,40.35a13.82,13.82,0,0,1,2.06-.16,4.29,4.29,0,0,1,3,.93,3.45,3.45,0,0,1,1.06,2.69,4,4,0,0,1-1.08,2.91,4.61,4.61,0,0,1-3.31,1.08,15.41,15.41,0,0,1-1.76-.09V40.35Zm1,6.62a6.17,6.17,0,0,0,1,.06,2.88,2.88,0,0,0,3.19-3.18c0-1.77-1-2.89-3-2.89a5.44,5.44,0,0,0-1.13.1V47Z" transform="translate(-0.59 -0.79)"/>
   <path class="cls-20" d="M53.12,40.35a13.83,13.83,0,0,1,2.06-.16,4.29,4.29,0,0,1,3,.93,3.45,3.45,0,0,1,1.06,2.69,4,4,0,0,1-1.08,2.91,4.61,4.61,0,0,1-3.31,1.08,15.43,15.43,0,0,1-1.76-.09V40.35Zm1,6.62a6.17,6.17,0,0,0,1,.06,2.88,2.88,0,0,0,3.19-3.18c0-1.77-1-2.89-3-2.89a5.44,5.44,0,0,0-1.13.1V47Z" transform="translate(-0.59 -0.79)"/>
   <path class="cls-20" d="M61.58,45.38L60.8,47.74h-1l2.55-7.49h1.17l2.56,7.49H65l-0.8-2.36H61.58ZM64,44.63l-0.73-2.16C63.14,42,63,41.54,62.92,41.1h0c-0.11.44-.23,0.9-0.38,1.36l-0.73,2.17H64Z" transform="translate(-0.59 -0.79)"/>
   <path class="cls-20" d="M68.14,40.25v7.49h-1V40.25h1Z" transform="translate(-0.59 -0.79)"/>
   <path class="cls-20" d="M69.83,40.25h1v6.68H74v0.81H69.83V40.25Z" transform="translate(-0.59 -0.79)"/>
   <path class="cls-20" d="M75.81,47.74V44.56l-2.37-4.31h1.1l1.06,2.07c0.29,0.57.51,1,.74,1.54h0c0.21-.49.47-1,0.76-1.54l1.08-2.07h1.1l-2.51,4.3v3.19h-1Z" transform="translate(-0.59 -0.79)"/>
</svg>
