<svg id="Layer_1" data-name="Layer 1" xmlns="http://www.w3.org/2000/svg" viewBox="0 0 84.82 45.87">
   <defs>
      <style>.cls-1{fill:none;}.cls-2{fill:#c0bfbf;}.cls-3{fill:#fab92f;}.cls-4{fill:#fff;}.cls-5{fill:#040404;}.cls-6{fill:#9b9b9b;}.cls-7{fill:#080808;}.cls-8{fill:#0a0a0a;}.cls-9{fill:#030303;}.cls-10{fill:#9a9a9a;}</style>
   </defs>
   <path class="cls-1" d="M39.56,41.88a0.9,0.9,0,0,0-1,.14,1.27,1.27,0,0,0-.24,1.65,1,1,0,0,0,1.47.28,1.11,1.11,0,0,0,.42-1,1.46,1.46,0,0,0,0-.16A1.1,1.1,0,0,0,39.56,41.88Z" transform="translate(-0.65 -0.12)"/>
   <path class="cls-1" d="M46.83,18.21a2,2,0,0,0,2-2A2,2,0,1,0,46.83,18.21Z" transform="translate(-0.65 -0.12)"/>
   <path class="cls-1" d="M6,41.79a1.17,1.17,0,0,0-1,1.5,1,1,0,0,0,1.33.82,1.07,1.07,0,0,0,.73-1A1.12,1.12,0,0,0,6,41.79Z" transform="translate(-0.65 -0.12)"/>
   <path class="cls-1" d="M65.32,43.26a1.88,1.88,0,0,0-1.27,0,0.47,0.47,0,0,0-.31.45,0.5,0.5,0,0,0,.3.46,1.1,1.1,0,0,0,.39.1,0.88,0.88,0,0,0,1-.8C65.42,43.39,65.44,43.29,65.32,43.26Z" transform="translate(-0.65 -0.12)"/>
   <path class="cls-1" d="M76.23,41.79A1,1,0,0,0,75,42.7h1.73c0.09,0,.12,0,0.11-0.12A1,1,0,0,0,76.23,41.79Z" transform="translate(-0.65 -0.12)"/>
   <path class="cls-1" d="M27.84,41.75a1,1,0,0,0-.91.79c0,0.12,0,.16.12,0.16h1.51c0.2,0,.22-0.07.17-0.24A0.94,0.94,0,0,0,27.84,41.75Z" transform="translate(-0.65 -0.12)"/>
   <path class="cls-1" d="M20.74,41.75a1,1,0,0,0-.9.77c0,0.14,0,.19.16,0.19h1.48c0.12,0,.18,0,0.16-0.17A1,1,0,0,0,20.74,41.75Z" transform="translate(-0.65 -0.12)"/>
   <path class="cls-1" d="M32.61,41.88a0.92,0.92,0,0,0-1.06.16,1.31,1.31,0,0,0-.09,1.75,1,1,0,0,0,1.48,0,1,1,0,0,0,.32-0.76A1.17,1.17,0,0,0,32.61,41.88Z" transform="translate(-0.65 -0.12)"/>
   <path class="cls-1" d="M27.3,6.48c0,0.23,0,.46,0,0.69h0C27.31,6.93,27.31,6.71,27.3,6.48Z" transform="translate(-0.65 -0.12)"/>
   <path class="cls-1" d="M30.66,7.17V6.06h0V7.17Z" transform="translate(-0.65 -0.12)"/>
   <path class="cls-1" d="M10.56,41.79A1.14,1.14,0,0,0,9.46,43a1.16,1.16,0,0,0,1.12,1.2A1.12,1.12,0,0,0,11.68,43,1.16,1.16,0,0,0,10.56,41.79Z" transform="translate(-0.65 -0.12)"/>
   <path class="cls-1" d="M29.55,9.31c0,0.18,0,.27-0.24.26a1,1,0,0,0-.69,0,1,1,0,0,0,0,.68c0,0.19-.06.25-0.24,0.23a2.3,2.3,0,0,0-.32,0,1.78,1.78,0,0,0-.3,0,1.78,1.78,0,0,1,.3,0l0.1,0.15a15.37,15.37,0,0,1,3.41,9,15,15,0,0,1-.73,5.45,15.44,15.44,0,0,1-4.6,6.93,21.2,21.2,0,0,1-2,1.5H70.81a17.75,17.75,0,0,0,1.9-.1,12.72,12.72,0,0,0,4.1-1.17,13.18,13.18,0,0,0,4.39-3.38,12.75,12.75,0,0,0,2.12-3.43,12.92,12.92,0,0,0,1-6,13.39,13.39,0,0,0-.7-3.45A13,13,0,0,0,79,9.81a12.83,12.83,0,0,0-7.86-2.63H29.55C29.55,7.89,29.54,8.6,29.55,9.31Zm27.22,18.2A2.12,2.12,0,0,1,56,29.23a2.77,2.77,0,0,1-2.95,0,2,2,0,0,1-.73-1.42,14.42,14.42,0,0,1-.05-2c0-.83,0-1.66,0-2.49,0-.2.06-0.27,0.25-0.25a1.41,1.41,0,0,1,.81.06,1.32,1.32,0,0,1,0,.79c0,0.49,0,1,0,1.48h0q0,1,0,2a2.14,2.14,0,0,0,.1.62,0.75,0.75,0,0,0,.2.34,1.26,1.26,0,0,0,1.27.23,0.9,0.9,0,0,0,.65-0.79,2.94,2.94,0,0,0,.06-0.6c0-1.3,0-2.6,0-3.9,0-.19,0-0.27.25-0.26a6.18,6.18,0,0,0,.69,0,0.15,0.15,0,0,1,.19.18C56.79,24.71,56.81,26.11,56.78,27.52Zm6.41,2H63.05c-0.78,0-.78,0-1.09-0.72s-0.53-1.17-.79-1.76a0.31,0.31,0,0,0-.35-0.23,1.33,1.33,0,0,0-.69,0,1,1,0,0,0-.06.71q0,0.86,0,1.72c0,0.19-.05.25-0.24,0.24a4.86,4.86,0,0,0-.64,0C59,29.57,59,29.5,59,29.32c0-1,0-2,0-3s0-2,0-2.94c0-.19,0-0.27.25-0.26,0.84,0,1.68,0,2.51.05A1.82,1.82,0,0,1,63.12,26a1.57,1.57,0,0,1-.72.61c-0.19.08-.22,0.16-0.13,0.36,0.38,0.78.73,1.57,1.1,2.35C63.49,29.55,63.49,29.55,63.18,29.55Zm12.49-1.81a2.49,2.49,0,0,1-2.37,1.79c-0.64.05-1.29,0-1.93,0-0.19,0-.22-0.08-0.21-0.24,0-1,0-2,0-3s0-1.94,0-2.91c0-.21,0-0.3.27-0.29a14.58,14.58,0,0,1,2.22.09,2.53,2.53,0,0,1,2.17,2.28A4.89,4.89,0,0,1,75.67,27.74ZM69.15,12.53c0.31,0,.62,0,0.93,0a0.2,0.2,0,0,1,.23.16c0.11,0.31.22,0.61,0.37,1,0.14-.16.23-0.29,0.34-0.39a3.07,3.07,0,0,1,2.73-.89,2.38,2.38,0,0,1,1.94,2.3c0,0.4,0,.81,0,1.22,0,1.26,0,2.53,0,3.79,0,0.2-.05.25-0.25,0.25-0.57,0-1.15,0-1.72,0-0.17,0-.22,0-0.22-0.22,0-1.49,0-3,0-4.48a1.09,1.09,0,0,0-1.4-1.08,2,2,0,0,0-1,.62,0.36,0.36,0,0,0-.07.3c0,1.53,0,3.06,0,4.58,0,0.22,0,.28-0.27.28-0.56,0-1.11,0-1.67,0a0.16,0.16,0,0,1-.19-0.19q0-3.52,0-7C68.94,12.56,69,12.52,69.15,12.53Zm0,10.85c0,0.65,0,.65-0.64.65H66.67c-0.17,0-.24,0-0.23.22,0,0.43,0,.87,0,1.3,0,0.2.08,0.23,0.25,0.23,0.56,0,1.11,0,1.67,0a0.2,0.2,0,0,1,.25.25c0,0.61,0,.61-0.61.61H66.68a0.2,0.2,0,0,0-.24.25c0,0.51,0,1,0,1.54a0.19,0.19,0,0,0,.24.24h2.38a0.23,0.23,0,0,1,.29.28c0,0.62,0,.62-0.62.62H65.6c-0.21,0-.27-0.05-0.27-0.26,0-1,0-2,0-3s0-1.94,0-2.91c0-.21,0-0.29.27-0.29,1.11,0,2.23,0,3.34,0A0.2,0.2,0,0,1,69.19,23.38Zm-4.62-11a3.87,3.87,0,1,1-3.87,3.86A3.85,3.85,0,0,1,64.57,12.37Zm-13.34.37c0-.16,0-0.21.21-0.21s0.57,0,.85,0a0.26,0.26,0,0,1,.31.2c0.16,0.45.34,0.89,0.53,1.38a4.13,4.13,0,0,1,.63-0.87,2.32,2.32,0,0,1,1.68-.71c0.35,0,.71,0,1.06,0a0.23,0.23,0,0,0,.28-0.24c0.08-.53.19-1.06,0.28-1.59a0.27,0.27,0,0,1,.33-0.29,10.49,10.49,0,0,0,1.24,0c0.23,0,.28.07,0.27,0.28,0,0.53,0,1.06,0,1.59,0,0.21.06,0.25,0.25,0.24,0.39,0,.78,0,1.17,0a0.14,0.14,0,0,1,.18.18q0,0.58,0,1.17c0,0.13,0,.16-0.17.16-0.38,0-.76,0-1.14,0-0.21,0-.29,0-0.29.27,0,1.11,0,2.23,0,3.34a0.7,0.7,0,0,0,.9.82h0.08a0.86,0.86,0,0,1,.57-0.07,1.08,1.08,0,0,1,.12.55c0,0.25.08,0.51,0.13,0.76,0,0.09,0,.15-0.09.18a4.27,4.27,0,0,1-2.65.07,1.82,1.82,0,0,1-1.2-1.6,7.68,7.68,0,0,1,0-1.19c0-1,0-1.93,0-2.89,0-.18,0-0.24-0.23-0.23-0.35,0-.71,0-1.06,0a2.21,2.21,0,0,0-1.89,1.79,4,4,0,0,0-.11,1c0,1,0,2,0,2.94,0,0.16,0,.23-0.21.22-0.58,0-1.17,0-1.75,0-0.16,0-.23,0-0.23-0.21Q51.24,16.24,51.23,12.73ZM44.28,29c0,0.6,0,.6-0.62.6H40.51a0.21,0.21,0,0,1-.25-0.26c0-1,0-2,0-3s0-1.94,0-2.91c0-.24.07-0.3,0.3-0.29,1.1,0,2.19,0,3.29,0,0.2,0,.28,0,0.27.26,0,0.65,0,.65-0.65.65H41.62c-0.18,0-.25,0-0.24.23,0,0.42,0,.85,0,1.27a0.2,0.2,0,0,0,.24.25h1.7a0.19,0.19,0,0,1,.23.22c0,0.65,0,.65-0.63.65H41.59c-0.18,0-.22.08-0.22,0.24,0,0.52,0,1,0,1.56,0,0.18.07,0.22,0.23,0.22,0.79,0,1.59,0,2.38,0C44.23,28.64,44.29,28.72,44.28,29Zm6.12-.09a2.36,2.36,0,0,1-1.62.79,2.61,2.61,0,0,1-2.91-2.58,3.56,3.56,0,0,1-.05-0.71A4,4,0,0,1,46.49,24a2.45,2.45,0,0,1,2.33-1,2.24,2.24,0,0,1,1.45.62c0.1,0.1.13,0.18,0,.28L50.22,24a1.5,1.5,0,0,1-.41.44,0.62,0.62,0,0,1-.49-0.28,1.4,1.4,0,0,0-2.09.72,4.37,4.37,0,0,0,0,2.81,1.41,1.41,0,0,0,2.1.76l0.13-.08a0.84,0.84,0,0,1,.47-0.32,2.24,2.24,0,0,1,.55.56C50.53,28.73,50.46,28.79,50.4,28.86ZM46.88,12.37A3.87,3.87,0,1,1,43,16.22,3.85,3.85,0,0,1,46.88,12.37ZM34.68,9.86c0.64,0,1.29,0,1.93,0a0.4,0.4,0,0,1,.42.25c0.89,1.71,1.79,3.42,2.68,5.13l0.45,0.86a0.43,0.43,0,0,0,0-.29c0-1.89,0-3.78,0-5.67,0-.21,0-0.29.27-0.28,0.52,0,1,0,1.56,0,0.17,0,.2.05,0.2,0.21q0,4.85,0,9.7A0.17,0.17,0,0,1,42,20H40.22a0.27,0.27,0,0,1-.28-0.18l-2.66-5.23L36.54,13.1H36.48v2.7c0,1.29,0,2.58,0,3.87,0,0.24-.07.29-0.29,0.28-0.51,0-1,0-1.54,0-0.17,0-.2,0-0.2-0.21q0-4.85,0-9.7C34.46,9.87,34.53,9.85,34.68,9.86ZM34,28.7a1.72,1.72,0,0,1,.36-0.5,0.85,0.85,0,0,1,.55.24,2.75,2.75,0,0,0,1.73.2,0.84,0.84,0,0,0,.24-1.56,4.69,4.69,0,0,0-.93-0.38,3.57,3.57,0,0,1-1.2-.6,1.72,1.72,0,0,1-.52-1.83,1.6,1.6,0,0,1,1.38-1.19,3.71,3.71,0,0,1,2.23.25c0.17,0.07.24,0.14,0.13,0.33a1.86,1.86,0,0,1-.31.57,0.86,0.86,0,0,1-.58-0.17A3.33,3.33,0,0,0,36,24a0.77,0.77,0,0,0-.31,1.48c0.48,0.25,1,.34,1.51.57a1.86,1.86,0,0,1,1,1,1.81,1.81,0,0,1-1.43,2.57,3.13,3.13,0,0,1-.68.05,3.91,3.91,0,0,1-2-.56C33.91,29,33.83,28.89,34,28.7Z" transform="translate(-0.65 -0.12)"/>
   <path class="cls-1" d="M64.56,18.21a2,2,0,0,0,2-2,2,2,0,0,0-2-2,2,2,0,0,0-2,2A2,2,0,0,0,64.56,18.21Z" transform="translate(-0.65 -0.12)"/>
   <path class="cls-1" d="M25.42,7.83c0-.22,0-0.43,0-0.65H24.18C24.53,7.47,25,7.66,25.29,8h0C25.44,8,25.42,7.91,25.42,7.83Z" transform="translate(-0.65 -0.12)"/>
   <path class="cls-1" d="M30.66,6.06h0V4.93H29.56a4.65,4.65,0,0,1,0-.68,4.65,4.65,0,0,0,0,.68l0,1.12h0A8.85,8.85,0,0,1,30.66,6.06Z" transform="translate(-0.65 -0.12)"/>
   <path class="cls-1" d="M27.32,7.17h0Z" transform="translate(-0.65 -0.12)"/>
   <path class="cls-1" d="M27.37,8.29h0.92c0.12,0,.17,0,0.17-0.16,0-.32,0-0.64,0-1H27.32V8.23Z" transform="translate(-0.65 -0.12)"/>
   <path class="cls-1" d="M29.55,4c0,0.05,0,.1,0,0.15S29.55,4.08,29.55,4Z" transform="translate(-0.65 -0.12)"/>
   <path class="cls-1" d="M61.58,24.08A7.25,7.25,0,0,0,60.21,24c-0.12,0-.14.07-0.14,0.17,0,0.26,0,.53,0,0.79s0,0.55,0,.82c0,0.08,0,.18.1,0.17a5.79,5.79,0,0,0,1.44-.07,0.86,0.86,0,0,0,.63-1A0.82,0.82,0,0,0,61.58,24.08Z" transform="translate(-0.65 -0.12)"/>
   <path class="cls-1" d="M30.67,3.76l-1.07,0v0Z" transform="translate(-0.65 -0.12)"/>
   <polygon class="cls-1" points="26.67 7.05 26.67 7.04 26.67 7.04 26.67 7.05"/>
   <path class="cls-1" d="M27.38,6.54c0-.09,0-0.19,0-0.28C27.37,6.36,27.37,6.45,27.38,6.54Z" transform="translate(-0.65 -0.12)"/>
   <path class="cls-1" d="M27.38,6.61a1.54,1.54,0,0,1-.06.55h0A1.54,1.54,0,0,0,27.38,6.61Z" transform="translate(-0.65 -0.12)"/>
   <path class="cls-1" d="M73.27,24.06c-0.25,0-.51,0-0.76,0s-0.24.05-.24,0.24c0,0.69,0,1.38,0,2.06s0,1.38,0,2.06c0,0.22.07,0.28,0.27,0.26s0.41,0,.61,0a1.5,1.5,0,0,0,1.47-1.26,4.9,4.9,0,0,0,0-2A1.48,1.48,0,0,0,73.27,24.06Z" transform="translate(-0.65 -0.12)"/>
   <circle class="cls-2" cx="30.66" cy="6.06" transform="translate(23.87 36.58) rotate(-89.85)"/>
   <path class="cls-2" d="M85.37,18.55c0-.18,0-0.37-0.07-0.55A14,14,0,0,0,84,14,14.42,14.42,0,0,0,75.44,6.7a12.76,12.76,0,0,0-3.84-.63H30.66V7.17H71.18A12.83,12.83,0,0,1,79,9.81a13,13,0,0,1,4.57,6.25,13.39,13.39,0,0,1,.7,3.45,12.92,12.92,0,0,1-1,6,12.75,12.75,0,0,1-2.12,3.43A13.18,13.18,0,0,1,76.8,32.3a12.72,12.72,0,0,1-4.1,1.17,17.75,17.75,0,0,1-1.9.1H24.2A24.46,24.46,0,0,1,22,34.68H71.57a10.87,10.87,0,0,0,1.76-.13,15,15,0,0,0,3.39-1,14.35,14.35,0,0,0,7.57-7.47,14,14,0,0,0,1-3.57,4.5,4.5,0,0,1,.15-1V19.21a0.3,0.3,0,0,1,0-.37V18.68C85.38,18.68,85.37,18.62,85.37,18.55Z" transform="translate(-0.65 -0.12)"/>
   <path class="cls-3" d="M33.84,1.38c0.27,0,.33-0.08.32-0.33s0-.62,0-0.93H32.94V1.36h0C33.24,1.37,33.55,1.35,33.84,1.38Z" transform="translate(-0.65 -0.12)"/>
   <path class="cls-4" d="M85.47,19.21V18.83A0.3,0.3,0,0,0,85.47,19.21Z" transform="translate(-0.65 -0.12)"/>
   <path class="cls-3" d="M26.21,32.07a15.44,15.44,0,0,0,4.6-6.93,15,15,0,0,0,.73-5.45,15.37,15.37,0,0,0-3.41-9L28,10.52a1.78,1.78,0,0,0-.3,0c-0.11,0-.14.07-0.14,0.22s0,0.12,0,.21c0,0.26,0,.51,0,0.77s0,0.2-.17.18h0a1.27,1.27,0,0,0-.66,0,1.16,1.16,0,0,0-.05.71,0.45,0.45,0,0,0,0,.11c0,0.22,0,.32-0.28.3s-0.42,0-.63,0-0.21.05-.21,0.21,0,0.58,0,.87a0.15,0.15,0,0,1-.18.18c-0.2,0-.4,0-0.61,0a10.83,10.83,0,0,1,1.73,4.15,10.23,10.23,0,0,1-.79,6.3,10.38,10.38,0,0,1-6.94,5.83A10.57,10.57,0,0,1,7.69,26.76a10.41,10.41,0,0,1-2.14-6.7A10.58,10.58,0,0,1,14.8,9.9a10.36,10.36,0,0,1,7.07,1.63l0.21,0.12c0-.1,0-0.2,0-0.3s0-.07,0-0.1c0-.49,0-0.49.5-0.49,0.14,0,.28,0,0.42,0s0.21-.06.21-0.21c0-.44,0-0.88,0-1.32,0-.18,0-0.25.23-0.24S24,9,24.22,9a0.16,0.16,0,0,0,.2-0.19A1.18,1.18,0,0,1,24.47,8a1.34,1.34,0,0,1,.74,0l0.08,0h0c-0.33-.31-0.76-0.5-1.11-0.8h0c-0.36-.2-0.72-0.4-1.09-0.58S22.35,6.24,22,6.07L21.77,6a15,15,0,0,0-8.24-.87,15.11,15.11,0,0,0-9.41,5.5,15.06,15.06,0,0,0-3.46,9A15,15,0,0,0,1.83,26.3a15.48,15.48,0,0,0,17.38,9.23A16.53,16.53,0,0,0,22,34.68a24.46,24.46,0,0,0,2.18-1.11A21.2,21.2,0,0,0,26.21,32.07Z" transform="translate(-0.65 -0.12)"/>
   <path class="cls-5" d="M62.09,42.33a1.23,1.23,0,0,0-.53-1.07,1.48,1.48,0,0,0-1.88.27c-0.11.12-.15,0.12-0.24,0a1,1,0,0,0-.62-0.42,1.33,1.33,0,0,0-1.48.54c0-.52,0-0.52-0.52-0.52H56.68c-0.2,0-.23.06-0.23,0.24,0,0.95,0,1.89,0,2.84,0,0.65,0,.64.64,0.65,0.18,0,.24,0,0.24-0.23,0-.64,0-1.27,0-1.91A0.81,0.81,0,0,1,58,41.84a0.72,0.72,0,0,1,.84.81c0,0.5,0,1,0,1.51,0,0.68,0,.67.67,0.67,0.16,0,.21,0,0.2-0.21,0-.64,0-1.29,0-1.93a0.81,0.81,0,0,1,.64-0.85,0.71,0.71,0,0,1,.86.78c0,0.51,0,1,0,1.54,0,0.71,0,.71.72,0.67a0.14,0.14,0,0,0,.16-0.17C62.09,43.89,62.11,43.11,62.09,42.33Z" transform="translate(-0.65 -0.12)"/>
   <path class="cls-6" d="M17.86,41.1a0.22,0.22,0,0,0-.24.18c-0.1.35-.21,0.69-0.31,1l-0.38,1.3c-0.26-.82-0.51-1.56-0.74-2.31a0.26,0.26,0,0,0-.3-0.22c-0.49,0-.49,0-0.67.47l-0.09.28-0.55,1.72a0.83,0.83,0,0,1-.07-0.13L14,41.74c-0.24-.79,0-0.6-0.83-0.63-0.2,0-.24,0-0.17.24,0.33,1,.64,2,1,3,0.17,0.53.16,0.53,0.73,0.52a0.24,0.24,0,0,0,.28-0.2c0.09-.32.2-0.64,0.31-1l0.45-1.32,0.66,2c0.16,0.49.17,0.48,0.68,0.49a0.3,0.3,0,0,0,.34-0.26c0.3-1,.61-1.91.92-2.87C18.55,41.08,18.55,41.08,17.86,41.1Z" transform="translate(-0.65 -0.12)"/>
   <path class="cls-6" d="M39.92,41.14a1.51,1.51,0,0,0-1.79.55V40.36c0-.69,0-0.68-0.69-0.65a0.17,0.17,0,0,0-.2.2q0,2.37,0,4.74c0,0.07,0,.17.07,0.18a1.66,1.66,0,0,0,.76,0,0.52,0.52,0,0,0,.06-0.41l0,0,0.07,0.07a1.59,1.59,0,0,0,2.32,0,2,2,0,0,0,.53-1.63A1.78,1.78,0,0,0,39.92,41.14ZM40.2,43a1.11,1.11,0,0,1-.42,1,1,1,0,0,1-1.47-.28A1.27,1.27,0,0,1,38.55,42a0.9,0.9,0,0,1,1-.14,1.1,1.1,0,0,1,.64.93A1.46,1.46,0,0,1,40.2,43Z" transform="translate(-0.65 -0.12)"/>
   <path class="cls-6" d="M34.15,40.33c0-.62,0-0.61-0.63-0.62-0.21,0-.27.05-0.27,0.27,0,0.54,0,1.07,0,1.66a1.64,1.64,0,0,0-2.56.06,2.21,2.21,0,0,0,0,2.57,1.59,1.59,0,0,0,2.28.3,2.81,2.81,0,0,0,.27-0.29c0,0.55,0,.55.53,0.55h0.05c0.25,0,.33,0,0.33-0.31C34.14,43.11,34.15,41.72,34.15,40.33Zm-1.2,3.5a1,1,0,0,1-1.48,0A1.31,1.31,0,0,1,31.56,42a0.92,0.92,0,0,1,1.06-.16,1.17,1.17,0,0,1,.66,1.19A1,1,0,0,1,32.95,43.83Z" transform="translate(-0.65 -0.12)"/>
   <path class="cls-6" d="M5.22,41.41a0.84,0.84,0,0,1-.25.23,1,1,0,0,0-.07-0.5,1.18,1.18,0,0,0-.54,0c-0.22,0-.26.07-0.26,0.27,0,1.33,0,2.67,0,4,0,0.6,0,.59.6,0.59A0.21,0.21,0,0,0,5,45.71c0-.45,0-0.89,0-1.34a0.21,0.21,0,0,1,.17.1,1.61,1.61,0,0,0,2.25,0,2.18,2.18,0,0,0,.11-2.81A1.6,1.6,0,0,0,5.22,41.41ZM7,43.07a1.07,1.07,0,0,1-.73,1A1,1,0,0,1,5,43.29a1.17,1.17,0,0,1,1-1.5A1.12,1.12,0,0,1,7,43.07Z" transform="translate(-0.65 -0.12)"/>
   <path class="cls-7" d="M50.92,42.29a3.47,3.47,0,0,0-.85-0.3,4.33,4.33,0,0,1-.76-0.23,0.55,0.55,0,0,1-.43-0.59,0.6,0.6,0,0,1,.55-0.52,1.73,1.73,0,0,1,1.1.2,0.76,0.76,0,0,0,.47.23,1.47,1.47,0,0,0,.36-0.45c0.11-.13.08-0.2-0.05-0.29a2.88,2.88,0,0,0-1.59-.5,2,2,0,0,0-1,.26A1.32,1.32,0,0,0,48,41.38a1.17,1.17,0,0,0,.77,1.1,4.31,4.31,0,0,0,.57.21c0.31,0.09.63,0.16,0.94,0.27a0.56,0.56,0,0,1,.45.58,0.58,0.58,0,0,1-.51.53,2,2,0,0,1-1.72-.46c-0.13-.1-0.21-0.14-0.3,0a1,1,0,0,1-.12.14c-0.29.35-.3,0.37,0.09,0.61a2.73,2.73,0,0,0,2.67.3,1.26,1.26,0,0,0,.77-1.14A1.21,1.21,0,0,0,50.92,42.29Z" transform="translate(-0.65 -0.12)"/>
   <path class="cls-7" d="M66.24,42.45a1.3,1.3,0,0,0-1.12-1.34,2.7,2.7,0,0,0-1.38.08c-0.66.23-.56,0.06-0.35,0.73,0,0.14.1,0.15,0.23,0.1a2.27,2.27,0,0,1,1-.17,0.76,0.76,0,0,1,.75.55c0.06,0.25,0,.27-0.22.22a2.74,2.74,0,0,0-1.54,0,1.09,1.09,0,0,0-.73,1.08,1.05,1.05,0,0,0,.72,1.06,1.68,1.68,0,0,0,1.8-.38c-0.11.39,0,.46,0.32,0.42a1.66,1.66,0,0,1,.34,0,0.13,0.13,0,0,0,.17-0.16C66.24,43.93,66.26,43.19,66.24,42.45Zm-0.82,1a0.88,0.88,0,0,1-1,.8,1.1,1.1,0,0,1-.39-0.1,0.5,0.5,0,0,1-.3-0.46,0.47,0.47,0,0,1,.31-0.45,1.88,1.88,0,0,1,1.27,0C65.44,43.29,65.42,43.39,65.42,43.47Z" transform="translate(-0.65 -0.12)"/>
   <path class="cls-8" d="M75.51,41.1a1.9,1.9,0,0,0-1.33,2,1.85,1.85,0,0,0,1.15,1.71,2,2,0,0,0,2.16-.42c0.11-.11.1-0.17,0-0.27-0.34-.3-0.34-0.31-0.71-0.07l0,0a1.1,1.1,0,0,1-1.59-.47C75,43.33,75,43.3,75.3,43.3h1.91c0.6,0,.6,0,0.53-0.61A1.74,1.74,0,0,0,75.51,41.1Zm1.27,1.6H75a1,1,0,0,1,1.19-.91,1,1,0,0,1,.65.79C76.89,42.68,76.86,42.7,76.77,42.7Z" transform="translate(-0.65 -0.12)"/>
   <path class="cls-6" d="M19.74,41.37A1.9,1.9,0,0,0,19,43.27a1.72,1.72,0,0,0,1.27,1.54,1.89,1.89,0,0,0,2-.46s0.12-.1.07-0.15a2.27,2.27,0,0,0-.4-0.38c-0.13-.09-0.2.07-0.28,0.13a1.13,1.13,0,0,1-1.75-.38c-0.08-.18-0.06-0.28.17-0.27s0.74,0,1.11,0h0.66c0.81,0,.81,0,0.66-0.8A1.74,1.74,0,0,0,19.74,41.37Zm1.75,1.33H20c-0.14,0-.19,0-0.16-0.19a1,1,0,0,1,.9-0.77,1,1,0,0,1,.9.79C21.66,42.67,21.61,42.7,21.49,42.7Z" transform="translate(-0.65 -0.12)"/>
   <path class="cls-6" d="M27.42,41.09A1.89,1.89,0,0,0,26,43.15a1.72,1.72,0,0,0,1.08,1.59,2,2,0,0,0,2.13-.3c0.18-.15.19-0.25,0-0.43s-0.37-.27-0.58,0a0.55,0.55,0,0,1-.16.1A1.1,1.1,0,0,1,27,43.55c-0.06-.17,0-0.25.16-0.24h1.8c0.78,0,.78,0,0.65-0.78A1.74,1.74,0,0,0,27.42,41.09Zm1.13,1.61H27c-0.12,0-.14,0-0.12-0.16a1,1,0,0,1,.91-0.79,0.94,0.94,0,0,1,.88.71C28.78,42.63,28.76,42.71,28.56,42.7Z" transform="translate(-0.65 -0.12)"/>
   <path class="cls-6" d="M10.58,41a2,2,0,0,0-2,2,1.92,1.92,0,0,0,2,1.9A1.94,1.94,0,1,0,10.58,41Zm0,3.13A1.16,1.16,0,0,1,9.46,43a1.14,1.14,0,0,1,1.11-1.18A1.16,1.16,0,0,1,11.68,43,1.12,1.12,0,0,1,10.58,44.17Z" transform="translate(-0.65 -0.12)"/>
   <path class="cls-7" d="M70.6,42.2A1.21,1.21,0,0,0,69.32,41a1.4,1.4,0,0,0-1.13.55c-0.08-.48-0.08-0.48-0.57-0.48H67.55c-0.2,0-.27,0-0.27.25,0,0.94,0,1.89,0,2.83a1.09,1.09,0,0,0,0,.59,1.11,1.11,0,0,0,.61,0c0.21,0,.24-0.07.24-0.26,0-.63,0-1.25,0-1.88a0.8,0.8,0,1,1,1.59,0c0,0.49,0,1,0,1.46,0,0.71,0,.71.7,0.66h0a0.11,0.11,0,0,0,.14-0.14C70.62,43.86,70.64,43,70.6,42.2Z" transform="translate(-0.65 -0.12)"/>
   <path class="cls-8" d="M55.09,41.11a0.24,0.24,0,0,0-.28.2c-0.25.75-.52,1.5-0.78,2.24a0.31,0.31,0,0,1-.12.23l0-.1L53,41.3a0.2,0.2,0,0,0-.21-0.2H52a0.38,0.38,0,0,0,.06.24c0.45,1.09.9,2.18,1.36,3.26a0.39,0.39,0,0,1-.08.48,0.48,0.48,0,0,1-.58.1c-0.24-.12-0.34,0-0.41.19a0.8,0.8,0,0,1-.09.19c-0.09.14,0,.2,0.11,0.25a1.28,1.28,0,0,0,1.84-.68l0.1-.25,0.86-2.21,0.61-1.59C55.53,41.11,55.31,41.12,55.09,41.11Z" transform="translate(-0.65 -0.12)"/>
   <path class="cls-6" d="M45,41.1a4.52,4.52,0,0,1-.5,0,0.21,0.21,0,0,0-.25.17c-0.09.3-.2,0.6-0.31,0.9l-0.55,1.56H43.35l-0.77-2c-0.31-.81-0.1-0.61-0.93-0.65-0.21,0-.23,0-0.15.23,0.47,1.09.91,2.2,1.38,3.29a0.39,0.39,0,0,1-.11.49,0.49,0.49,0,0,1-.57.07,0.23,0.23,0,0,0-.38.18,1.31,1.31,0,0,1-.11.24,0.13,0.13,0,0,0,.06.2,1.35,1.35,0,0,0,1.73-.33,4.67,4.67,0,0,0,.45-1c0.41-1,.81-2.1,1.23-3.15C45.24,41.13,45.2,41.09,45,41.1Z" transform="translate(-0.65 -0.12)"/>
   <path class="cls-7" d="M81.54,43.9c-0.15-.14-0.24-0.2-0.43,0a1.05,1.05,0,0,1-1.27.15,1.21,1.21,0,0,1-.55-1.23A1.06,1.06,0,0,1,80.94,42a0.85,0.85,0,0,0,.35.24,1,1,0,0,0,.34-0.32l0,0c0.14-.12.15-0.22,0-0.35a1.94,1.94,0,0,0-2.1-.3A1.84,1.84,0,0,0,78.41,43a1.82,1.82,0,0,0,1,1.7,1.92,1.92,0,0,0,2.1-.14C81.9,44.27,81.89,44.24,81.54,43.9Z" transform="translate(-0.65 -0.12)"/>
   <path class="cls-8" d="M73.08,41.11H73c-0.36,0-.36,0-0.36-0.36,0-.68,0-0.68-0.69-0.65-0.14,0-.19,0-0.18.18s0,0.42,0,.64,0,0.21-.17.18-0.33.09-.3,0.32a0.62,0.62,0,0,1,0,.18c0,0.2,0,.28.24,0.25s0.24,0.06.23,0.24,0,0.58,0,.87,0,0.58,0,.87a0.93,0.93,0,0,0,.51.94,1.49,1.49,0,0,0,1.21,0,0.16,0.16,0,0,0,.13-0.17c0-.16,0-0.32,0-0.48s0-.13-0.13-0.08a1.06,1.06,0,0,1-.31.08,0.42,0.42,0,0,1-.55-0.49c0-.53,0-1.06,0-1.59a0.14,0.14,0,0,1,.18-0.18h0.66a0.13,0.13,0,0,0,.16-0.15C73.67,41.11,73.68,41.11,73.08,41.11Z" transform="translate(-0.65 -0.12)"/>
   <path class="cls-2" d="M24.18,7.18h3.13c0-.23,0-0.46,0-0.69,0-.08,0-0.15,0-0.23s0-.2-0.19-0.19H22c0.37,0.18.75,0.34,1.12,0.53S23.82,7,24.18,7.18Z" transform="translate(-0.65 -0.12)"/>
   <path class="cls-6" d="M25.19,41.08a1.47,1.47,0,0,0-.92.79c0-.11,0-0.14,0-0.16,0-.61,0-0.6-0.61-0.61-0.21,0-.25.07-0.25,0.26,0,1,0,1.91,0,2.86,0,0.61,0,.6.61,0.61a0.21,0.21,0,0,0,.25-0.26,12.12,12.12,0,0,1,0-1.48A1.16,1.16,0,0,1,25.11,42c0.46-.14.46-0.14,0.46-0.64t0,0C25.57,41,25.53,41,25.19,41.08Z" transform="translate(-0.65 -0.12)"/>
   <path class="cls-7" d="M29.56,4.94a4.65,4.65,0,0,1,0-.68V4.18c0-.05,0-0.1,0-0.15a2,2,0,0,0,0-.3h0c-0.27,0-.55,0-0.82,0s-0.27,0-.27.26c0,0.69,0,1.38,0,2.08h1.11Z" transform="translate(-0.65 -0.12)"/>
   <path class="cls-5" d="M30.67,3.76l1,0a0.08,0.08,0,0,1,.08-0.06V2.56h0c-0.7,0-1.41,0-2.11,0V3.73Z" transform="translate(-0.65 -0.12)"/>
   <circle class="cls-8" cx="32.93" cy="2.56" transform="translate(5.43 21.67) rotate(-40.05)"/>
   <path class="cls-8" d="M31.75,2.56h1.18V1.37h0c-0.33,0-.67,0-1,0-0.17,0-.2.06-0.2,0.21a6.84,6.84,0,0,1,0,1h0Z" transform="translate(-0.65 -0.12)"/>
   <polygon class="cls-8" points="26.67 7.04 26.67 7.04 26.67 7.04 26.67 7.04 26.67 7.04 26.67 7.04 26.67 7.04 26.67 7.04"/>
   <path class="cls-8" d="M27.12,6.05c0.15,0,.19,0,0.19.19s0,0.15,0,.23c0,0.23,0,.46,0,0.69a1.54,1.54,0,0,0,.06-0.55V6.54c0-.09,0-0.19,0-0.28s0-.14,0-0.21a2.8,2.8,0,0,1,0-.91c0-.14,0-0.19-0.18-0.18H26.33a0.13,0.13,0,0,0-.17.16c0,0.31,0,.62,0,0.92h0.95Z" transform="translate(-0.65 -0.12)"/>
   <path class="cls-5" d="M27.37,6.27c0,0.09,0,.19,0,0.28V6.61a1.54,1.54,0,0,1-.06.55h1.11a7.89,7.89,0,0,0,0-1.11H27.37C27.37,6.13,27.37,6.2,27.37,6.27Z" transform="translate(-0.65 -0.12)"/>
   <path class="cls-8" d="M29.6,2.56c-0.13,0-.06.13-0.06,0.19,0,0.32,0,.65,0,1H29.6V2.56Z" transform="translate(-0.65 -0.12)"/>
   <polygon class="cls-8" points="28.87 3.6 28.87 3.61 28.87 3.6 28.87 3.6"/>
   <path class="cls-6" d="M82.45,8c0,0.12,0,.25.17,0.25s0.2-.11.2-0.26c0-.37,0-0.74,0-1.11A9.78,9.78,0,0,1,83.17,8c0,0.12,0,.24.22,0.24A0.23,0.23,0,0,0,83.61,8l0.28-1.09a6.18,6.18,0,0,1,.06,1.05c0,0.15,0,.28.2,0.28s0.19-.14.19-0.27c0-.54,0-1.08,0-1.61,0-.1.08-0.29-0.13-0.27s-0.45-.14-0.53.21-0.18.68-.28,1h0c-0.1-.36-0.2-0.71-0.29-1.07s-0.31-.15-0.48-0.17-0.14.14-.14,0.24C82.44,6.86,82.44,7.41,82.45,8Z" transform="translate(-0.65 -0.12)"/>
   <path class="cls-3" d="M33.11,3.77H34a0.15,0.15,0,0,0,.18-0.19c0-.29,0-0.58,0-0.87A0.14,0.14,0,0,0,34,2.55h-1c0,0.34,0,.68,0,1A0.15,0.15,0,0,0,33.11,3.77Z" transform="translate(-0.65 -0.12)"/>
   <circle class="cls-3" cx="32.93" cy="2.56" transform="translate(4.81 20.78) rotate(-38.17)"/>
   <circle class="cls-7" cx="30.01" cy="5.93"/>
   <path class="cls-7" d="M30.66,6.06h1.26c0-.33,0-0.65,0-1a0.14,0.14,0,0,0-.17-0.17H30.66V6.06Z" transform="translate(-0.65 -0.12)"/>
   <path class="cls-6" d="M80.9,6.43c0.24,0,.31.06,0.29,0.29s0,0.39,0,.58,0,0.46,0,.69,0.07,0.23.23,0.23,0.24,0,.23-0.22c0-.4,0-0.79,0-1.19s0-.36.35-0.38a0.16,0.16,0,0,0,.18-0.2A0.15,0.15,0,0,0,82,6.05H80.86a0.16,0.16,0,0,0-.2.2C80.65,6.45,80.77,6.45,80.9,6.43Z" transform="translate(-0.65 -0.12)"/>
   <path class="cls-3" d="M29.55,4c0,0.05,0,.1,0,0.15V4.26a4.65,4.65,0,0,0,0,.68h1.1V3.76l-1.07,0H29.52A2,2,0,0,1,29.55,4Z" transform="translate(-0.65 -0.12)"/>
   <path class="cls-8" d="M31.67,3.73c0.05,0,.09,0,0.08-0.06A0.08,0.08,0,0,0,31.67,3.73Z" transform="translate(-0.65 -0.12)"/>
   <circle class="cls-9" cx="30.66" cy="6.06" transform="translate(-0.69 0.09) rotate(-0.4)"/>
   <path class="cls-9" d="M29.55,6.06V7.17h1.12V6.06A8.85,8.85,0,0,0,29.55,6.06Z" transform="translate(-0.65 -0.12)"/>
   <path class="cls-4" d="M24.41,14.62c0,0.27,0,.55,0,0.82s0,0.21-.17.18H24.19a1,1,0,0,0-.66,0,1.28,1.28,0,0,0,0,.67c0,0.41,0,.41-0.42.41s-0.53,0-.49.49a2.18,2.18,0,0,1-.46,1.46A35.93,35.93,0,0,0,18.89,25c-0.12.29-.25,0.57-0.34,0.86a1.34,1.34,0,0,1-1.19,1,2.23,2.23,0,0,1-1.6-.33,1.58,1.58,0,0,1-.6-0.75,34.38,34.38,0,0,0-2.07-4.48A23.2,23.2,0,0,0,10,17.11a2.67,2.67,0,0,1-.6-0.9,0.86,0.86,0,0,1,.13-1,0.9,0.9,0,0,1,1-.21,6.85,6.85,0,0,1,1.93,1A17.83,17.83,0,0,1,16,19.63l0.57,0.76c0.1,0,.09-0.09.11-0.13a65.44,65.44,0,0,1,3.75-7.07A0.37,0.37,0,0,1,20.79,13c0.55,0,.55,0,0.55-0.54s0-.58.56-0.58c0.2,0,.23-0.07.18-0.24l-0.21-.12A10.36,10.36,0,0,0,14.8,9.9,10.58,10.58,0,0,0,5.55,20.06a10.41,10.41,0,0,0,2.14,6.7A10.57,10.57,0,0,0,18.76,30.6a10.38,10.38,0,0,0,6.94-5.83,10.23,10.23,0,0,0,.79-6.3,10.83,10.83,0,0,0-1.73-4.15C24.41,14.27,24.41,14.27,24.41,14.62Z" transform="translate(-0.65 -0.12)"/>
   <path class="cls-5" d="M28,10.52a2.3,2.3,0,0,1,.32,0c0.18,0,.24,0,0.24-0.23a1,1,0,0,1,0-.68,1,1,0,0,1,.69,0c0.21,0,.24-0.07.24-0.26,0-.71,0-1.42,0-2.14H28.43c0,0.32,0,.64,0,1,0,0.13,0,.16-0.17.16H27.37s-0.07,0-.05-0.06V7.17h-1.9c0,0.22,0,.43,0,0.65s0,0.19-.13.15h0L25.21,8a1.34,1.34,0,0,0-.74,0,1.18,1.18,0,0,0-.05.76,0.16,0.16,0,0,1-.2.19C24,9,23.71,9,23.45,9s-0.24.06-.23,0.24c0,0.44,0,.88,0,1.32,0,0.16,0,.23-0.21.21s-0.28,0-.42,0c-0.5,0-.5,0-0.5.49,0,0,0,.07,0,0.1s0,0.2,0,.3,0,0.24-.18.24c-0.56,0-.56,0-0.56.58s0,0.54-.55.54a0.37,0.37,0,0,0-.39.18,65.44,65.44,0,0,0-3.75,7.07s0,0.13-.11.13L16,19.63a17.83,17.83,0,0,0-3.46-3.56,6.85,6.85,0,0,0-1.93-1,0.9,0.9,0,0,0-1,.21,0.86,0.86,0,0,0-.13,1,2.67,2.67,0,0,0,.6.9,23.2,23.2,0,0,1,3.06,4.15,34.38,34.38,0,0,1,2.07,4.48,1.58,1.58,0,0,0,.6.75,2.23,2.23,0,0,0,1.6.33,1.34,1.34,0,0,0,1.19-1c0.09-.29.22-0.57,0.34-0.86a35.93,35.93,0,0,1,3.23-6.29,2.18,2.18,0,0,0,.46-1.46c0-.49,0-0.49.49-0.49s0.41,0,.42-0.41a1.28,1.28,0,0,1,0-.67,1,1,0,0,1,.66,0h0.05c0.15,0,.17-0.05.17-0.18s0-.55,0-0.82,0-.35.35-0.3,0.4,0,.61,0a0.15,0.15,0,0,0,.18-0.18c0-.29,0-0.58,0-0.87s0-.22.21-0.21,0.42,0,.63,0,0.32-.07.28-0.3a0.45,0.45,0,0,1,0-.11,1.16,1.16,0,0,1,.05-0.71,1.27,1.27,0,0,1,.66,0h0c0.15,0,.18,0,0.17-0.18s0-.51,0-0.77c0-.08,0-0.15,0-0.21s0-.2.14-0.22A1.78,1.78,0,0,1,28,10.52ZM25,13c-0.57,0-.57,0-0.57-0.56s0-.57.58-0.57,0.57,0,.57.56S25.55,13,25,13Zm0-2.9c-0.55,0-.55,0-0.55-0.54S24.41,9,25,9s0.56,0,.56.54S25.55,10.12,25,10.12Z" transform="translate(-0.65 -0.12)"/>
   <path class="cls-2" d="M28.43,7.17h1.12V6.06H28.43A7.89,7.89,0,0,1,28.43,7.17Z" transform="translate(-0.65 -0.12)"/>
   <path class="cls-9" d="M34.46,19.76c0,0.16,0,.21.2,0.21,0.51,0,1,0,1.54,0,0.22,0,.3,0,0.29-0.28,0-1.29,0-2.58,0-3.87v-2.7h0.05l0.74,1.45,2.66,5.23a0.27,0.27,0,0,0,.28.18H42a0.17,0.17,0,0,0,.21-0.21q0-4.85,0-9.7c0-.16,0-0.21-0.2-0.21-0.52,0-1,0-1.56,0-0.23,0-.27.07-0.27,0.28,0,1.89,0,3.78,0,5.67a0.43,0.43,0,0,1,0,.29l-0.45-.86c-0.9-1.71-1.8-3.42-2.68-5.13a0.4,0.4,0,0,0-.42-0.25c-0.64,0-1.29,0-1.93,0-0.16,0-.23,0-0.23.21Q34.47,14.91,34.46,19.76Z" transform="translate(-0.65 -0.12)"/>
   <path class="cls-9" d="M51.46,20c0.58,0,1.17,0,1.75,0,0.18,0,.21-0.06.21-0.22,0-1,0-2,0-2.94a4,4,0,0,1,.11-1A2.21,2.21,0,0,1,55.41,14c0.35,0,.71,0,1.06,0,0.19,0,.23,0,0.23.23,0,1,0,1.93,0,2.89a7.68,7.68,0,0,0,0,1.19,1.82,1.82,0,0,0,1.2,1.6,4.27,4.27,0,0,0,2.65-.07c0.1,0,.1-0.09.09-0.18,0-.25-0.08-0.5-0.13-0.76a1.08,1.08,0,0,0-.12-0.55,0.86,0.86,0,0,0-.57.07H59.79a0.7,0.7,0,0,1-.9-0.82c0-1.11,0-2.23,0-3.34,0-.23.08-0.28,0.29-0.27,0.38,0,.76,0,1.14,0,0.12,0,.17,0,0.17-0.16q0-.58,0-1.17a0.14,0.14,0,0,0-.18-0.18c-0.39,0-.78,0-1.17,0-0.19,0-.26,0-0.25-0.24,0-.53,0-1.06,0-1.59,0-.21,0-0.29-0.27-0.28a10.49,10.49,0,0,1-1.24,0,0.27,0.27,0,0,0-.33.29c-0.09.53-.19,1.06-0.28,1.59a0.23,0.23,0,0,1-.28.24c-0.35,0-.71,0-1.06,0a2.32,2.32,0,0,0-1.68.71,4.13,4.13,0,0,0-.63.87c-0.19-.49-0.37-0.93-0.53-1.38a0.26,0.26,0,0,0-.31-0.2c-0.28,0-.57,0-0.85,0s-0.21,0-.21.21q0,3.51,0,7C51.23,19.95,51.3,20,51.46,20Z" transform="translate(-0.65 -0.12)"/>
   <path class="cls-5" d="M68.94,19.77a0.16,0.16,0,0,0,.19.19c0.56,0,1.11,0,1.67,0,0.22,0,.27-0.06.27-0.28,0-1.53,0-3.06,0-4.58a0.36,0.36,0,0,1,.07-0.3,2,2,0,0,1,1-.62,1.09,1.09,0,0,1,1.4,1.08c0,1.49,0,3,0,4.48,0,0.17,0,.22.22,0.22,0.57,0,1.15,0,1.72,0,0.2,0,.25,0,0.25-0.25,0-1.26,0-2.53,0-3.79,0-.41,0-0.81,0-1.22a2.38,2.38,0,0,0-1.94-2.3A3.07,3.07,0,0,0,71,13.3c-0.11.11-.21,0.23-0.34,0.39-0.15-.4-0.26-0.7-0.37-1a0.2,0.2,0,0,0-.23-0.16c-0.31,0-.62,0-0.93,0-0.16,0-.21,0-0.21.2Q69,16.25,68.94,19.77Z" transform="translate(-0.65 -0.12)"/>
   <path class="cls-9" d="M46.82,20.11A3.87,3.87,0,1,0,43,16.22,3.87,3.87,0,0,0,46.82,20.11Zm0-5.84a2,2,0,0,1,2,2,2,2,0,1,1-4,0A2,2,0,0,1,46.86,14.27Z" transform="translate(-0.65 -0.12)"/>
   <path class="cls-9" d="M64.54,20.11a3.87,3.87,0,1,0-3.84-3.88A3.87,3.87,0,0,0,64.54,20.11Zm0-5.84a2,2,0,0,1,2,2A2,2,0,1,1,64.57,14.27Z" transform="translate(-0.65 -0.12)"/>
   <path class="cls-10" d="M62.27,26.93c-0.09-.19-0.06-0.28.13-0.36A1.57,1.57,0,0,0,63.12,26a1.82,1.82,0,0,0-1.4-2.79c-0.84-.09-1.68,0-2.51-0.05-0.21,0-.25.07-0.25,0.26,0,1,0,2,0,2.94s0,2,0,3c0,0.18.05,0.25,0.24,0.24a4.86,4.86,0,0,1,.64,0c0.19,0,.24-0.05.24-0.24q0-.86,0-1.72a1,1,0,0,1,.06-0.71,1.33,1.33,0,0,1,.69,0,0.31,0.31,0,0,1,.35.23c0.26,0.59.53,1.18,0.79,1.76s0.32,0.72,1.09.72h0.13c0.31,0,.31,0,0.18-0.27C63,28.5,62.65,27.71,62.27,26.93Zm-0.65-1a5.79,5.79,0,0,1-1.44.07c-0.12,0-.1-0.1-0.1-0.17,0-.27,0-0.55,0-0.82s0-.53,0-0.79c0-.1,0-0.18.14-0.17a7.25,7.25,0,0,1,1.37.05,0.82,0.82,0,0,1,.67.86A0.86,0.86,0,0,1,61.62,25.91Z" transform="translate(-0.65 -0.12)"/>
   <path class="cls-10" d="M73.64,23.21a14.58,14.58,0,0,0-2.22-.09c-0.23,0-.28.08-0.27,0.29,0,1,0,1.94,0,2.91s0,2,0,3c0,0.16,0,.24.21,0.24,0.64,0,1.29,0,1.93,0a2.49,2.49,0,0,0,2.37-1.79,4.89,4.89,0,0,0,.14-2.25A2.53,2.53,0,0,0,73.64,23.21Zm1,4.17a1.5,1.5,0,0,1-1.47,1.26c-0.2,0-.41,0-0.61,0s-0.28,0-.27-0.26c0-.69,0-1.38,0-2.06s0-1.38,0-2.06c0-.19.05-0.25,0.24-0.24s0.51,0,.76,0a1.48,1.48,0,0,1,1.37,1.33A4.9,4.9,0,0,1,74.6,27.38Z" transform="translate(-0.65 -0.12)"/>
   <path class="cls-10" d="M56.8,23.3a0.15,0.15,0,0,0-.19-0.18,6.18,6.18,0,0,1-.69,0c-0.21,0-.25.06-0.25,0.26,0,1.3,0,2.6,0,3.9a2.94,2.94,0,0,1-.06.6,0.9,0.9,0,0,1-.65.79,1.26,1.26,0,0,1-1.27-.23,0.75,0.75,0,0,1-.2-0.34,2.14,2.14,0,0,1-.1-0.62q0-1,0-2h0c0-.49,0-1,0-1.48a1.32,1.32,0,0,0,0-.79,1.41,1.41,0,0,0-.81-0.06c-0.2,0-.26,0-0.25.25,0,0.83,0,1.66,0,2.49a14.42,14.42,0,0,0,.05,2,2,2,0,0,0,.73,1.42,2.77,2.77,0,0,0,2.95,0,2.12,2.12,0,0,0,.76-1.71C56.81,26.11,56.79,24.71,56.8,23.3Z" transform="translate(-0.65 -0.12)"/>
   <path class="cls-6" d="M44,28.65c-0.79,0-1.59,0-2.38,0-0.17,0-.24,0-0.23-0.22,0-.52,0-1,0-1.56,0-.16,0-0.24.22-0.24h1.32c0.64,0,.63,0,0.63-0.65a0.19,0.19,0,0,0-.23-0.22h-1.7a0.2,0.2,0,0,1-.24-0.25c0-.42,0-0.85,0-1.27,0-.19.07-0.24,0.24-0.23h1.85c0.65,0,.64,0,0.65-0.65,0-.22-0.08-0.26-0.27-0.26-1.1,0-2.19,0-3.29,0-0.23,0-.3.06-0.3,0.29,0,1,0,1.94,0,2.91s0,2,0,3a0.21,0.21,0,0,0,.25.26h3.15c0.62,0,.61,0,0.62-0.6C44.29,28.72,44.23,28.64,44,28.65Z" transform="translate(-0.65 -0.12)"/>
   <path class="cls-6" d="M65.6,23.12c-0.23,0-.27.08-0.27,0.29,0,1,0,1.94,0,2.91s0,2,0,3c0,0.21.07,0.27,0.27,0.26h3.13c0.63,0,.62,0,0.62-0.62a0.23,0.23,0,0,0-.29-0.28H66.68a0.19,0.19,0,0,1-.24-0.24c0-.51,0-1,0-1.54a0.2,0.2,0,0,1,.24-0.25H68c0.61,0,.6,0,0.61-0.61a0.2,0.2,0,0,0-.25-0.25c-0.56,0-1.11,0-1.67,0-0.17,0-.26,0-0.25-0.23,0-.43,0-0.87,0-1.3,0-.18.06-0.22,0.23-0.22h1.88c0.65,0,.64,0,0.64-0.65a0.2,0.2,0,0,0-.25-0.25C67.82,23.14,66.71,23.14,65.6,23.12Z" transform="translate(-0.65 -0.12)"/>
   <path class="cls-10" d="M34.08,29.09a3.91,3.91,0,0,0,2,.56,3.13,3.13,0,0,0,.68-0.05A1.81,1.81,0,0,0,38.24,27a1.86,1.86,0,0,0-1-1c-0.49-.24-1-0.32-1.51-0.57A0.77,0.77,0,0,1,36,24a3.33,3.33,0,0,1,1.07.1,0.86,0.86,0,0,0,.58.17,1.86,1.86,0,0,0,.31-0.57c0.11-.19,0-0.26-0.13-0.33a3.71,3.71,0,0,0-2.23-.25,1.6,1.6,0,0,0-1.38,1.19,1.72,1.72,0,0,0,.52,1.83,3.57,3.57,0,0,0,1.2.6,4.69,4.69,0,0,1,.93.38,0.84,0.84,0,0,1-.24,1.56,2.75,2.75,0,0,1-1.73-.2,0.85,0.85,0,0,0-.55-0.24,1.72,1.72,0,0,0-.36.5C33.83,28.89,33.91,29,34.08,29.09Z" transform="translate(-0.65 -0.12)"/>
   <path class="cls-10" d="M49.9,28.08a0.84,0.84,0,0,0-.47.32l-0.13.08a1.41,1.41,0,0,1-2.1-.76,4.37,4.37,0,0,1,0-2.81,1.4,1.4,0,0,1,2.09-.72,0.62,0.62,0,0,0,.49.28A1.5,1.5,0,0,0,50.22,24l0.07-.08c0.12-.1.09-0.18,0-0.28A2.24,2.24,0,0,0,48.82,23a2.45,2.45,0,0,0-2.33,1,4,4,0,0,0-.67,2.35,3.56,3.56,0,0,0,.05.71,2.61,2.61,0,0,0,2.91,2.58,2.36,2.36,0,0,0,1.62-.79c0.06-.06.14-0.13,0-0.22A2.24,2.24,0,0,0,49.9,28.08Z" transform="translate(-0.65 -0.12)"/>
   <path class="cls-3" d="M25,11.88c-0.58,0-.58,0-0.58.57S24.41,13,25,13s0.58,0,.58-0.57S25.55,11.88,25,11.88Z" transform="translate(-0.65 -0.12)"/>
   <path class="cls-3" d="M25,9c-0.58,0-.58,0-0.58.56s0,0.54.55,0.54,0.59,0,.59-0.56S25.55,9,25,9Z" transform="translate(-0.65 -0.12)"/>
   <path class="cls-2" d="M27.37,8.29l-0.05-.06S27.33,8.29,27.37,8.29Z" transform="translate(-0.65 -0.12)"/>
</svg>
