<?xml version="1.0" standalone="no"?>
<!DOCTYPE svg PUBLIC "-//W3C//DTD SVG 1.1//EN" "http://www.w3.org/Graphics/SVG/1.1/DTD/svg11.dtd" >
<svg xmlns="http://www.w3.org/2000/svg">
<metadata>Generated by IcoMoon</metadata>
<defs>
<font id="icomoon" horiz-adv-x="1024">
<font-face units-per-em="1024" ascent="960" descent="-64" />
<missing-glyph horiz-adv-x="1024" />
<glyph unicode="&#x20;" d="" />
<glyph unicode="&#x41;" glyph-name="laptop" d="M1013.497 159.179c-5.251 13.128-13.128 23.631-23.631 34.133-23.631 31.508-44.636 60.39-70.892 94.523 21.005 31.508 15.754 91.897 15.754 152.287 0 73.518 0 157.538 0 233.682 0 81.395 10.503 152.287-60.39 157.538-241.559 0-483.118 0-724.677 0-23.631 0-49.887-18.379-55.138-42.010-10.503-28.882-5.251-76.144-5.251-115.528s0-76.144 0-115.528c0-86.646-5.251-170.667 0-233.682 2.626-15.754 7.877-26.256 15.754-34.133-21.005-34.133-47.262-65.641-70.892-97.149-10.503-10.503-18.379-23.631-23.631-34.133-10.503-42.010 10.503-76.144 39.385-86.646 23.631-7.877 73.518-2.626 112.903-2.626 225.805 0 464.738 0 693.169 0 36.759 0 94.523-5.251 115.528 2.626 31.508 10.503 52.513 44.636 42.010 86.646zM147.036 789.333c21.005 5.251 65.641 2.626 94.523 2.626 202.174 0 399.097 0 603.897 0 18.379 0 34.133 0 42.010-5.251 10.503-10.503 5.251-39.385 5.251-55.138 0-123.405 0-236.308 0-362.338 0-18.379 0-47.262-5.251-52.513-10.503-10.503-65.641-5.251-91.897-5.251-194.297 0-375.467 0-569.764 0-26.256 0-81.395-5.251-91.897 5.251s-5.251 94.523-5.251 118.154c0 107.651 0 199.549 0 307.2 2.626 28.882-2.626 42.010 18.379 47.262zM968.862 114.544c-10.503-13.128-81.395-5.251-110.277-5.251-259.938 0-493.621 0-753.559 0-34.133 0-60.39-5.251-55.138 34.133 2.626 21.005 26.256 44.636 34.133 55.138 10.503 13.128 18.379 21.005 28.882 34.133s15.754 31.508 31.508 34.133c18.379 5.251 65.641 2.626 91.897 2.626 202.174 0 391.221 0 596.021 0 13.128 0 34.133 2.626 47.262 0 7.877-2.626 21.005-23.631 26.256-34.133 21.005-23.631 34.133-42.010 55.138-70.892 7.877-7.877 21.005-34.133 7.877-49.887zM632.779 206.441c-10.503 5.251-34.133 5.251-52.513 5.251-57.764 0-131.282 2.626-175.918 0-23.631-5.251-39.385-47.262-49.887-60.39 105.026 0 210.051 0 317.703 0-13.128 10.503-23.631 47.262-39.385 55.138z" />
<glyph unicode="&#x42;" glyph-name="listing" d="M84.571 874.286c-48 0-84.571-36.571-84.571-84.571s36.571-84.571 84.571-84.571c45.714 0 86.857 36.571 86.857 84.571-2.286 48-41.143 84.571-86.857 84.571zM84.571 648c-48 0-84.571-38.857-84.571-86.857s36.571-86.857 84.571-86.857c45.714 0 86.857 38.857 86.857 86.857-2.286 48-41.143 86.857-86.857 86.857zM84.571 193.143c-48 0-84.571-38.857-84.571-86.857 0-45.714 36.571-84.571 84.571-84.571 45.714 0 86.857 36.571 86.857 84.571 0 50.286-41.143 86.857-86.857 86.857zM283.429 819.429v-57.143h740.571v57.143zM283.429 305.143h740.571v57.143h-740.571zM283.429 78.857h740.571v57.143h-740.571zM84.571 419.429c-48 0-84.571-38.857-84.571-84.571 0-48 36.571-86.857 84.571-86.857 45.714 0 86.857 38.857 86.857 86.857s-41.143 84.571-86.857 84.571zM283.429 533.714h740.571v57.143h-740.571z" />
<glyph unicode="&#x43;" glyph-name="close" d="M1022.687 899.61v2.626c-18.379 21.005-39.385 36.759-55.138 57.764h-5.251c-149.662-152.287-299.323-304.574-451.61-451.61-152.287 147.036-299.323 301.949-454.236 448.985-21.005-15.754-36.759-34.133-55.138-55.138v-5.251c73.518-73.518 149.662-149.662 223.18-223.18 76.144-76.144 152.287-147.036 223.18-228.431-147.036-152.287-299.323-299.323-446.359-448.985v-2.626c15.754-18.379 34.133-36.759 52.513-55.138 42.010 31.508 76.144 73.518 115.528 110.277 115.528 110.277 223.18 228.431 338.708 338.708 154.913-147.036 304.574-299.323 454.236-451.61h2.626c15.754 21.005 36.759 36.759 55.138 57.764-34.133 42.010-73.518 78.769-110.277 115.528-76.144 76.144-152.287 149.662-228.431 223.18-39.385 36.759-76.144 76.144-110.277 115.528 149.662 154.913 301.949 301.949 451.61 451.61z" />
<glyph unicode="&#x44;" glyph-name="compare" d="M57.962 571.17c16.906 82.113 77.283 132.83 173.887 140.075 60.377 4.83 147.321 2.415 222.189 2.415 99.019 0 227.019 0 335.698 0 36.226 0 91.774 7.245 96.604-16.906 0-14.491-31.396-48.302-41.057-55.547-12.075-14.491-45.887-33.811-41.057-57.962 2.415-12.075 12.075-19.321 26.566-19.321s38.642 28.981 45.887 36.226c26.566 28.981 50.717 57.962 79.698 89.358 7.245 7.245 36.226 33.811 33.811 50.717 0 16.906-24.151 33.811-36.226 45.887-28.981 31.396-50.717 60.377-79.698 91.774-14.491 14.491-31.396 38.642-50.717 33.811-50.717-9.66 7.245-60.377 21.736-77.283 16.906-19.321 43.472-38.642 36.226-57.962-4.83-14.491-50.717-12.075-86.943-12.075-169.057 0-326.038 0-487.849 0-74.868 0-130.415-2.415-173.887-24.151-19.321-9.66-50.717-31.396-62.792-43.472-28.981-28.981-65.208-77.283-67.623-128-2.415-21.736 0-55.547 24.151-55.547 21.736-2.415 24.151 26.566 31.396 57.962zM1011.925 375.547c-12.075 2.415-14.491 7.245-21.736 7.245-31.396 0-24.151-28.981-28.981-50.717-9.66-48.302-36.226-79.698-67.623-101.434-60.377-41.057-166.642-36.226-263.245-33.811-161.811 2.415-301.887-2.415-466.113 0-65.208 2.415-9.66 45.887 9.66 65.208 7.245 9.66 67.623 53.132 24.151 70.038-24.151 7.245-43.472-24.151-50.717-33.811-31.396-36.226-55.547-60.377-84.528-94.189-14.491-14.491-38.642-31.396-38.642-50.717 2.415-14.491 28.981-36.226 36.226-45.887 36.226-38.642 48.302-53.132 82.113-89.358 12.075-12.075 26.566-38.642 48.302-38.642 7.245 0 19.321 9.66 21.736 19.321 7.245 28.981-24.151 53.132-38.642 70.038s-48.302 45.887-38.642 65.208c7.245 16.906 72.453 9.66 106.264 9.66 101.434 0 222.189 0 321.208 0 82.113 0 152.151-2.415 222.189 0s128 33.811 166.642 70.038c36.226 33.811 72.453 91.774 60.377 161.811z" />
<glyph unicode="&#x45;" glyph-name="listing-large" d="M86.502 873.498c-46.758 0-86.502-37.406-86.502-84.164s39.744-86.502 86.502-86.502c46.758 0 84.164 39.744 84.164 86.502s-37.406 84.164-84.164 84.164zM86.502 532.164c-46.758 0-86.502-37.406-86.502-84.164s39.744-86.502 86.502-86.502c46.758 0 84.164 39.744 84.164 86.502s-37.406 84.164-84.164 84.164zM86.502 193.169c-46.758 0-86.502-39.744-86.502-86.502s39.744-84.164 86.502-84.164c46.758 0 84.164 37.406 84.164 84.164s-37.406 86.502-84.164 86.502zM285.224 817.388v-56.11h738.776v56.11zM285.224 419.945h738.776v56.11h-738.776zM285.224 78.612h738.776v56.11h-738.776z" />
<glyph unicode="&#x46;" glyph-name="listing-small" d="M0 839.323v-58.581h1024v58.581zM0 539.387h1024v58.581h-1024zM0 298.032h1024v60.924h-1024zM0 56.677h1024v60.924h-1024z" />
<glyph unicode="&#x47;" glyph-name="departments-thin" d="M0 824.209v-69.009h1024v69.009zM0 414.609h1024v66.783h-1024zM0 71.791h1024v69.009h-1024z" />
<glyph unicode="&#x4a;" glyph-name="accesories" d="M506.775 957.388c143.673 2.612 253.389-62.694 321.306-141.061 36.571-41.796 62.694-91.429 80.98-148.898 18.286-65.306 13.061-138.449 13.061-214.205 0-80.98 5.225-154.123-13.061-216.816-13.061-57.469-41.796-107.102-78.367-148.898-65.306-80.98-167.184-146.286-313.47-148.898-143.673-2.612-253.389 62.694-321.306 141.061-36.571 41.796-62.694 94.042-80.98 148.898-15.673 60.082-15.673 130.612-15.673 211.592 0 70.531-2.612 151.51 13.061 214.205s39.184 109.714 75.755 154.123c70.531 80.98 172.408 148.898 318.694 148.898zM146.285 471.51c114.94 0 229.878 0 344.817 0 0 31.347 0 62.694 0 91.429-18.286 7.837-36.571 23.51-41.796 44.408-10.449 26.122-10.449 130.612-5.225 161.959 5.225 33.959 28.735 41.796 47.020 57.469-2.612 28.735 5.225 65.306-5.225 88.816-222.041-26.122-363.103-185.47-339.592-444.083zM535.51 907.755c0-28.735 0-60.082 0-88.816 44.408-18.286 44.408-49.633 44.408-117.551 0-31.347 2.612-62.694 0-83.592-2.612-28.735-26.122-44.408-44.408-54.858 0-31.347 0-60.082 0-91.429 112.327 0 229.878 0 342.204 0 13.061 138.449-20.898 237.714-80.98 308.245-57.469 70.531-141.061 125.388-258.612 135.837-2.612-2.612-2.612-5.225-2.612-7.837zM491.102 724.898c0-26.122-10.449-104.491 5.225-114.94 7.837-7.837 26.122-5.225 33.959 0 15.673 10.449 7.837 60.082 7.837 75.755 0 41.796 7.837 99.265-28.735 94.042-26.122-2.612-18.286-26.122-18.286-54.858zM146.285 421.878c-10.449-141.061 23.51-240.327 88.816-313.47 60.082-70.531 151.51-125.388 279.51-125.388 130.612 0 216.816 54.858 279.51 125.388 65.306 73.143 96.653 175.021 86.204 318.694-245.552 0-485.879 0-731.431 0-2.612 0-2.612-2.612-2.612-5.225z" />
<glyph unicode="&#x4b;" glyph-name="smartphone" d="M861.091 792.984c0 35.594 5.476 87.615-2.738 112.257-19.166 54.759-106.781 38.332-186.182 38.332-106.781 0-210.824 0-317.604 0-41.070 0-120.471 10.952-153.326-5.476-43.807-19.166-38.332-62.973-38.332-131.422 0-191.658 0-383.316 0-572.235 0-73.925-5.476-156.064 2.738-229.989 2.738-30.118 16.428-49.283 41.070-54.759 38.332-13.69 101.305-2.738 150.588-2.738 106.781 0 208.086 0 312.128 0 46.545 0 120.471-10.952 153.326 2.738 43.807 16.428 35.594 79.401 35.594 145.112 2.738 235.465 2.738 465.455 2.738 698.182zM214.93 899.765c8.214 8.214 46.545 5.476 73.925 5.476 150.588 0 298.439 0 454.503 0 21.904 0 60.235 2.738 71.187-5.476 13.69-8.214 5.476-43.807 5.476-54.759-202.61 0-405.219 0-610.567 0 0 0-2.738 0-2.738 2.738 2.738 13.69-5.476 43.807 8.214 52.021zM820.021 806.674c0-232.727 0-465.455 0-700.92-202.61 0-405.219 0-610.567 0 0 0-2.738 0-2.738 0 0 235.465 0 468.193 0 700.92 202.61 0 407.957 0 613.305 0zM814.545-9.241c-5.476-8.214-46.545-5.476-71.187-5.476-153.326 0-309.39 0-459.979 0-35.594 0-71.187-5.476-76.663 19.166-2.738 19.166 2.738 43.807 0 62.973 205.348 0 407.957 0 613.305 0-5.476-16.428 8.214-62.973-5.476-76.663zM516.107 45.519c-32.856 0-90.353 8.214-82.139-24.642 5.476-19.166 24.642-16.428 46.545-16.428 10.952 0 24.642 0 41.070 0 19.166 0 60.235-5.476 71.187 5.476 8.214 8.214 5.476 24.642 0 30.118-13.69 13.69-54.759 5.476-76.663 5.476z" />
<glyph unicode="&#x61;" glyph-name="shopping-bag" d="M974.17-64c-306.453 0-615.397 0-924.341 0 29.898 249.148 57.304 503.28 89.693 749.937 54.813 0 107.134 0 161.946 0-9.966 132.049 62.287 219.251 161.946 239.183 149.489 34.881 276.555-82.219 259.114-239.183 54.813 0 109.625 0 164.438 0 29.898-249.148 59.796-498.297 87.202-749.937zM503.28 887.747c-97.168-4.983-166.929-84.71-154.472-201.81 109.625 0 219.251 0 328.876 0 9.966 124.574-62.287 206.793-174.404 201.81zM176.895 641.090c-27.406-221.742-52.321-443.484-79.728-662.735 276.555 0 553.11 0 827.173 0-24.915 224.234-52.321 443.484-77.236 667.718-42.355 0-84.71 0-124.574 0 0-14.949 0-27.406 0-42.355 12.457-12.457 19.932-19.932 19.932-42.355-4.983-44.847-87.202-49.83-87.202 7.474 0 17.44 17.44 22.423 22.423 39.864 2.491 9.966-2.491 19.932 0 39.864-112.117 0-221.742 0-331.367 0-12.457-52.321 19.932-47.338 19.932-82.219 0-54.813-87.202-54.813-84.71 2.491 0 19.932 14.949 22.423 19.932 39.864 2.491 9.966 0 19.932 0 39.864-39.864 0-82.219 0-124.574 0 0-4.983 0-7.474 0-7.474z" />
<glyph unicode="&#x62;" glyph-name="grid" d="M90.798 898.207c-50.443 0-90.798-40.355-90.798-90.798 0-47.921 40.355-88.276 90.798-88.276s90.798 40.355 90.798 88.276c0 50.443-40.355 90.798-90.798 90.798zM512 898.207c-50.443 0-90.798-40.355-90.798-90.798 0-47.921 40.355-88.276 90.798-88.276s90.798 40.355 90.798 88.276c0 50.443-40.355 90.798-90.798 90.798zM933.202 719.133c50.443 0 90.798 40.355 90.798 88.276 0 50.443-40.355 90.798-90.798 90.798s-90.798-40.355-90.798-90.798c0-47.921 40.355-88.276 90.798-88.276zM90.798 537.537c-50.443 0-90.798-40.355-90.798-90.798s40.355-90.798 90.798-90.798c50.443 0 90.798 40.355 90.798 90.798s-40.355 90.798-90.798 90.798zM512 537.537c-50.443 0-90.798-40.355-90.798-90.798s40.355-90.798 90.798-90.798c50.443 0 90.798 40.355 90.798 90.798s-40.355 90.798-90.798 90.798zM933.202 537.537c-50.443 0-90.798-40.355-90.798-90.798s40.355-90.798 90.798-90.798c50.443 0 90.798 40.355 90.798 90.798s-40.355 90.798-90.798 90.798zM90.798 176.867c-50.443 0-90.798-40.355-90.798-90.798 0-47.921 40.355-88.276 90.798-88.276s90.798 40.355 90.798 88.276c0 50.443-40.355 90.798-90.798 90.798zM512 176.867c-50.443 0-90.798-40.355-90.798-90.798 0-47.921 40.355-88.276 90.798-88.276s90.798 40.355 90.798 88.276c0 50.443-40.355 90.798-90.798 90.798zM933.202 176.867c-50.443 0-90.798-40.355-90.798-90.798 0-47.921 40.355-88.276 90.798-88.276s90.798 40.355 90.798 88.276c0 50.443-40.355 90.798-90.798 90.798z" />
<glyph unicode="&#x63;" glyph-name="best-brands" d="M1015.979 588.366c0 72.188 0 136.355 0 211.217 0 72.188 8.021 131.008-48.125 149.723-21.389 5.347-66.841 2.674-104.272 2.674-69.514 0-136.355 0-208.543 0-37.431 0-77.535 2.674-104.272-5.347-29.41-8.021-53.473-40.104-74.862-64.167-139.029-139.029-275.384-270.037-417.086-414.413-21.389-24.063-56.146-48.125-58.82-80.209 0-29.41 24.063-48.125 42.778-66.841 109.619-109.619 211.217-213.89 318.162-320.836 26.736-26.736 42.778-53.473 80.209-58.82 2.674 0 5.347 0 5.347 0 32.084 0 61.493 37.431 82.883 58.82 139.029 139.029 272.71 272.71 411.739 411.739 21.389 24.063 56.146 50.799 66.841 74.862 13.368 21.389 8.021 61.493 8.021 101.598zM981.222 500.136c-8.021-26.736-40.104-50.799-61.493-72.188-136.355-133.681-259.342-262.016-398.371-398.371-18.715-16.042-50.799-58.82-72.188-58.82-18.715 0-42.778 32.084-58.82 45.452-104.272 106.945-203.196 203.196-310.141 310.141-13.368 13.368-48.125 32.084-48.125 56.146s48.125 58.82 61.493 74.862c136.355 136.355 264.689 262.016 403.718 401.044 21.389 18.715 45.452 56.146 77.535 58.82 56.146 8.021 128.334 2.674 200.522 2.674 29.41 0 61.493 0 98.924 0s82.883 2.674 98.924-13.368c16.042-16.042 10.695-58.82 10.695-96.251 0-72.188 0-131.008 0-208.543 0-34.757 5.347-80.209-2.674-101.598zM807.436 837.013c-40.104-8.021-72.188-40.104-66.841-88.23 0-26.736 18.715-50.799 37.431-61.493 53.473-34.757 133.681 5.347 125.661 80.209-2.674 40.104-42.778 77.535-96.251 69.514zM823.478 706.005c-58.82-2.674-72.188 88.23-10.695 101.598 74.862 13.368 77.535-101.598 10.695-101.598z" />
<glyph unicode="&#x64;" glyph-name="arrow-up" d="M969.1 160.373c-21.483 2.387-45.352 33.417-62.061 50.126-131.282 133.669-262.564 284.047-391.459 410.555-38.191-35.804-73.995-73.995-112.186-114.573-90.704-93.091-181.408-190.956-274.499-288.82-16.709-16.709-40.578-47.739-57.287-54.9-4.774-2.387-14.322-2.387-19.096-4.774 0 0-2.387 0-4.774 0-23.869 2.387-47.739 26.256-38.191 62.061 4.774 19.096 38.191 47.739 57.287 66.834 133.669 140.83 264.951 279.273 396.233 415.329 19.096 19.096 33.417 40.578 64.448 33.417 19.096-2.387 47.739-38.191 64.448-57.287 124.121-133.669 245.855-260.177 369.977-386.685 21.483-26.256 54.9-52.513 62.061-81.156 0-2.387 0-7.161 0-9.548-7.161-26.256-21.483-47.739-54.9-40.578z" />
<glyph unicode="&#x65;" glyph-name="arrow-right" d="M269.396 959.999c5.953 0 8.93 0 11.907 0 29.767-8.93 53.581-41.674 80.372-65.488 125.023-122.047 244.093-244.093 375.070-366.14 17.86-17.86 53.581-47.628 56.558-65.488 5.953-29.767-14.884-47.628-32.744-65.488-133.953-130.977-270.884-261.953-404.837-395.907-20.837-17.86-47.628-53.581-65.488-56.558-35.721-8.93-56.558 14.884-62.512 41.674 0 0 0 2.977 0 2.977 2.977 2.977 2.977 11.907 5.953 20.837 5.953 14.884 35.721 38.698 53.581 56.558 95.256 92.279 190.512 184.558 282.791 276.837 38.698 35.721 77.395 71.442 110.14 110.14-125.023 128-267.907 258.977-398.884 386.977-14.884 17.86-47.628 41.674-50.605 62.512-5.953 35.721 14.884 47.628 38.698 56.558z" />
<glyph unicode="&#x66;" glyph-name="arrow-left-products-header" d="M279.54 483.31l435.494 476.69 70.621-64.736-420.782-459.034 432.552-438.437-73.563-61.793-497.287 503.172z" />
<glyph unicode="&#x67;" glyph-name="arrow-left" d="M792.487 906.574c-2.968-20.777-35.617-44.522-50.458-62.33-130.597-127.629-276.035-261.194-397.727-388.823 32.649-38.586 71.235-74.203 109.82-112.788 92.012-89.043 186.991-181.055 281.971-276.035 14.841-14.841 47.49-38.586 53.426-56.394 2.968-5.936 2.968-14.841 2.968-17.809s0-2.968 0-2.968c0-26.713-26.713-53.426-59.362-44.522-17.809 5.936-44.522 41.554-65.299 59.362-136.533 130.597-270.099 264.162-403.664 394.759-17.809 17.809-38.586 32.649-32.649 65.299 2.968 17.809 38.586 47.49 56.394 62.33 130.597 121.693 252.29 246.354 376.951 368.046 23.745 23.745 47.49 56.394 77.171 65.299 2.968 0 8.904 0 11.872 0 23.745-5.936 44.522-17.809 38.586-53.426z" />
<glyph unicode="&#x68;" glyph-name="arrow-down" d="M1023.999 694.474c0-2.381 0-7.144 0-9.526-7.144-30.958-40.484-54.772-64.298-80.967-123.833-126.214-245.284-252.428-366.735-383.405-16.67-19.051-47.628-57.153-66.679-59.535-30.958-7.144-45.247 14.288-64.298 33.34-130.977 135.74-259.572 273.86-392.93 414.363-19.051 19.051-52.391 47.628-59.535 69.060-9.526 33.34 16.67 57.153 40.484 61.916 2.381 0 4.763 0 4.763 0 4.763-4.763 14.288-2.381 19.051-4.763 16.67-7.144 40.484-38.102 57.153-54.772 92.874-97.637 183.367-195.274 273.86-290.53 35.721-38.102 73.823-76.205 111.926-111.926 126.214 126.214 259.572 276.242 390.549 407.219 16.67 16.67 40.484 50.009 61.916 52.391 33.34 4.763 47.628-16.67 54.772-42.865z" />
<glyph unicode="&#x69;" glyph-name="digital-camera" d="M1021.319 623.581c-5.361 72.377-58.974 123.309-125.99 131.351-18.764 0-42.89-2.681-61.654 0-16.084 42.89-32.168 88.461-83.099 101.864-32.168 5.361-88.461 2.681-136.712 2.681-50.932 0-112.586 8.042-147.435-8.042-40.209-18.764-53.613-53.613-69.696-96.503-34.848 0-72.377 0-107.225 0-2.681 10.723 0 29.487-8.042 37.529-10.723 10.723-58.974 5.361-85.78 5.361-53.613 0-101.864 13.403-91.141-48.251-48.251-18.764-96.503-56.293-99.183-123.309-5.361-40.209 0-85.78 0-134.031 0-80.419 0-176.921 0-262.702 0-48.251 0-88.461 13.403-117.948 18.764-42.89 69.696-80.419 123.309-83.099 249.298 0 495.916 0 745.215 0 50.932 5.361 99.183 34.848 120.628 80.419 16.084 29.487 16.084 72.377 16.084 117.948 0 88.461 0 182.283 0 268.063-2.681 42.89 0 88.461-2.681 128.67zM970.387 124.984c-13.403-21.445-37.529-45.571-67.016-53.613-26.806-5.361-64.335-2.681-99.183-2.681-171.56 0-332.398 0-509.319 0-61.654 0-150.115-8.042-190.325 10.723-29.487 10.723-56.293 40.209-61.654 80.419-2.681 37.529 0 77.738 0 117.948 0 69.696 0 155.476 0 227.853 0 42.89-5.361 96.503 5.361 131.351 5.361 26.806 26.806 53.613 48.251 64.335 24.126 10.723 58.974 5.361 48.251 53.613 32.168 0 64.335 0 99.183 0 5.361-21.445 0-32.168 13.403-40.209s64.335-2.681 80.419-2.681c18.764 0 64.335-5.361 83.099 2.681 13.403 5.361 13.403 26.806 18.764 40.209 10.723 26.806 24.126 56.293 56.293 61.654 18.764 2.681 40.209 0 61.654 0 18.764 0 40.209 0 61.654 0 42.89 0 93.822 5.361 123.309 0 29.487-8.042 37.529-34.848 48.251-61.654 5.361-10.723 10.723-34.848 18.764-40.209 18.764-8.042 67.016 0 88.461-2.681 45.571-8.042 80.419-42.89 85.78-91.141 2.681-34.848 0-75.058 0-115.267 0-75.058 0-152.796 0-227.853-2.681-53.613 2.681-120.628-13.403-152.796zM790.785 599.455c-42.89 40.209-109.906 77.738-195.686 69.696-77.738-5.361-139.393-42.89-179.602-85.78-40.209-45.571-72.377-109.906-67.016-201.047 8.042-80.419 37.529-134.031 85.78-179.602 45.571-42.89 112.586-75.058 195.686-69.696 75.058 5.361 134.031 37.529 176.921 85.78 40.209 48.251 75.058 112.586 69.696 198.366-5.361 83.099-37.529 142.073-85.78 182.283zM777.382 248.293c-37.529-42.89-85.78-67.016-150.115-72.377-69.696-5.361-125.99 21.445-166.199 58.974s-67.016 91.141-69.696 152.796c-5.361 75.058 24.126 131.351 56.293 168.88 32.168 40.209 80.419 69.696 150.115 72.377 69.696 5.361 131.351-24.126 168.88-56.293 34.848-34.848 67.016-91.141 72.377-155.476 5.361-75.058-26.806-128.67-61.654-168.88zM136.712 647.707c-21.445-2.681-29.487-16.084-32.168-32.168-2.681-32.168 29.487-56.293 56.293-45.571 40.209 16.084 26.806 91.141-24.126 77.738z" />
<glyph unicode="&#x6a;" glyph-name="dollar" d="M533.229 960c0-27.473 0-57.444 0-84.917 137.366-22.478 232.273-84.917 239.766-242.263-49.951 0-99.902 0-149.854 0-4.995 62.439-29.971 102.4-87.415 109.893-4.995-62.439 0-132.371-2.498-199.805 144.859-37.463 287.219-94.907 267.239-294.712-12.488-134.868-132.371-204.8-267.239-214.79 0-32.468 0-64.937 0-97.405-19.98 0-39.961 0-62.439 0 0 29.971 0 62.439 0 92.41-162.341 17.483-254.751 107.395-267.239 282.224 49.951 0 102.4 0 149.854 0 0-89.912 47.454-129.873 114.888-149.854 4.995 72.429 2.498 154.849 2.498 232.273-72.429 32.468-152.351 44.956-202.302 99.902-37.463 39.961-52.449 99.902-47.454 162.341 9.99 139.863 119.883 202.302 249.756 219.785 7.493 22.478-4.995 62.439 2.498 84.917 19.98 0 39.961 0 59.941 0zM375.883 615.337c14.985-32.468 57.444-49.951 94.907-54.946 0 62.439 0 122.38 0 182.322-67.434 0-117.385-62.439-94.907-127.376zM533.229 163.278c87.415 0 152.351 94.907 99.902 167.337-17.483 22.478-64.937 39.961-99.902 47.454 0-69.932 0-142.361 0-214.79z" />
<glyph unicode="&#x6b;" glyph-name="favorites" d="M291.207 882.424c4.774 0 11.935 0 16.709 0 95.478-7.161 155.152-47.739 202.89-100.252 47.739 54.9 107.413 93.091 202.89 100.252 7.161 0 11.935 0 19.096 0 0-2.387 0-2.387 2.387-2.387 124.121-9.548 200.503-73.995 241.082-162.312 47.739-102.639 16.709-238.695-33.417-324.625-97.865-171.86-284.047-264.951-434.424-379.524-145.604 119.347-331.786 210.051-432.037 381.911-47.739 83.543-76.382 221.986-31.030 324.625 42.965 90.704 124.121 150.378 245.855 162.312zM276.886 832.298c-57.287-4.774-107.413-33.417-140.83-66.834-33.417-31.030-62.061-81.156-66.834-138.443-7.161-81.156 19.096-147.991 50.126-198.117 88.317-157.538 253.016-248.242 389.072-353.268 93.091 71.608 198.117 128.895 284.047 214.825 81.156 78.769 171.86 183.795 157.538 338.946-2.387 31.030-11.935 59.674-26.256 85.93-35.804 66.834-109.8 121.734-212.438 119.347-100.252-2.387-155.152-62.061-200.503-131.282-47.739 69.221-107.413 138.443-233.921 128.895z" />
<glyph unicode="&#x6c;" glyph-name="feedback" d="M861.591 819.613c-85.333 74.323-209.204 137.634-377.118 126.624-52.301-5.505-101.849-13.763-145.892-27.527-129.376-41.29-225.72-123.871-280.774-233.978-38.538-71.57-57.806-189.935-27.527-286.28 16.516-66.065 52.301-121.118 90.839-165.161 8.258-11.011 35.785-33.032 38.538-46.796 2.753-22.022-11.011-55.054-19.269-74.323-22.022-44.043-46.796-71.57-85.333-101.849-16.516-11.011-52.301-27.527-49.548-46.796 2.753-13.763 30.28-16.516 52.301-19.269 68.817-5.505 134.882 11.011 178.925 27.527 49.548 16.516 99.097 41.29 140.387 68.817 11.011 5.505 27.527 24.774 41.29 27.527 16.516 2.753 38.538-8.258 55.054-8.258 145.892-11.011 261.505 35.785 344.086 93.591 93.591 63.312 178.925 162.409 189.935 313.806 16.516 170.667-63.312 283.527-145.892 352.344zM979.957 467.269c-16.516-143.14-96.344-233.978-187.183-291.785-79.828-52.301-192.688-93.591-330.323-79.828-16.516 2.753-35.785 8.258-49.548 8.258-11.011-2.753-24.774-16.516-35.785-24.774-79.828-57.806-176.172-101.849-305.548-99.097-2.753 8.258 11.011 13.763 16.516 19.269 30.28 22.022 55.054 52.301 77.075 93.591 11.011 27.527 33.032 68.817 27.527 104.602-5.505 13.763-30.28 35.785-38.538 44.043-41.29 41.29-71.57 90.839-90.839 151.398-27.527 90.839-16.516 192.688 19.269 269.763 66.065 137.634 209.204 242.237 401.892 253.247 156.903 8.258 275.269-46.796 357.849-118.366 77.075-66.065 151.398-176.172 137.634-330.323zM333.075 574.624c-11.011 8.258-24.774 11.011-44.043 11.011-16.516 0-30.28-2.753-44.043-11.011-11.011-5.505-19.269-16.516-24.774-27.527s-8.258-24.774-8.258-35.785c0-13.763 2.753-24.774 8.258-38.538 5.505-11.011 16.516-19.269 24.774-27.527 13.763-8.258 27.527-11.011 44.043-11.011 8.258 0 16.516 2.753 22.022 2.753l-52.301-71.57c0-5.505-2.753-8.258-2.753-11.011 0 0 0-2.753 2.753-5.505 0 0 2.753 0 5.505 0h5.505c2.753 0 5.505 0 5.505 0 2.753 0 5.505 2.753 5.505 5.505 0 0 0 0 0 0l68.817 99.097c5.505 8.258 11.011 13.763 13.763 24.774 5.505 8.258 5.505 19.269 5.505 27.527 0 13.763-2.753 24.774-8.258 38.538s-13.763 22.022-27.527 30.28zM341.333 478.28c-5.505-8.258-13.763-16.516-22.022-19.269-8.258-5.505-19.269-5.505-30.28-5.505-8.258 0-19.269 0-30.28 5.505-8.258 5.505-13.763 11.011-19.269 19.269s-8.258 19.269-8.258 30.28c0 11.011 2.753 22.022 8.258 30.28s11.011 16.516 19.269 19.269c11.011 5.505 22.022 8.258 30.28 8.258 11.011 0 19.269-2.753 30.28-8.258 8.258-5.505 16.516-11.011 22.022-19.269s8.258-19.269 8.258-30.28c-2.753-11.011-2.753-22.022-8.258-30.28zM523.011 574.624c-13.763 8.258-27.527 11.011-44.043 11.011-19.269 0-33.032-2.753-44.043-11.011-13.763-5.505-22.022-16.516-27.527-27.527s-8.258-24.774-8.258-35.785c0-13.763 2.753-24.774 8.258-38.538 5.505-11.011 16.516-19.269 27.527-27.527s24.774-11.011 44.043-11.011c5.505 0 16.516 2.753 22.022 2.753l-55.054-71.57c0-2.753 0-5.505 0-5.505s0-2.753 0-5.505c2.753 0 5.505 0 5.505 0h8.258c0 0 2.753 0 5.505 0 0 0 2.753 2.753 2.753 5.505 2.753 0 2.753 0 2.753 0l68.817 96.344c5.505 11.011 8.258 16.516 13.763 24.774 2.753 11.011 5.505 19.269 5.505 30.28 0 13.763-5.505 24.774-11.011 38.538-2.753 8.258-13.763 16.516-24.774 24.774zM528.516 478.28c-5.505-8.258-11.011-16.516-19.269-19.269-8.258-5.505-19.269-5.505-30.28-5.505s-19.269 0-30.28 5.505c-8.258 5.505-16.516 11.011-22.022 19.269s-5.505 19.269-5.505 30.28c0 11.011 0 22.022 5.505 30.28s13.763 16.516 22.022 19.269c8.258 5.505 19.269 8.258 30.28 8.258s19.269-2.753 30.28-8.258c8.258-5.505 13.763-11.011 19.269-19.269s11.011-19.269 11.011-30.28c-2.753-11.011-5.505-22.022-11.011-30.28zM790.022 456.258c-5.505 8.258-19.269 11.011-33.032 11.011s-27.527-2.753-33.032-11.011c-8.258-8.258-13.763-19.269-13.763-33.032 0-5.505 0-11.011 0-16.516s0-11.011 0-13.763c0-13.763 5.505-24.774 13.763-33.032 11.011-11.011 19.269-13.763 35.785-13.763 13.763 0 24.774 2.753 33.032 13.763 8.258 8.258 11.011 19.269 13.763 33.032 0 5.505 0 11.011 0 13.763s0 5.505 0 16.516c-2.753 13.763-8.258 24.774-16.516 33.032zM784.516 392.946c0-8.258-5.505-13.763-8.258-19.269s-11.011-8.258-19.269-8.258c-8.258 0-16.516 2.753-19.269 8.258s-8.258 11.011-8.258 19.269c0 2.753 0 8.258 0 13.763s0 11.011 0 13.763 5.505 13.763 8.258 19.269c2.753 5.505 11.011 8.258 22.022 8.258 8.258 0 13.763-2.753 19.269-8.258 2.753-5.505 5.505-11.011 5.505-19.269s0-11.011 0-13.763c0 0 0-5.505 0-13.763zM792.774 574.624c0 2.753 0 5.505-2.753 5.505-2.753 2.753-2.753 2.753-5.505 2.753h-5.505c-2.753 0-5.505 0-5.505-2.753-2.753 0-5.505 0-5.505-5.505l-165.161-217.462c0-2.753-2.753-2.753-2.753-2.753 0-2.753 0-5.505 2.753-5.505 0-2.753 2.753-2.753 5.505-2.753h2.753c5.505 0 5.505 0 8.258 2.753 2.753 0 2.753 0 5.505 5.505l165.161 217.462c2.753 2.753 2.753 2.753 2.753 2.753zM635.871 467.269c16.516 0 24.774 2.753 35.785 11.011 8.258 8.258 11.011 19.269 13.763 33.032 0 5.505 0 11.011 0 13.763 0 0 0 5.505 0 16.516 0 13.763-5.505 24.774-13.763 33.032-5.505 8.258-19.269 11.011-33.032 11.011s-27.527-2.753-33.032-11.011c-8.258-8.258-13.763-19.269-13.763-33.032 0-5.505 0-11.011 0-16.516s0-11.011 0-13.763c0-13.763 5.505-24.774 16.516-33.032 2.753-8.258 13.763-11.011 27.527-11.011zM611.097 538.839c0 5.505 2.753 13.763 5.505 19.269 5.505 5.505 11.011 8.258 19.269 8.258 11.011 0 16.516-2.753 22.022-8.258 2.753-5.505 8.258-13.763 8.258-19.269 0-8.258 0-13.763 0-13.763 0-2.753 0-5.505 0-13.763s-5.505-13.763-8.258-19.269c-2.753-5.505-11.011-11.011-19.269-11.011s-16.516 5.505-19.269 11.011c-2.753 5.505-8.258 11.011-8.258 19.269 0 2.753 0 8.258 0 13.763s0 11.011 0 13.763z" />
<glyph unicode="&#x6d;" glyph-name="free-delivery" d="M1016.755 339.321c0 38.642 4.83 86.943 0 118.34-7.245 48.302-45.887 89.358-72.453 125.585-28.981 38.642-53.132 84.528-91.774 101.434-55.547 26.566-156.981 0-224.604 7.245-4.83 53.132 14.491 125.585-33.811 142.491-14.491 7.245-45.887 4.83-67.623 4.83-173.887 0-357.434 0-519.245 0-2.415 0-2.415-4.83-2.415-4.83 0-7.245 0-14.491 0-21.736 166.642 0 342.943 0 509.585 0 24.151 0 55.547 4.83 70.038-2.415 28.981-9.66 16.906-99.019 16.906-137.66 0-154.566 2.415-316.377-2.415-461.283-70.038-2.415-149.736-2.415-219.774 0-12.075 55.547-45.887 99.019-101.434 103.849-67.623 7.245-118.34-43.472-130.415-103.849-38.642 4.83-99.019-12.075-115.925 16.906-4.83 60.377 4.83 135.245-4.83 193.208-4.83 0-12.075 0-19.321 0-2.415-31.396-2.415-65.208-2.415-101.434 0-33.811-4.83-72.453 4.83-99.019 16.906-48.302 82.113-31.396 137.66-36.226 12.075-79.698 101.434-130.415 173.887-89.358 31.396 16.906 50.717 50.717 60.377 89.358 101.434 2.415 217.358 2.415 318.792 0 14.491-55.547 55.547-101.434 113.509-103.849 62.792-2.415 111.094 45.887 123.17 103.849 41.057 0 70.038 9.66 77.283 41.057 9.66 28.981 2.415 77.283 2.415 113.509zM272.906 105.057c-115.925-7.245-130.415 166.642-21.736 183.547 43.472 4.83 79.698-19.321 91.774-38.642 41.057-67.623-14.491-140.075-70.038-144.906zM775.245 662.943c7.245 4.83 41.057 7.245 57.962 2.415 38.642-9.66 67.623-65.208 91.774-96.604 28.981-41.057 62.792-77.283 65.208-125.585-43.472-4.83-99.019-2.415-152.151-2.415-26.566 0-55.547-4.83-62.792 16.906-12.075 21.736-4.83 62.792-4.83 101.434s0 86.943 4.83 103.849zM825.962 105.057c-53.132-2.415-94.189 43.472-96.604 91.774 0 50.717 33.811 84.528 74.868 91.774 60.377 9.66 106.264-36.226 106.264-91.774 0-48.302-38.642-86.943-84.528-91.774zM937.057 211.321c-12.075 50.717-45.887 96.604-101.434 103.849-48.302 4.83-96.604-21.736-118.34-65.208-7.245-12.075-7.245-24.151-14.491-38.642-21.736 0-53.132-2.415-72.453 0-2.415 142.491 0 289.811-2.415 432.302 9.66 36.226 77.283 19.321 115.925 21.736 16.906-77.283-28.981-227.019 41.057-248.755 28.981-9.66 70.038-2.415 106.264-2.415 33.811 0 70.038 4.83 101.434-2.415 2.415-24.151 0-57.962 0-91.774 0-60.377 12.075-120.755-55.547-108.679zM362.264 757.132c-118.34 0-236.679 0-352.604 0-2.415 0-2.415-4.83-2.415-4.83 0-7.245 0-14.491 0-21.736 118.34 0 236.679 0 355.019 0 0 9.66 0 19.321 0 26.566zM7.245 646.038c96.604 0 195.623 0 292.226 0 0 9.66 0 16.906 0 26.566-96.604 0-193.208 0-289.811 0-4.83-4.83-2.415-16.906-2.415-26.566zM7.245 561.509c77.283 0 152.151 0 229.434 0 0 9.66 0 16.906 0 26.566-74.868 0-152.151 0-227.019 0-4.83-4.83-2.415-16.906-2.415-26.566zM7.245 479.396c55.547 0 113.509 0 169.057 0 0 9.66 0 16.906 0 26.566-55.547 0-111.094 0-166.642 0-4.83-4.83-2.415-19.321-2.415-26.566z" />
<glyph unicode="&#x6e;" glyph-name="arrow-right-products-header" d="M744.46 483.31l-435.494 476.69-67.678-64.736 417.839-459.034-432.552-438.437 73.563-61.793 497.287 503.172z" />
<glyph unicode="&#x6f;" glyph-name="free-return" d="M177.92 719.36c61.44 79.36 161.28 153.6 304.64 161.28 135.68 7.68 240.64-40.96 312.32-104.96 20.48-17.92 46.080-40.96 51.2-66.56-28.16-5.12-66.56-2.56-104.96-2.56-25.6 0-94.72 12.8-87.040-20.48 2.56-15.36 33.28-12.8 56.32-12.8 71.68 0 143.36 0 209.92 0 0 33.28 0 81.92 0 143.36 0 40.96 12.8 125.44-20.48 122.88-2.56 0-7.68-2.56-7.68-2.56-7.68-40.96-5.12-102.4-5.12-148.48 0-17.92 5.12-38.4-7.68-46.080-23.040 7.68-28.16 28.16-43.52 40.96-110.080 107.52-320 176.64-509.44 89.6-140.8-61.44-271.36-207.36-273.92-401.92 0-23.040-7.68-117.76 25.6-110.080 12.8 2.56 7.68 25.6 7.68 43.52-5.12 140.8 33.28 240.64 92.16 314.88zM951.040 527.36c-25.6 2.56-12.8-64-12.8-84.48 0-133.12-51.2-235.52-120.32-309.76-66.56-69.12-184.32-128-307.2-128-138.24 0-243.2 64-309.76 133.12-7.68 10.24-23.040 20.48-23.040 35.84 10.24 10.24 30.72 7.68 46.080 7.68 17.92 0 35.84 0 53.76 0 28.16 0 92.16-10.24 92.16 17.92 0 17.92-28.16 15.36-53.76 15.36-74.24 0-143.36 0-212.48 0 0-69.12 0-140.8 0-209.92 0-25.6-2.56-56.32 15.36-56.32 25.6 0 15.36 69.12 15.36 94.72 0 38.4-5.12 84.48 7.68 104.96 20.48-7.68 30.72-30.72 43.52-43.52 99.84-94.72 279.040-168.96 471.040-104.96 92.16 30.72 156.16 79.36 209.92 145.92 53.76 64 94.72 156.16 99.84 253.44 2.56 28.16 12.8 125.44-15.36 128z" />
<glyph unicode="&#x70;" glyph-name="safe-payments" d="M212.202 602.217c0-32.077-7.402-96.231 4.935-111.036 9.87-14.805 41.947-12.337 74.024-12.337 152.983 0 276.357 0 426.872 0 44.414 0 143.113-12.337 160.386 7.402 14.805 17.272 9.87 78.959 9.87 108.569 0 88.829 0 145.581 0 231.942 0 39.48 4.935 93.764-7.402 111.036-14.805 19.74-111.036 12.337-150.516 12.337-120.906 0-212.202 0-325.706 0-46.882 0-128.308 9.87-167.788-2.467-34.545-9.87-24.675-66.622-24.675-111.036 0-69.089 0-165.321 0-234.41zM246.747 922.988c19.74 4.935 51.817 0 76.492 0 170.255 0 367.653 2.467 532.974-2.467 2.467-130.776 2.467-278.824 0-412.068-199.865-2.467-414.535-2.467-614.4 0-2.467 111.036-2.467 231.942-2.467 355.316 0 27.142-4.935 56.752 7.402 59.219zM550.246 779.875c39.48 0 91.296-2.467 113.504 7.402 19.74 12.337 27.142 46.882 12.337 69.089-17.272 19.74-74.024 14.805-101.166 14.805-44.414 0-91.296 2.467-120.906-2.467-14.805-2.467-34.545-7.402-39.48-29.61-14.805-71.557 69.089-59.219 135.711-59.219zM458.949 841.561c27.142 4.935 61.687 0 103.634 0 39.48 0 96.231 9.87 93.764-19.74-4.935-22.207-78.959-14.805-106.101-14.805-39.48 0-88.829-4.935-108.569 9.87-2.467 14.805 4.935 24.675 17.272 24.675zM885.822 325.86c-2.467 51.817-76.492 44.414-111.036 27.142-12.337 29.61-39.48 37.012-76.492 32.077-41.947-4.935-74.024-32.077-108.569-54.284-22.207-12.337-61.687-44.414-78.959-46.882-12.337-2.467-46.882 9.87-59.219 17.272s-19.74 19.74-29.61 29.61c-32.077 32.077-69.089 51.817-128.308 56.752-103.634 7.402-177.658-44.414-246.747-76.492-14.805-7.402-44.414-12.337-37.012-39.48 17.272-7.402 34.545 7.402 51.817 14.805s34.545 17.272 51.817 24.675c64.154 27.142 167.788 78.959 254.149 29.61 29.61-17.272 41.947-49.349 71.557-64.154 27.142-14.805 81.427-27.142 123.374-34.545 44.414-7.402 123.374 2.467 113.504-49.349-2.467-17.272-29.61-24.675-51.817-27.142-64.154-7.402-157.918 0-214.67 12.337-24.675 4.935-56.752 14.805-56.752-7.402 0-17.272 32.077-19.74 49.349-22.207 59.219-12.337 170.255-17.272 234.41-9.87 27.142 2.467 37.012 12.337 54.284 24.675 9.87 7.402 22.207 12.337 29.61 17.272 56.752 37.012 118.439 88.829 175.19 115.971 27.142 9.87 83.894 24.675 83.894-12.337 2.467-17.272-22.207-37.012-39.48-51.817-88.829-64.154-185.060-123.374-271.422-180.125-34.545-22.207-78.959-56.752-118.439-66.622-14.805-4.935-29.61-4.935-44.414-2.467-49.349 9.87-91.296 44.414-138.178 66.622-37.012 17.272-98.699 61.687-143.113 59.219-24.675 0-41.947-14.805-61.687-27.142-17.272-12.337-44.414-17.272-46.882-44.414 17.272-19.74 37.012 2.467 51.817 14.805 17.272 12.337 41.947 27.142 56.752 27.142 24.675 2.467 49.349-17.272 76.492-29.61 24.675-14.805 49.349-24.675 69.089-37.012 59.219-29.61 123.374-76.492 197.398-51.817 34.545 9.87 74.024 39.48 111.036 64.154 69.089 44.414 148.048 93.764 209.735 138.178 41.947 24.675 108.569 59.219 118.439 106.101 14.805 71.557-69.089 83.894-120.906 56.752zM641.542 264.173c-27.142 2.467-61.687 0-76.492 9.87 14.805 17.272 41.947 32.077 66.622 46.882 24.675 17.272 54.284 32.077 81.427 34.545 17.272 2.467 32.077-2.467 29.61-17.272 0-12.337-37.012-29.61-49.349-37.012-19.74-14.805-34.545-24.675-51.817-37.012zM858.68 311.055c-49.349-34.545-96.231-71.557-152.983-101.166-4.935 17.272-14.805 29.61-27.142 39.48 17.272 17.272 41.947 37.012 69.089 54.284 29.61 22.207 69.089 46.882 108.569 27.142 0-7.402 2.467-12.337 2.467-19.74z" />
<glyph unicode="&#x71;" glyph-name="order-tracking" d="M1018.653 469.389c-2.674 13.368-13.368 32.084-18.715 50.799-16.042 53.473-37.431 109.619-53.473 157.744-93.577 0-184.48 0-278.057 0 0 40.104 0 80.209 0 122.987-221.911 0-446.496 0-668.407 0 0-18.715 0-40.104 0-61.493 203.196 0 403.718 0 606.914 0-2.674-152.397 0-312.815-2.674-465.211-64.167 0-131.008 0-192.501 0-24.063 104.272-176.46 122.987-232.606 37.431-5.347-10.695-8.021-24.063-16.042-37.431-10.695 2.674-26.736 0-34.757 2.674 0 50.799 0 101.598 0 152.397-21.389 0-42.778 0-64.167 0 0-69.514 0-141.702 0-213.89 34.757 0 66.841 0 101.598 0 16.042-80.209 122.987-120.313 192.501-72.188 24.063 16.042 42.778 42.778 53.473 72.188 88.23 0 176.46 0 264.689 0 13.368-61.493 82.883-106.945 152.397-88.23 45.452 10.695 74.862 45.452 90.903 88.23 34.757 0 66.841 0 98.924 0 0 42.778 0 85.556 0 125.661 0 42.778 5.347 85.556 0 128.334zM227.258 220.742c-16.042 42.778 10.695 80.209 50.799 85.556 29.41 5.347 58.82-13.368 69.514-37.431 26.736-77.535-93.577-122.987-120.313-48.125zM735.248 220.742c-16.042 42.778 13.368 80.209 50.799 85.556 40.104 5.347 74.862-21.389 74.862-61.493 0-66.841-101.598-85.556-125.661-24.063zM954.486 274.214c-10.695 0-24.063 0-34.757 0-13.368 69.514-104.272 117.64-179.133 80.209-21.389-10.695-40.104-26.736-50.799-45.452-8.021-10.695-8.021-24.063-18.715-34.757-2.674 109.619 0 224.585-2.674 336.877 0 0 0 5.347 2.674 5.347 77.535 0 155.070 0 229.932 0 10.695-24.063 18.715-53.473 29.41-80.209 8.021-24.063 24.063-53.473 26.736-80.209 5.347-56.146-8.021-114.966-2.674-181.807zM315.488 616.439c0 21.389 0 42.778 0 61.493-93.577 0-189.828 0-283.405 0-2.674-16.042 0-40.104 0-61.493 93.577 0 189.828 0 283.405 0zM64.167 493.452c61.493 0 125.661 0 189.828 0 0 18.715 0 40.104 0 61.493-61.493 0-125.661 0-189.828 0-2.674-18.715 0-42.778 0-61.493z" />
<glyph unicode="&#x72;" glyph-name="newsletter" d="M1021.171 954.342c2.829-22.63-5.657-45.26-11.315-65.061-73.547-297.017-149.923-594.033-223.47-891.050-5.657-19.801-8.486-39.602-16.972-59.403-14.144-2.829-19.801 5.657-25.459 11.315-79.204 73.547-147.094 149.923-231.956 223.47-8.486 8.486-25.459 31.116-33.945 31.116s-19.801-16.972-28.287-25.459c-42.431-45.26-79.204-87.691-118.807-135.779-11.315-11.315-36.773-50.917-53.746-45.26s-5.657 50.917-2.829 70.718c8.486 79.204 16.972 149.923 19.801 226.298-11.315 11.315-25.459 11.315-36.773 14.144-73.547 25.459-144.265 50.917-223.47 76.376-11.315 2.829-28.287 5.657-31.116 14.144-2.829 14.144 11.315 19.801 22.63 25.459 299.845 166.895 605.348 333.79 910.851 495.028 19.801 11.315 42.431 22.63 62.232 33.945 2.829 5.657 14.144 5.657 22.63 0zM715.668 15.204c8.486-11.315 25.459-31.116 33.945-28.287 5.657 2.829 8.486 11.315 8.486 25.459 70.718 282.873 141.436 560.088 212.155 842.961 2.829 8.486 22.63 62.232 0 56.575-19.801-5.657-39.602-22.63-56.575-31.116-172.552-93.348-342.276-186.696-514.829-277.215-107.492-59.403-209.326-113.149-313.989-172.552-5.657 0-25.459-8.486-25.459-19.801 0-5.657 14.144-11.315 25.459-14.144 65.061-19.801 124.464-42.431 189.525-62.232 11.315-2.829 25.459-8.486 31.116-8.486 11.315 2.829 25.459 19.801 33.945 25.459 158.409 127.293 311.16 251.757 469.569 379.050 8.486 8.486 25.459 25.459 33.945 22.63 25.459-2.829 0-36.773-8.486-45.26-50.917-73.547-110.32-149.923-161.238-220.641-62.232-87.691-121.635-166.895-181.039-254.586 76.376-76.376 147.094-147.094 223.47-217.812zM726.983 626.21c-16.972-8.486-36.773-25.459-53.746-39.602-99.006-79.204-203.668-164.066-302.674-246.099-8.486-8.486-45.26-31.116-48.088-39.602 0-5.657 0-22.63 0-25.459-5.657-50.917-11.315-101.834-16.972-155.58-2.829-22.63-8.486-45.26 0-50.917 11.315 0 22.63 19.801 33.945 31.116 28.287 33.945 59.403 65.061 87.691 96.177 39.602 45.26 76.376 93.348 107.492 138.608 59.403 87.691 124.464 169.724 181.039 251.757 8.486 11.315 19.801 25.459 22.63 39.602-5.657 2.829-8.486 2.829-11.315 0z" />
<glyph unicode="&#x73;" glyph-name="map-marker" d="M480.97 949.657c134.465 10.343 235.313-56.889 297.374-131.879 59.475-77.576 106.020-206.869 72.404-349.091-43.96-201.697-175.838-341.333-292.202-475.798-7.758-7.758-15.515-15.515-28.444-28.444-5.172-7.758-23.273-28.444-25.859-28.444-5.172 0-20.687 23.273-31.030 33.616-113.778 121.535-224.97 243.071-289.616 411.152-23.273 59.475-43.96 129.293-38.788 219.798 10.343 147.394 98.263 256 201.697 310.303 36.202 20.687 80.162 33.616 134.465 38.788zM677.495 204.929c51.717 72.404 103.434 155.152 129.293 250.828 31.030 118.949 5.172 235.313-43.96 310.303-49.131 72.404-126.707 134.465-232.727 139.636-118.949 7.758-201.697-41.374-256-103.434-49.131-54.303-85.333-131.879-85.333-230.141 0-69.818 18.101-131.879 41.374-183.596 64.646-155.152 175.838-274.101 274.101-390.465 59.475 59.475 118.949 131.879 173.253 206.869z" />
<glyph unicode="&#x74;" glyph-name="long-arrow-right" d="M1018.539 465.749h-10.923c0 0 0 0-2.731 0-30.037 27.307-57.344 57.344-87.381 84.651-5.461 5.461-10.923 10.923-16.384 13.653 0 0-2.731 0-2.731 0-5.461-2.731-10.923-5.461-8.192-10.923 0-5.461 8.192-10.923 13.653-16.384 24.576-24.576 51.883-46.421 76.459-70.997h-980.309v-32.768h980.309c-5.461-2.731-5.461-5.461-8.192-8.192-21.845-21.845-43.691-43.691-68.267-62.805-2.731-2.731-10.923-8.192-10.923-13.653 0 0 0-2.731-2.731-2.731 0 0 0 0 0-2.731 0-5.461 5.461-10.923 13.653-8.192 5.461 2.731 10.923 8.192 16.384 13.653 30.037 30.037 60.075 57.344 90.112 87.381h13.653v30.037z" />
<glyph unicode="&#x75;" glyph-name="long-arrow-left" d="M2.738 465.797h13.69c0 0 0 0 0 0 30.118 27.38 60.235 57.497 87.615 84.877 5.476 5.476 10.952 10.952 19.166 13.69 0 0 0 0 0 0 5.476-2.738 10.952-5.476 8.214-10.952 0-5.476-8.214-10.952-10.952-16.428-24.642-24.642-52.021-46.545-76.663-71.187h980.193v-32.856h-980.193c2.738-2.738 5.476-5.476 8.214-8.214 21.904-21.904 43.807-43.807 65.711-62.973 5.476-2.738 10.952-8.214 13.69-13.69 0 0 0-2.738 0-2.738s0 0 0-2.738c0-5.476-2.738-10.952-13.69-8.214-5.476 2.738-8.214 8.214-13.69 13.69-30.118 30.118-62.973 57.497-93.091 87.615h-10.952v30.118z" />
<glyph unicode="&#x76;" glyph-name="login-register" d="M984.39-55.198c0-2.934 0-2.934 0-5.868-32.275 0-61.616 0-93.891 0-2.934 111.496-46.946 196.584-105.627 258.201-55.748 58.682-143.771 105.627-246.464 114.43-111.496 5.868-205.387-35.209-272.871-93.891-73.352-61.616-126.166-146.705-132.034-281.673-32.275 0-61.616 0-93.891 0 0 2.934 0 2.934 0 5.868 14.67 220.057 126.166 343.289 287.542 419.576-114.43 73.352-190.716 252.332-114.43 413.708 49.88 99.759 155.507 184.848 302.212 184.848 143.771 0 246.464-85.089 293.41-187.782 26.407-58.682 41.077-126.166 26.407-202.453-17.605-90.957-73.352-158.441-137.903-208.321 161.375-70.418 272.871-196.584 287.542-416.642zM280.206 678.327c-20.539-111.496 41.077-196.584 90.957-231.794 76.287-49.88 184.848-55.748 264.069-8.802 70.418 44.011 123.232 123.232 111.496 228.86-5.868 52.814-35.209 102.693-64.55 132.034-44.011 46.946-108.562 76.287-199.519 67.484-108.562-11.736-184.848-88.023-202.453-187.782z" />
<glyph unicode="&#x77;" glyph-name="desktop-pc" d="M1021.132 283.070c0 172.101 0 341.333 0 519.171 0 77.445 0 126.207-65.972 131.944-295.44 0-588.011 0-880.583 0-28.683-2.868-54.499-22.947-63.104-48.762-11.473-37.289-2.868-123.339-2.868-172.101 0-152.022 0-283.966 0-435.989 0-65.972-2.868-111.866 45.894-129.076 22.947-5.737 57.367-2.868 86.050-2.868 88.919 0 172.101 0 263.888 0 0-22.947 0-45.894 0-68.84-83.182 8.605-117.602-28.683-108.997-114.734 146.286 0 292.571 0 438.857 0 14.342 83.182-25.815 126.207-108.997 114.734 0 22.947 0 45.894 0 68.84 94.655 0 169.232 0 263.888 0 63.104 0 117.602-5.737 131.944 51.63 2.868 22.947 0 57.367 0 86.050zM688.403 7.709c-117.602 0-232.336 0-349.938 0 2.868 34.42 63.104 22.947 108.997 22.947 57.367 0 114.734 0 174.969 0 28.683 0 63.104 8.605 65.972-22.947zM450.331 145.389c43.025 0 86.050 0 129.076 0 0-22.947 0-45.894 0-68.84-43.025 0-88.919 0-131.944 0 2.868 22.947-2.868 48.762 2.868 68.84zM969.501 197.020c-14.342-11.473-80.314-5.737-111.866-5.737-235.204 0-453.199 0-688.403 0-31.552 0-97.524-5.737-111.866 5.737-8.605 8.605-5.737 54.499-5.737 83.182 0 183.574 0 349.938 0 533.513 0 34.42-5.737 65.972 20.078 71.709 28.683 5.737 80.314 2.868 114.734 2.868 226.599 0 447.462 0 676.93 0 25.815 0 91.787 5.737 106.129-8.605s5.737-134.812 5.737-169.232c0-152.022 0-281.098 0-433.12 0-25.815 5.737-68.84-5.737-80.314zM504.829 257.255c-8.605-2.868-14.342-11.473-14.342-20.078 0-34.42 45.894-25.815 45.894 0 0 17.21-11.473 28.683-31.552 20.078z" />
<glyph unicode="&#x78;" glyph-name="grid-small" d="M84.905 875.095c-46.312 0-84.905-38.593-84.905-87.477 0-46.312 38.593-84.905 84.905-84.905 48.884 0 87.477 38.593 87.477 84.905 0 48.884-38.593 87.477-87.477 87.477zM370.492 875.095c-48.884 0-84.905-38.593-84.905-87.477 0-46.312 36.020-84.905 84.905-84.905s84.905 38.593 84.905 84.905c0 48.884-38.593 87.477-84.905 87.477zM653.508 875.095c-48.884 0-84.905-38.593-84.905-87.477 0-46.312 36.020-84.905 84.905-84.905s84.905 38.593 84.905 84.905c0 48.884-36.020 87.477-84.905 87.477zM939.095 705.286c46.312 0 84.905 36.020 84.905 84.905 0 46.312-38.593 84.905-84.905 84.905-48.884 0-87.477-38.593-87.477-84.905 0-48.884 38.593-84.905 87.477-84.905zM84.905 646.111c-46.312 0-84.905-38.593-84.905-84.905 0-48.884 38.593-84.905 84.905-84.905 48.884 0 87.477 36.020 87.477 84.905 0 46.312-38.593 84.905-87.477 84.905zM370.492 646.111c-48.884 0-84.905-38.593-84.905-84.905 0-48.884 36.020-84.905 84.905-84.905s84.905 36.020 84.905 84.905c0 46.312-38.593 84.905-84.905 84.905zM653.508 646.111c-48.884 0-84.905-38.593-84.905-84.905 0-48.884 36.020-84.905 84.905-84.905s84.905 36.020 84.905 84.905c0 46.312-36.020 84.905-84.905 84.905zM939.095 646.111c-48.884 0-87.477-38.593-87.477-84.905 0-48.884 38.593-84.905 87.477-84.905 46.312 0 84.905 36.020 84.905 84.905-2.573 46.312-38.593 84.905-84.905 84.905zM84.905 419.698c-46.312 0-84.905-38.593-84.905-84.905 0-48.884 38.593-87.477 84.905-87.477 48.884 0 87.477 38.593 87.477 87.477 0 46.312-38.593 84.905-87.477 84.905zM370.492 419.698c-48.884 0-84.905-38.593-84.905-84.905 0-48.884 36.020-87.477 84.905-87.477s84.905 38.593 84.905 87.477c0 46.312-38.593 84.905-84.905 84.905zM653.508 419.698c-48.884 0-84.905-38.593-84.905-84.905 0-48.884 36.020-87.477 84.905-87.477s84.905 38.593 84.905 87.477c0 46.312-36.020 84.905-84.905 84.905zM939.095 419.698c-48.884 0-87.477-38.593-87.477-84.905 0-48.884 38.593-87.477 87.477-87.477 46.312 0 84.905 38.593 84.905 87.477-2.573 46.312-38.593 84.905-84.905 84.905zM84.905 193.286c-46.312 0-84.905-38.593-84.905-87.477 0-46.312 38.593-84.905 84.905-84.905 48.884 0 87.477 38.593 87.477 84.905 0 48.884-38.593 87.477-87.477 87.477zM370.492 193.286c-48.884 0-84.905-38.593-84.905-87.477 0-46.312 36.020-84.905 84.905-84.905s84.905 38.593 84.905 84.905c0 48.884-38.593 87.477-84.905 87.477zM653.508 193.286c-48.884 0-84.905-38.593-84.905-87.477 0-46.312 36.020-84.905 84.905-84.905s84.905 38.593 84.905 84.905c0 48.884-36.020 87.477-84.905 87.477zM939.095 193.286c-48.884 0-87.477-38.593-87.477-87.477 0-46.312 38.593-84.905 87.477-84.905 46.312 0 84.905 38.593 84.905 84.905-2.573 48.884-38.593 87.477-84.905 87.477z" />
<glyph unicode="&#x79;" glyph-name="breadcrumbs-arrow-right" d="M663.241 435.512c0 0 0 2.775 0 2.775s0 2.775 0 2.775c2.775 11.1 0 22.201-5.55 27.751l-224.78 463.436c-11.1 19.425-33.301 27.751-49.951 16.65-19.425-11.1-24.976-36.076-16.65-55.501l219.23-446.786-219.23-446.786c-8.325-19.425-2.775-44.401 16.65-52.726 16.65-11.1 38.851-5.55 49.951 16.65l227.556 463.436c0 0 2.775 2.775 2.775 8.325z" />
<glyph unicode="&#x7a;" glyph-name="call-us-footer" d="M538.435 907.13c166.957-11.13 269.913-114.087 308.87-264.348 13.913 0 25.043 0 36.174 0-33.391 164.174-155.826 289.391-339.478 303.304-222.609 13.913-364.522-125.217-403.478-303.304 11.13 0 25.043 0 33.391 0 41.739 155.826 175.304 278.261 364.522 264.348zM243.478 573.217c-13.913 30.609-52.87 33.391-89.043 30.609-64-5.565-114.087-38.957-128-97.391-8.348-33.391-2.783-83.478-2.783-128s-5.565-91.826 2.783-128c8.348-38.957 44.522-80.696 89.043-94.609 25.043-5.565 69.565-11.13 100.174 0 38.957 19.478 30.609 64 30.609 125.217 0 72.348 0 128 0 197.565 2.783 25.043 5.565 77.913-2.783 94.609zM207.304 194.783c-66.783-19.478-130.783 0-147.478 64-5.565 27.826 0 75.13 0 114.087 0 102.957-8.348 183.652 80.696 192 22.261 5.565 50.087 2.783 66.783-5.565 8.348-111.304 8.348-253.217 0-364.522zM1000.348 495.304c-8.348 75.13-86.261 122.435-164.174 111.304-64-11.13-58.435-50.087-58.435-130.783 0-66.783 0-125.217 0-192 0-33.391-5.565-72.348 2.783-94.609 5.565-13.913 33.391-25.043 33.391-38.957 5.565-25.043-25.043-52.87-41.739-64-30.609-13.913-72.348-8.348-108.522-11.13-19.478 100.174-189.217 97.391-219.826 13.913-8.348-22.261-5.565-50.087 2.783-66.783 38.957-86.261 197.565-69.565 217.043 19.478 111.304-11.13 178.087 22.261 189.217 114.087 77.913-2.783 139.13 36.174 147.478 108.522 5.565 33.391 0 75.13 0 114.087s5.565 80.696 0 116.87zM474.435 55.652c0 27.826 22.261 50.087 55.652 55.652 50.087 8.348 94.609-11.13 94.609-55.652 0-75.13-147.478-72.348-150.261 0zM911.304 194.783c-27.826-11.13-64-11.13-94.609 0-8.348 77.913-2.783 183.652-2.783 281.043 0 25.043-5.565 80.696 8.348 86.261 69.565 19.478 133.565-13.913 141.913-75.13 2.783-33.391 0-75.13 0-116.87 0-91.826 2.783-150.261-52.87-175.304z" />
</font>
</defs>
</svg>
